G04 #@! TF.GenerationSoftware,KiCad,Pcbnew,(5.0.0-rc2-dev-444-g2974a2c10)*
G04 #@! TF.CreationDate,2019-07-21T13:12:54-07:00*
G04 #@! TF.ProjectId,Waveform_Generator,57617665666F726D5F47656E65726174,v01*
G04 #@! TF.SameCoordinates,Original*
G04 #@! TF.FileFunction,Soldermask,Bot*
G04 #@! TF.FilePolarity,Negative*
%FSLAX46Y46*%
G04 Gerber Fmt 4.6, Leading zero omitted, Abs format (unit mm)*
G04 Created by KiCad (PCBNEW (5.0.0-rc2-dev-444-g2974a2c10)) date 07/21/19 13:12:54*
%MOMM*%
%LPD*%
G01*
G04 APERTURE LIST*
%ADD10C,0.150000*%
%ADD11R,1.701600X1.301600*%
%ADD12O,1.801600X1.801600*%
%ADD13R,1.801600X1.801600*%
%ADD14C,1.721600*%
%ADD15R,1.721600X1.721600*%
%ADD16C,1.801600*%
%ADD17C,2.601600*%
%ADD18C,3.101600*%
%ADD19R,1.401600X0.801600*%
G04 APERTURE END LIST*
D10*
G36*
X103120000Y-103705000D02*
X103120000Y-105505000D01*
X105130000Y-105525000D01*
X105130000Y-103725000D01*
X103120000Y-103705000D01*
G37*
X103120000Y-103705000D02*
X103120000Y-105505000D01*
X105130000Y-105525000D01*
X105130000Y-103725000D01*
X103120000Y-103705000D01*
G36*
X105540000Y-103525000D02*
X104651000Y-104414000D01*
X105413000Y-104160000D01*
X104524000Y-105049000D01*
X105413000Y-104795000D01*
X104524000Y-105811000D01*
X105413000Y-105557000D01*
X105413000Y-106827000D01*
X105667000Y-106827000D01*
X105667000Y-105557000D01*
X106556000Y-105811000D01*
X105667000Y-104795000D01*
X106556000Y-105049000D01*
X105667000Y-104160000D01*
X106429000Y-104414000D01*
X105540000Y-103525000D01*
G37*
X105540000Y-103525000D02*
X104651000Y-104414000D01*
X105413000Y-104160000D01*
X104524000Y-105049000D01*
X105413000Y-104795000D01*
X104524000Y-105811000D01*
X105413000Y-105557000D01*
X105413000Y-106827000D01*
X105667000Y-106827000D01*
X105667000Y-105557000D01*
X106556000Y-105811000D01*
X105667000Y-104795000D01*
X106556000Y-105049000D01*
X105667000Y-104160000D01*
X106429000Y-104414000D01*
X105540000Y-103525000D01*
G36*
X104143000Y-102763000D02*
X103254000Y-103652000D01*
X104016000Y-103398000D01*
X103127000Y-104287000D01*
X104016000Y-104033000D01*
X103127000Y-105049000D01*
X104016000Y-104795000D01*
X104016000Y-106065000D01*
X104270000Y-106065000D01*
X104270000Y-104795000D01*
X105159000Y-105049000D01*
X104270000Y-104033000D01*
X105159000Y-104287000D01*
X104270000Y-103398000D01*
X105032000Y-103652000D01*
X104143000Y-102763000D01*
G37*
X104143000Y-102763000D02*
X103254000Y-103652000D01*
X104016000Y-103398000D01*
X103127000Y-104287000D01*
X104016000Y-104033000D01*
X103127000Y-105049000D01*
X104016000Y-104795000D01*
X104016000Y-106065000D01*
X104270000Y-106065000D01*
X104270000Y-104795000D01*
X105159000Y-105049000D01*
X104270000Y-104033000D01*
X105159000Y-104287000D01*
X104270000Y-103398000D01*
X105032000Y-103652000D01*
X104143000Y-102763000D01*
G36*
X102746000Y-103525000D02*
X101857000Y-104414000D01*
X102619000Y-104160000D01*
X101730000Y-105049000D01*
X102619000Y-104795000D01*
X101730000Y-105811000D01*
X102619000Y-105557000D01*
X102619000Y-106827000D01*
X102873000Y-106827000D01*
X102873000Y-105557000D01*
X103762000Y-105811000D01*
X102873000Y-104795000D01*
X103762000Y-105049000D01*
X102873000Y-104160000D01*
X103635000Y-104414000D01*
X102746000Y-103525000D01*
G37*
X102746000Y-103525000D02*
X101857000Y-104414000D01*
X102619000Y-104160000D01*
X101730000Y-105049000D01*
X102619000Y-104795000D01*
X101730000Y-105811000D01*
X102619000Y-105557000D01*
X102619000Y-106827000D01*
X102873000Y-106827000D01*
X102873000Y-105557000D01*
X103762000Y-105811000D01*
X102873000Y-104795000D01*
X103762000Y-105049000D01*
X102873000Y-104160000D01*
X103635000Y-104414000D01*
X102746000Y-103525000D01*
D11*
X104140000Y-102975000D03*
X104140000Y-106175000D03*
D12*
X143510000Y-105410000D03*
D13*
X143510000Y-102870000D03*
D14*
X142875000Y-110490000D03*
X140335000Y-110490000D03*
D15*
X137795000Y-110490000D03*
D16*
X101600000Y-116840000D03*
X104140000Y-116840000D03*
X106680000Y-116840000D03*
X109220000Y-116840000D03*
X111760000Y-116840000D03*
X114300000Y-116840000D03*
X116840000Y-116840000D03*
X119380000Y-116840000D03*
X121920000Y-116840000D03*
X124460000Y-116840000D03*
X127000000Y-116840000D03*
X129540000Y-116840000D03*
X132080000Y-116840000D03*
X134620000Y-116840000D03*
X137160000Y-116840000D03*
X139700000Y-116840000D03*
X111760000Y-96520000D03*
X114300000Y-96520000D03*
X116840000Y-96520000D03*
X119380000Y-96520000D03*
X121920000Y-96520000D03*
X124460000Y-96520000D03*
X127000000Y-96520000D03*
X129540000Y-96520000D03*
X132080000Y-96520000D03*
X134620000Y-96520000D03*
X137160000Y-96520000D03*
X139700000Y-96520000D03*
D17*
X143510000Y-97790000D03*
X143510000Y-115570000D03*
D18*
X97790000Y-115570000D03*
X97790000Y-97790000D03*
D19*
X104140000Y-111740000D03*
X104140000Y-113640000D03*
M02*
