M48
;DRILL file {KiCad (5.0.0-rc2-dev-444-g2974a2c10)} date 07/21/19 13:13:00
;FORMAT={-:-/ absolute / inch / decimal}
FMAT,2
INCH,TZ
T1C0.0130
T2C0.0354
T3C0.0394
T4C0.0984
T5C0.0984
%
G90
G05
M72
T1
X3.95Y-3.895
X3.95Y-4.52
X4.55Y-4.155
X4.555Y-4.52
X4.76Y-3.895
X4.925Y-4.32
X4.93Y-4.42
X4.945Y-4.13
X4.95Y-4.54
X5.03Y-4.32
X5.075Y-3.925
X5.125Y-4.3197
X5.145Y-4.2548
X5.185Y-4.295
X5.27Y-4.24
X5.3719Y-4.27
X5.525Y-3.925
X5.575Y-3.8
X5.575Y-4.6
X5.65Y-4.46
T2
X5.425Y-4.35
X5.525Y-4.35
X5.625Y-4.35
T3
X5.65Y-4.05
X5.65Y-4.15
X4.Y-4.6
X4.1Y-4.6
X4.2Y-4.6
X4.3Y-4.6
X4.4Y-3.8
X4.4Y-4.6
X4.5Y-3.8
X4.5Y-4.6
X4.6Y-3.8
X4.6Y-4.6
X4.7Y-3.8
X4.7Y-4.6
X4.8Y-3.8
X4.8Y-4.6
X4.9Y-3.8
X4.9Y-4.6
X5.Y-3.8
X5.Y-4.6
X5.1Y-3.8
X5.1Y-4.6
X5.2Y-3.8
X5.2Y-4.6
X5.3Y-3.8
X5.3Y-4.6
X5.4Y-3.8
X5.4Y-4.6
X5.5Y-3.8
X5.5Y-4.6
T4
X3.85Y-3.85
X3.85Y-4.55
T5
X5.65Y-3.85
X5.65Y-4.55
T0
M30
