G04 #@! TF.GenerationSoftware,KiCad,Pcbnew,(5.0.0-rc2-dev-444-g2974a2c10)*
G04 #@! TF.CreationDate,2019-07-21T13:12:54-07:00*
G04 #@! TF.ProjectId,Waveform_Generator,57617665666F726D5F47656E65726174,v01*
G04 #@! TF.SameCoordinates,Original*
G04 #@! TF.FileFunction,Soldermask,Top*
G04 #@! TF.FilePolarity,Negative*
%FSLAX46Y46*%
G04 Gerber Fmt 4.6, Leading zero omitted, Abs format (unit mm)*
G04 Created by KiCad (PCBNEW (5.0.0-rc2-dev-444-g2974a2c10)) date 07/21/19 13:12:54*
%MOMM*%
%LPD*%
G01*
G04 APERTURE LIST*
%ADD10C,0.150000*%
%ADD11R,1.101600X1.001600*%
%ADD12O,1.801600X1.801600*%
%ADD13R,1.801600X1.801600*%
%ADD14C,1.721600*%
%ADD15R,1.721600X1.721600*%
%ADD16R,1.501600X0.401600*%
%ADD17R,2.101600X1.901600*%
%ADD18C,1.801600*%
%ADD19C,2.601600*%
%ADD20C,3.101600*%
%ADD21R,1.351600X1.101600*%
%ADD22R,1.101600X1.351600*%
%ADD23R,1.401600X0.801600*%
%ADD24R,0.801600X1.401600*%
%ADD25R,1.661600X0.751600*%
G04 APERTURE END LIST*
D10*
G36*
X104143000Y-102743000D02*
X103254000Y-103632000D01*
X104016000Y-103378000D01*
X103127000Y-104267000D01*
X104016000Y-104013000D01*
X103127000Y-105029000D01*
X104016000Y-104775000D01*
X104016000Y-106045000D01*
X104270000Y-106045000D01*
X104270000Y-104775000D01*
X105159000Y-105029000D01*
X104270000Y-104013000D01*
X105159000Y-104267000D01*
X104270000Y-103378000D01*
X105032000Y-103632000D01*
X104143000Y-102743000D01*
G37*
X104143000Y-102743000D02*
X103254000Y-103632000D01*
X104016000Y-103378000D01*
X103127000Y-104267000D01*
X104016000Y-104013000D01*
X103127000Y-105029000D01*
X104016000Y-104775000D01*
X104016000Y-106045000D01*
X104270000Y-106045000D01*
X104270000Y-104775000D01*
X105159000Y-105029000D01*
X104270000Y-104013000D01*
X105159000Y-104267000D01*
X104270000Y-103378000D01*
X105032000Y-103632000D01*
X104143000Y-102743000D01*
G36*
X105540000Y-103505000D02*
X104651000Y-104394000D01*
X105413000Y-104140000D01*
X104524000Y-105029000D01*
X105413000Y-104775000D01*
X104524000Y-105791000D01*
X105413000Y-105537000D01*
X105413000Y-106807000D01*
X105667000Y-106807000D01*
X105667000Y-105537000D01*
X106556000Y-105791000D01*
X105667000Y-104775000D01*
X106556000Y-105029000D01*
X105667000Y-104140000D01*
X106429000Y-104394000D01*
X105540000Y-103505000D01*
G37*
X105540000Y-103505000D02*
X104651000Y-104394000D01*
X105413000Y-104140000D01*
X104524000Y-105029000D01*
X105413000Y-104775000D01*
X104524000Y-105791000D01*
X105413000Y-105537000D01*
X105413000Y-106807000D01*
X105667000Y-106807000D01*
X105667000Y-105537000D01*
X106556000Y-105791000D01*
X105667000Y-104775000D01*
X106556000Y-105029000D01*
X105667000Y-104140000D01*
X106429000Y-104394000D01*
X105540000Y-103505000D01*
G36*
X102746000Y-103505000D02*
X101857000Y-104394000D01*
X102619000Y-104140000D01*
X101730000Y-105029000D01*
X102619000Y-104775000D01*
X101730000Y-105791000D01*
X102619000Y-105537000D01*
X102619000Y-106807000D01*
X102873000Y-106807000D01*
X102873000Y-105537000D01*
X103762000Y-105791000D01*
X102873000Y-104775000D01*
X103762000Y-105029000D01*
X102873000Y-104140000D01*
X103635000Y-104394000D01*
X102746000Y-103505000D01*
G37*
X102746000Y-103505000D02*
X101857000Y-104394000D01*
X102619000Y-104140000D01*
X101730000Y-105029000D01*
X102619000Y-104775000D01*
X101730000Y-105791000D01*
X102619000Y-105537000D01*
X102619000Y-106807000D01*
X102873000Y-106807000D01*
X102873000Y-105537000D01*
X103762000Y-105791000D01*
X102873000Y-104775000D01*
X103762000Y-105029000D01*
X102873000Y-104140000D01*
X103635000Y-104394000D01*
X102746000Y-103505000D01*
D11*
X123375000Y-111125000D03*
X122375000Y-111125000D03*
X123375000Y-113600000D03*
X122375000Y-113600000D03*
D12*
X143510000Y-105410000D03*
D13*
X143510000Y-102870000D03*
D14*
X142875000Y-110490000D03*
X140335000Y-110490000D03*
D15*
X137795000Y-110490000D03*
D16*
X129073000Y-106315000D03*
X129073000Y-106815000D03*
X129073000Y-107315000D03*
X129073000Y-107815000D03*
X129073000Y-108315000D03*
X124673000Y-108315000D03*
X124673000Y-107815000D03*
X124673000Y-107315000D03*
X124673000Y-106815000D03*
X124673000Y-106315000D03*
D17*
X117443000Y-102870000D03*
X117443000Y-107950000D03*
X113443000Y-107950000D03*
X113443000Y-102870000D03*
D18*
X101600000Y-116840000D03*
X104140000Y-116840000D03*
X106680000Y-116840000D03*
X109220000Y-116840000D03*
X111760000Y-116840000D03*
X114300000Y-116840000D03*
X116840000Y-116840000D03*
X119380000Y-116840000D03*
X121920000Y-116840000D03*
X124460000Y-116840000D03*
X127000000Y-116840000D03*
X129540000Y-116840000D03*
X132080000Y-116840000D03*
X134620000Y-116840000D03*
X137160000Y-116840000D03*
X139700000Y-116840000D03*
X111760000Y-96520000D03*
X114300000Y-96520000D03*
X116840000Y-96520000D03*
X119380000Y-96520000D03*
X121920000Y-96520000D03*
X124460000Y-96520000D03*
X127000000Y-96520000D03*
X129540000Y-96520000D03*
X132080000Y-96520000D03*
X134620000Y-96520000D03*
X137160000Y-96520000D03*
X139700000Y-96520000D03*
D19*
X143510000Y-97790000D03*
X143510000Y-115570000D03*
D20*
X97790000Y-115570000D03*
X97790000Y-97790000D03*
D21*
X120650000Y-103108000D03*
X120650000Y-101108000D03*
D22*
X124730000Y-100965000D03*
X126730000Y-100965000D03*
X126730000Y-103124000D03*
X124730000Y-103124000D03*
X133715000Y-106172000D03*
X131715000Y-106172000D03*
D21*
X110617000Y-106537000D03*
X110617000Y-104537000D03*
X119761000Y-111499000D03*
X119761000Y-113499000D03*
X129540000Y-113499000D03*
X129540000Y-111499000D03*
D22*
X131715000Y-103124000D03*
X133715000Y-103124000D03*
D21*
X120650000Y-107680000D03*
X120650000Y-105680000D03*
D23*
X133350000Y-108905000D03*
X133350000Y-110805000D03*
D24*
X133665000Y-113334000D03*
X131765000Y-113334000D03*
D21*
X127000000Y-113499000D03*
X127000000Y-111499000D03*
X117221000Y-113499000D03*
X117221000Y-111499000D03*
D25*
X136445000Y-104963000D03*
X136445000Y-103063000D03*
X139145000Y-103063000D03*
X139145000Y-104013000D03*
X139145000Y-104963000D03*
M02*
