G04 #@! TF.GenerationSoftware,KiCad,Pcbnew,(5.0.0-rc2-dev-444-g2974a2c10)*
G04 #@! TF.CreationDate,2019-07-21T13:12:54-07:00*
G04 #@! TF.ProjectId,Waveform_Generator,57617665666F726D5F47656E65726174,v01*
G04 #@! TF.SameCoordinates,Original*
G04 #@! TF.FileFunction,Copper,L2,Bot,Signal*
G04 #@! TF.FilePolarity,Positive*
%FSLAX46Y46*%
G04 Gerber Fmt 4.6, Leading zero omitted, Abs format (unit mm)*
G04 Created by KiCad (PCBNEW (5.0.0-rc2-dev-444-g2974a2c10)) date 07/21/19 13:12:54*
%MOMM*%
%LPD*%
G01*
G04 APERTURE LIST*
%ADD10R,1.600000X1.200000*%
%ADD11O,1.700000X1.700000*%
%ADD12R,1.700000X1.700000*%
%ADD13C,1.620000*%
%ADD14R,1.620000X1.620000*%
%ADD15C,1.700000*%
%ADD16C,3.000000*%
%ADD17R,1.300000X0.700000*%
%ADD18C,0.685800*%
%ADD19C,0.254000*%
%ADD20C,0.152400*%
G04 APERTURE END LIST*
D10*
X104140000Y-102975000D03*
X104140000Y-106175000D03*
D11*
X143510000Y-105410000D03*
D12*
X143510000Y-102870000D03*
D13*
X142875000Y-110490000D03*
X140335000Y-110490000D03*
D14*
X137795000Y-110490000D03*
D15*
X101600000Y-116840000D03*
X104140000Y-116840000D03*
X106680000Y-116840000D03*
X109220000Y-116840000D03*
X111760000Y-116840000D03*
X114300000Y-116840000D03*
X116840000Y-116840000D03*
X119380000Y-116840000D03*
X121920000Y-116840000D03*
X124460000Y-116840000D03*
X127000000Y-116840000D03*
X129540000Y-116840000D03*
X132080000Y-116840000D03*
X134620000Y-116840000D03*
X137160000Y-116840000D03*
X139700000Y-116840000D03*
X111760000Y-96520000D03*
X114300000Y-96520000D03*
X116840000Y-96520000D03*
X119380000Y-96520000D03*
X121920000Y-96520000D03*
X124460000Y-96520000D03*
X127000000Y-96520000D03*
X129540000Y-96520000D03*
X132080000Y-96520000D03*
X134620000Y-96520000D03*
X137160000Y-96520000D03*
X139700000Y-96520000D03*
D16*
X97790000Y-115570000D03*
X97790000Y-97790000D03*
D17*
X104140000Y-111740000D03*
X104140000Y-113640000D03*
D18*
X131699000Y-109093000D03*
X136445000Y-108458000D03*
X127762000Y-109728000D03*
X130175000Y-109719400D03*
X130683000Y-108072600D03*
X115570000Y-105537000D03*
X120904000Y-98933000D03*
X100330000Y-98933000D03*
X100330000Y-114808000D03*
X115697000Y-114808000D03*
X141605000Y-96520000D03*
X141605000Y-116840000D03*
X128905000Y-99695000D03*
X125603000Y-104902000D03*
X125095000Y-109728000D03*
X125222000Y-112268000D03*
X140335000Y-99695000D03*
X143510000Y-113284000D03*
X133858000Y-107696000D03*
X125730000Y-115316000D03*
D19*
X104140000Y-115637919D02*
X104140000Y-113640000D01*
X104140000Y-116840000D02*
X104140000Y-115637919D01*
D20*
X104942400Y-111740000D02*
X104962400Y-111760000D01*
X104140000Y-111740000D02*
X104942400Y-111740000D01*
X104962400Y-111760000D02*
X107442000Y-111760000D01*
X107442000Y-111760000D02*
X107950000Y-111252000D01*
X107950000Y-111252000D02*
X107950000Y-103632000D01*
X107293000Y-102975000D02*
X104140000Y-102975000D01*
X107950000Y-103632000D02*
X107293000Y-102975000D01*
X127762000Y-116078000D02*
X127000000Y-116840000D01*
X127762000Y-109728000D02*
X127762000Y-116078000D01*
X128778000Y-111116400D02*
X130175000Y-109719400D01*
X129540000Y-116840000D02*
X128778000Y-116078000D01*
X128778000Y-116078000D02*
X128778000Y-111116400D01*
X130683000Y-108072600D02*
X131699000Y-107056600D01*
X131699000Y-107056600D02*
X131699000Y-98171000D01*
X132080000Y-97790000D02*
X132080000Y-96520000D01*
X131699000Y-98171000D02*
X132080000Y-97790000D01*
X135810000Y-109093000D02*
X136445000Y-108458000D01*
X131699000Y-109093000D02*
X135810000Y-109093000D01*
X116840000Y-115697000D02*
X116840000Y-116840000D01*
X117221000Y-115316000D02*
X116840000Y-115697000D01*
X125730000Y-115316000D02*
X117221000Y-115316000D01*
D19*
G36*
X131241800Y-106867221D02*
X130760322Y-107348700D01*
X130539007Y-107348700D01*
X130272944Y-107458907D01*
X130069307Y-107662544D01*
X129959100Y-107928607D01*
X129959100Y-108216593D01*
X130069307Y-108482656D01*
X130272944Y-108686293D01*
X130539007Y-108796500D01*
X130826993Y-108796500D01*
X131082028Y-108690861D01*
X130975100Y-108949007D01*
X130975100Y-109236993D01*
X131085307Y-109503056D01*
X131288944Y-109706693D01*
X131555007Y-109816900D01*
X131842993Y-109816900D01*
X132109056Y-109706693D01*
X132135749Y-109680000D01*
X136596536Y-109680000D01*
X136596536Y-111300000D01*
X136626106Y-111448659D01*
X136710314Y-111574686D01*
X136836341Y-111658894D01*
X136985000Y-111688464D01*
X138605000Y-111688464D01*
X138753659Y-111658894D01*
X138879686Y-111574686D01*
X138963894Y-111448659D01*
X138993464Y-111300000D01*
X138993464Y-110253095D01*
X139144000Y-110253095D01*
X139144000Y-110726905D01*
X139325319Y-111164647D01*
X139660353Y-111499681D01*
X140098095Y-111681000D01*
X140571905Y-111681000D01*
X141009647Y-111499681D01*
X141344681Y-111164647D01*
X141526000Y-110726905D01*
X141526000Y-110253095D01*
X141684000Y-110253095D01*
X141684000Y-110726905D01*
X141865319Y-111164647D01*
X142200353Y-111499681D01*
X142638095Y-111681000D01*
X143111905Y-111681000D01*
X143549647Y-111499681D01*
X143884681Y-111164647D01*
X144066000Y-110726905D01*
X144066000Y-110253095D01*
X143884681Y-109815353D01*
X143549647Y-109480319D01*
X143111905Y-109299000D01*
X142638095Y-109299000D01*
X142200353Y-109480319D01*
X141865319Y-109815353D01*
X141684000Y-110253095D01*
X141526000Y-110253095D01*
X141344681Y-109815353D01*
X141009647Y-109480319D01*
X140571905Y-109299000D01*
X140098095Y-109299000D01*
X139660353Y-109480319D01*
X139325319Y-109815353D01*
X139144000Y-110253095D01*
X138993464Y-110253095D01*
X138993464Y-109680000D01*
X138963894Y-109531341D01*
X138879686Y-109405314D01*
X138753659Y-109321106D01*
X138605000Y-109291536D01*
X136985000Y-109291536D01*
X136836341Y-109321106D01*
X136710314Y-109405314D01*
X136626106Y-109531341D01*
X136596536Y-109680000D01*
X132135749Y-109680000D01*
X132265549Y-109550200D01*
X135764970Y-109550200D01*
X135810000Y-109559157D01*
X135855030Y-109550200D01*
X135988391Y-109523673D01*
X136139623Y-109422623D01*
X136165132Y-109384446D01*
X136367678Y-109181900D01*
X136588993Y-109181900D01*
X136855056Y-109071693D01*
X137058693Y-108868056D01*
X137168900Y-108601993D01*
X137168900Y-108314007D01*
X137058693Y-108047944D01*
X136855056Y-107844307D01*
X136588993Y-107734100D01*
X136301007Y-107734100D01*
X136034944Y-107844307D01*
X135831307Y-108047944D01*
X135721100Y-108314007D01*
X135721100Y-108535322D01*
X135620622Y-108635800D01*
X132265549Y-108635800D01*
X132109056Y-108479307D01*
X131842993Y-108369100D01*
X131555007Y-108369100D01*
X131299972Y-108474739D01*
X131406900Y-108216593D01*
X131406900Y-107995278D01*
X131990449Y-107411730D01*
X132028623Y-107386223D01*
X132129673Y-107234991D01*
X132156200Y-107101630D01*
X132156200Y-107101629D01*
X132165157Y-107056600D01*
X132156200Y-107011570D01*
X132156200Y-105766890D01*
X142068524Y-105766890D01*
X142238355Y-106176924D01*
X142628642Y-106605183D01*
X143153108Y-106851486D01*
X143383000Y-106730819D01*
X143383000Y-105537000D01*
X143637000Y-105537000D01*
X143637000Y-106730819D01*
X143866892Y-106851486D01*
X144391358Y-106605183D01*
X144781645Y-106176924D01*
X144951476Y-105766890D01*
X144830155Y-105537000D01*
X143637000Y-105537000D01*
X143383000Y-105537000D01*
X142189845Y-105537000D01*
X142068524Y-105766890D01*
X132156200Y-105766890D01*
X132156200Y-105053110D01*
X142068524Y-105053110D01*
X142189845Y-105283000D01*
X143383000Y-105283000D01*
X143383000Y-105263000D01*
X143637000Y-105263000D01*
X143637000Y-105283000D01*
X144830155Y-105283000D01*
X144951476Y-105053110D01*
X144781645Y-104643076D01*
X144391358Y-104214817D01*
X144164895Y-104108464D01*
X144360000Y-104108464D01*
X144508659Y-104078894D01*
X144634686Y-103994686D01*
X144718894Y-103868659D01*
X144748464Y-103720000D01*
X144748464Y-102020000D01*
X144718894Y-101871341D01*
X144634686Y-101745314D01*
X144508659Y-101661106D01*
X144360000Y-101631536D01*
X142660000Y-101631536D01*
X142511341Y-101661106D01*
X142385314Y-101745314D01*
X142301106Y-101871341D01*
X142271536Y-102020000D01*
X142271536Y-103720000D01*
X142301106Y-103868659D01*
X142385314Y-103994686D01*
X142511341Y-104078894D01*
X142660000Y-104108464D01*
X142855105Y-104108464D01*
X142628642Y-104214817D01*
X142238355Y-104643076D01*
X142068524Y-105053110D01*
X132156200Y-105053110D01*
X132156200Y-99187000D01*
X142620648Y-99187000D01*
X143185574Y-99421000D01*
X143834426Y-99421000D01*
X144399352Y-99187000D01*
X145288000Y-99187000D01*
X145288000Y-114173000D01*
X144399352Y-114173000D01*
X143834426Y-113939000D01*
X143185574Y-113939000D01*
X142620648Y-114173000D01*
X129235200Y-114173000D01*
X129235200Y-111305778D01*
X130097678Y-110443300D01*
X130318993Y-110443300D01*
X130585056Y-110333093D01*
X130788693Y-110129456D01*
X130898900Y-109863393D01*
X130898900Y-109575407D01*
X130788693Y-109309344D01*
X130585056Y-109105707D01*
X130318993Y-108995500D01*
X130031007Y-108995500D01*
X129764944Y-109105707D01*
X129561307Y-109309344D01*
X129451100Y-109575407D01*
X129451100Y-109796722D01*
X128486552Y-110761270D01*
X128448378Y-110786777D01*
X128422871Y-110824951D01*
X128422870Y-110824952D01*
X128347327Y-110938010D01*
X128311843Y-111116400D01*
X128320801Y-111161435D01*
X128320800Y-114173000D01*
X128219200Y-114173000D01*
X128219200Y-110294549D01*
X128375693Y-110138056D01*
X128485900Y-109871993D01*
X128485900Y-109584007D01*
X128375693Y-109317944D01*
X128172056Y-109114307D01*
X127905993Y-109004100D01*
X127618007Y-109004100D01*
X127351944Y-109114307D01*
X127148307Y-109317944D01*
X127038100Y-109584007D01*
X127038100Y-109871993D01*
X127148307Y-110138056D01*
X127304800Y-110294549D01*
X127304801Y-114173000D01*
X123317000Y-114173000D01*
X123317000Y-99187000D01*
X131241801Y-99187000D01*
X131241800Y-106867221D01*
X131241800Y-106867221D01*
G37*
X131241800Y-106867221D02*
X130760322Y-107348700D01*
X130539007Y-107348700D01*
X130272944Y-107458907D01*
X130069307Y-107662544D01*
X129959100Y-107928607D01*
X129959100Y-108216593D01*
X130069307Y-108482656D01*
X130272944Y-108686293D01*
X130539007Y-108796500D01*
X130826993Y-108796500D01*
X131082028Y-108690861D01*
X130975100Y-108949007D01*
X130975100Y-109236993D01*
X131085307Y-109503056D01*
X131288944Y-109706693D01*
X131555007Y-109816900D01*
X131842993Y-109816900D01*
X132109056Y-109706693D01*
X132135749Y-109680000D01*
X136596536Y-109680000D01*
X136596536Y-111300000D01*
X136626106Y-111448659D01*
X136710314Y-111574686D01*
X136836341Y-111658894D01*
X136985000Y-111688464D01*
X138605000Y-111688464D01*
X138753659Y-111658894D01*
X138879686Y-111574686D01*
X138963894Y-111448659D01*
X138993464Y-111300000D01*
X138993464Y-110253095D01*
X139144000Y-110253095D01*
X139144000Y-110726905D01*
X139325319Y-111164647D01*
X139660353Y-111499681D01*
X140098095Y-111681000D01*
X140571905Y-111681000D01*
X141009647Y-111499681D01*
X141344681Y-111164647D01*
X141526000Y-110726905D01*
X141526000Y-110253095D01*
X141684000Y-110253095D01*
X141684000Y-110726905D01*
X141865319Y-111164647D01*
X142200353Y-111499681D01*
X142638095Y-111681000D01*
X143111905Y-111681000D01*
X143549647Y-111499681D01*
X143884681Y-111164647D01*
X144066000Y-110726905D01*
X144066000Y-110253095D01*
X143884681Y-109815353D01*
X143549647Y-109480319D01*
X143111905Y-109299000D01*
X142638095Y-109299000D01*
X142200353Y-109480319D01*
X141865319Y-109815353D01*
X141684000Y-110253095D01*
X141526000Y-110253095D01*
X141344681Y-109815353D01*
X141009647Y-109480319D01*
X140571905Y-109299000D01*
X140098095Y-109299000D01*
X139660353Y-109480319D01*
X139325319Y-109815353D01*
X139144000Y-110253095D01*
X138993464Y-110253095D01*
X138993464Y-109680000D01*
X138963894Y-109531341D01*
X138879686Y-109405314D01*
X138753659Y-109321106D01*
X138605000Y-109291536D01*
X136985000Y-109291536D01*
X136836341Y-109321106D01*
X136710314Y-109405314D01*
X136626106Y-109531341D01*
X136596536Y-109680000D01*
X132135749Y-109680000D01*
X132265549Y-109550200D01*
X135764970Y-109550200D01*
X135810000Y-109559157D01*
X135855030Y-109550200D01*
X135988391Y-109523673D01*
X136139623Y-109422623D01*
X136165132Y-109384446D01*
X136367678Y-109181900D01*
X136588993Y-109181900D01*
X136855056Y-109071693D01*
X137058693Y-108868056D01*
X137168900Y-108601993D01*
X137168900Y-108314007D01*
X137058693Y-108047944D01*
X136855056Y-107844307D01*
X136588993Y-107734100D01*
X136301007Y-107734100D01*
X136034944Y-107844307D01*
X135831307Y-108047944D01*
X135721100Y-108314007D01*
X135721100Y-108535322D01*
X135620622Y-108635800D01*
X132265549Y-108635800D01*
X132109056Y-108479307D01*
X131842993Y-108369100D01*
X131555007Y-108369100D01*
X131299972Y-108474739D01*
X131406900Y-108216593D01*
X131406900Y-107995278D01*
X131990449Y-107411730D01*
X132028623Y-107386223D01*
X132129673Y-107234991D01*
X132156200Y-107101630D01*
X132156200Y-107101629D01*
X132165157Y-107056600D01*
X132156200Y-107011570D01*
X132156200Y-105766890D01*
X142068524Y-105766890D01*
X142238355Y-106176924D01*
X142628642Y-106605183D01*
X143153108Y-106851486D01*
X143383000Y-106730819D01*
X143383000Y-105537000D01*
X143637000Y-105537000D01*
X143637000Y-106730819D01*
X143866892Y-106851486D01*
X144391358Y-106605183D01*
X144781645Y-106176924D01*
X144951476Y-105766890D01*
X144830155Y-105537000D01*
X143637000Y-105537000D01*
X143383000Y-105537000D01*
X142189845Y-105537000D01*
X142068524Y-105766890D01*
X132156200Y-105766890D01*
X132156200Y-105053110D01*
X142068524Y-105053110D01*
X142189845Y-105283000D01*
X143383000Y-105283000D01*
X143383000Y-105263000D01*
X143637000Y-105263000D01*
X143637000Y-105283000D01*
X144830155Y-105283000D01*
X144951476Y-105053110D01*
X144781645Y-104643076D01*
X144391358Y-104214817D01*
X144164895Y-104108464D01*
X144360000Y-104108464D01*
X144508659Y-104078894D01*
X144634686Y-103994686D01*
X144718894Y-103868659D01*
X144748464Y-103720000D01*
X144748464Y-102020000D01*
X144718894Y-101871341D01*
X144634686Y-101745314D01*
X144508659Y-101661106D01*
X144360000Y-101631536D01*
X142660000Y-101631536D01*
X142511341Y-101661106D01*
X142385314Y-101745314D01*
X142301106Y-101871341D01*
X142271536Y-102020000D01*
X142271536Y-103720000D01*
X142301106Y-103868659D01*
X142385314Y-103994686D01*
X142511341Y-104078894D01*
X142660000Y-104108464D01*
X142855105Y-104108464D01*
X142628642Y-104214817D01*
X142238355Y-104643076D01*
X142068524Y-105053110D01*
X132156200Y-105053110D01*
X132156200Y-99187000D01*
X142620648Y-99187000D01*
X143185574Y-99421000D01*
X143834426Y-99421000D01*
X144399352Y-99187000D01*
X145288000Y-99187000D01*
X145288000Y-114173000D01*
X144399352Y-114173000D01*
X143834426Y-113939000D01*
X143185574Y-113939000D01*
X142620648Y-114173000D01*
X129235200Y-114173000D01*
X129235200Y-111305778D01*
X130097678Y-110443300D01*
X130318993Y-110443300D01*
X130585056Y-110333093D01*
X130788693Y-110129456D01*
X130898900Y-109863393D01*
X130898900Y-109575407D01*
X130788693Y-109309344D01*
X130585056Y-109105707D01*
X130318993Y-108995500D01*
X130031007Y-108995500D01*
X129764944Y-109105707D01*
X129561307Y-109309344D01*
X129451100Y-109575407D01*
X129451100Y-109796722D01*
X128486552Y-110761270D01*
X128448378Y-110786777D01*
X128422871Y-110824951D01*
X128422870Y-110824952D01*
X128347327Y-110938010D01*
X128311843Y-111116400D01*
X128320801Y-111161435D01*
X128320800Y-114173000D01*
X128219200Y-114173000D01*
X128219200Y-110294549D01*
X128375693Y-110138056D01*
X128485900Y-109871993D01*
X128485900Y-109584007D01*
X128375693Y-109317944D01*
X128172056Y-109114307D01*
X127905993Y-109004100D01*
X127618007Y-109004100D01*
X127351944Y-109114307D01*
X127148307Y-109317944D01*
X127038100Y-109584007D01*
X127038100Y-109871993D01*
X127148307Y-110138056D01*
X127304800Y-110294549D01*
X127304801Y-114173000D01*
X123317000Y-114173000D01*
X123317000Y-99187000D01*
X131241801Y-99187000D01*
X131241800Y-106867221D01*
G36*
X141879000Y-115245574D02*
X141879000Y-115894426D01*
X142127305Y-116493887D01*
X142586113Y-116952695D01*
X143185574Y-117201000D01*
X143834426Y-117201000D01*
X144433887Y-116952695D01*
X144892695Y-116493887D01*
X145141000Y-115894426D01*
X145141000Y-115245574D01*
X145064961Y-115062000D01*
X145288000Y-115062000D01*
X145288000Y-117107113D01*
X145111080Y-117312439D01*
X145056216Y-117348000D01*
X140822005Y-117348000D01*
X140931000Y-117084861D01*
X140931000Y-116595139D01*
X140743592Y-116142694D01*
X140397306Y-115796408D01*
X139944861Y-115609000D01*
X139455139Y-115609000D01*
X139002694Y-115796408D01*
X138656408Y-116142694D01*
X138469000Y-116595139D01*
X138469000Y-117084861D01*
X138577995Y-117348000D01*
X138282005Y-117348000D01*
X138391000Y-117084861D01*
X138391000Y-116595139D01*
X138203592Y-116142694D01*
X137857306Y-115796408D01*
X137404861Y-115609000D01*
X136915139Y-115609000D01*
X136462694Y-115796408D01*
X136116408Y-116142694D01*
X135929000Y-116595139D01*
X135929000Y-117084861D01*
X136037995Y-117348000D01*
X135742005Y-117348000D01*
X135851000Y-117084861D01*
X135851000Y-116595139D01*
X135663592Y-116142694D01*
X135317306Y-115796408D01*
X134864861Y-115609000D01*
X134375139Y-115609000D01*
X133922694Y-115796408D01*
X133576408Y-116142694D01*
X133389000Y-116595139D01*
X133389000Y-117084861D01*
X133497995Y-117348000D01*
X133202005Y-117348000D01*
X133311000Y-117084861D01*
X133311000Y-116595139D01*
X133123592Y-116142694D01*
X132777306Y-115796408D01*
X132324861Y-115609000D01*
X131835139Y-115609000D01*
X131382694Y-115796408D01*
X131036408Y-116142694D01*
X130849000Y-116595139D01*
X130849000Y-117084861D01*
X130957995Y-117348000D01*
X130662005Y-117348000D01*
X130771000Y-117084861D01*
X130771000Y-116595139D01*
X130583592Y-116142694D01*
X130237306Y-115796408D01*
X129784861Y-115609000D01*
X129295139Y-115609000D01*
X129235200Y-115633827D01*
X129235200Y-115062000D01*
X141955039Y-115062000D01*
X141879000Y-115245574D01*
X141879000Y-115245574D01*
G37*
X141879000Y-115245574D02*
X141879000Y-115894426D01*
X142127305Y-116493887D01*
X142586113Y-116952695D01*
X143185574Y-117201000D01*
X143834426Y-117201000D01*
X144433887Y-116952695D01*
X144892695Y-116493887D01*
X145141000Y-115894426D01*
X145141000Y-115245574D01*
X145064961Y-115062000D01*
X145288000Y-115062000D01*
X145288000Y-117107113D01*
X145111080Y-117312439D01*
X145056216Y-117348000D01*
X140822005Y-117348000D01*
X140931000Y-117084861D01*
X140931000Y-116595139D01*
X140743592Y-116142694D01*
X140397306Y-115796408D01*
X139944861Y-115609000D01*
X139455139Y-115609000D01*
X139002694Y-115796408D01*
X138656408Y-116142694D01*
X138469000Y-116595139D01*
X138469000Y-117084861D01*
X138577995Y-117348000D01*
X138282005Y-117348000D01*
X138391000Y-117084861D01*
X138391000Y-116595139D01*
X138203592Y-116142694D01*
X137857306Y-115796408D01*
X137404861Y-115609000D01*
X136915139Y-115609000D01*
X136462694Y-115796408D01*
X136116408Y-116142694D01*
X135929000Y-116595139D01*
X135929000Y-117084861D01*
X136037995Y-117348000D01*
X135742005Y-117348000D01*
X135851000Y-117084861D01*
X135851000Y-116595139D01*
X135663592Y-116142694D01*
X135317306Y-115796408D01*
X134864861Y-115609000D01*
X134375139Y-115609000D01*
X133922694Y-115796408D01*
X133576408Y-116142694D01*
X133389000Y-116595139D01*
X133389000Y-117084861D01*
X133497995Y-117348000D01*
X133202005Y-117348000D01*
X133311000Y-117084861D01*
X133311000Y-116595139D01*
X133123592Y-116142694D01*
X132777306Y-115796408D01*
X132324861Y-115609000D01*
X131835139Y-115609000D01*
X131382694Y-115796408D01*
X131036408Y-116142694D01*
X130849000Y-116595139D01*
X130849000Y-117084861D01*
X130957995Y-117348000D01*
X130662005Y-117348000D01*
X130771000Y-117084861D01*
X130771000Y-116595139D01*
X130583592Y-116142694D01*
X130237306Y-115796408D01*
X129784861Y-115609000D01*
X129295139Y-115609000D01*
X129235200Y-115633827D01*
X129235200Y-115062000D01*
X141955039Y-115062000D01*
X141879000Y-115245574D01*
G36*
X110529000Y-96275139D02*
X110529000Y-96764861D01*
X110716408Y-97217306D01*
X111062694Y-97563592D01*
X111515139Y-97751000D01*
X112004861Y-97751000D01*
X112457306Y-97563592D01*
X112803592Y-97217306D01*
X112991000Y-96764861D01*
X112991000Y-96275139D01*
X112882005Y-96012000D01*
X113177995Y-96012000D01*
X113069000Y-96275139D01*
X113069000Y-96764861D01*
X113256408Y-97217306D01*
X113602694Y-97563592D01*
X114055139Y-97751000D01*
X114544861Y-97751000D01*
X114997306Y-97563592D01*
X115343592Y-97217306D01*
X115531000Y-96764861D01*
X115531000Y-96275139D01*
X115422005Y-96012000D01*
X115717995Y-96012000D01*
X115609000Y-96275139D01*
X115609000Y-96764861D01*
X115796408Y-97217306D01*
X116142694Y-97563592D01*
X116595139Y-97751000D01*
X117084861Y-97751000D01*
X117537306Y-97563592D01*
X117883592Y-97217306D01*
X118071000Y-96764861D01*
X118071000Y-96275139D01*
X117962005Y-96012000D01*
X118257995Y-96012000D01*
X118149000Y-96275139D01*
X118149000Y-96764861D01*
X118336408Y-97217306D01*
X118682694Y-97563592D01*
X119135139Y-97751000D01*
X119624861Y-97751000D01*
X120077306Y-97563592D01*
X120423592Y-97217306D01*
X120611000Y-96764861D01*
X120611000Y-96275139D01*
X120502005Y-96012000D01*
X120797995Y-96012000D01*
X120689000Y-96275139D01*
X120689000Y-96764861D01*
X120876408Y-97217306D01*
X121222694Y-97563592D01*
X121675139Y-97751000D01*
X122164861Y-97751000D01*
X122617306Y-97563592D01*
X122963592Y-97217306D01*
X123151000Y-96764861D01*
X123151000Y-96275139D01*
X123042005Y-96012000D01*
X123337995Y-96012000D01*
X123229000Y-96275139D01*
X123229000Y-96764861D01*
X123416408Y-97217306D01*
X123762694Y-97563592D01*
X124215139Y-97751000D01*
X124704861Y-97751000D01*
X125157306Y-97563592D01*
X125503592Y-97217306D01*
X125691000Y-96764861D01*
X125691000Y-96275139D01*
X125582005Y-96012000D01*
X125877995Y-96012000D01*
X125769000Y-96275139D01*
X125769000Y-96764861D01*
X125956408Y-97217306D01*
X126302694Y-97563592D01*
X126755139Y-97751000D01*
X127244861Y-97751000D01*
X127697306Y-97563592D01*
X128043592Y-97217306D01*
X128231000Y-96764861D01*
X128231000Y-96275139D01*
X128122005Y-96012000D01*
X128417995Y-96012000D01*
X128309000Y-96275139D01*
X128309000Y-96764861D01*
X128496408Y-97217306D01*
X128842694Y-97563592D01*
X129295139Y-97751000D01*
X129784861Y-97751000D01*
X130237306Y-97563592D01*
X130583592Y-97217306D01*
X130771000Y-96764861D01*
X130771000Y-96275139D01*
X130662005Y-96012000D01*
X130957995Y-96012000D01*
X130849000Y-96275139D01*
X130849000Y-96764861D01*
X131036408Y-97217306D01*
X131382694Y-97563592D01*
X131578659Y-97644763D01*
X131407552Y-97815870D01*
X131369378Y-97841377D01*
X131343871Y-97879551D01*
X131343870Y-97879552D01*
X131268327Y-97992610D01*
X131232843Y-98171000D01*
X131241801Y-98216035D01*
X131241801Y-98298000D01*
X122555000Y-98298000D01*
X122506399Y-98307667D01*
X122465197Y-98335197D01*
X122437667Y-98376399D01*
X122428000Y-98425000D01*
X122428000Y-114858800D01*
X117266029Y-114858800D01*
X117220999Y-114849843D01*
X117042609Y-114885327D01*
X116891377Y-114986377D01*
X116865868Y-115024554D01*
X116548554Y-115341868D01*
X116510377Y-115367377D01*
X116425510Y-115494391D01*
X116409327Y-115518610D01*
X116373843Y-115697000D01*
X116374516Y-115700385D01*
X116142694Y-115796408D01*
X115796408Y-116142694D01*
X115609000Y-116595139D01*
X115609000Y-117084861D01*
X115717995Y-117348000D01*
X115422005Y-117348000D01*
X115531000Y-117084861D01*
X115531000Y-116595139D01*
X115343592Y-116142694D01*
X114997306Y-115796408D01*
X114544861Y-115609000D01*
X114055139Y-115609000D01*
X113602694Y-115796408D01*
X113256408Y-116142694D01*
X113069000Y-116595139D01*
X113069000Y-117084861D01*
X113177995Y-117348000D01*
X112882005Y-117348000D01*
X112991000Y-117084861D01*
X112991000Y-116595139D01*
X112803592Y-116142694D01*
X112457306Y-115796408D01*
X112004861Y-115609000D01*
X111515139Y-115609000D01*
X111062694Y-115796408D01*
X110716408Y-116142694D01*
X110633805Y-116342116D01*
X110515259Y-116055920D01*
X110263958Y-115975647D01*
X109399605Y-116840000D01*
X109413748Y-116854143D01*
X109234143Y-117033748D01*
X109220000Y-117019605D01*
X109205858Y-117033748D01*
X109026253Y-116854143D01*
X109040395Y-116840000D01*
X108176042Y-115975647D01*
X107924741Y-116055920D01*
X107814046Y-116361071D01*
X107723592Y-116142694D01*
X107377306Y-115796408D01*
X107376423Y-115796042D01*
X108355647Y-115796042D01*
X109220000Y-116660395D01*
X110084353Y-115796042D01*
X110004080Y-115544741D01*
X109448721Y-115343282D01*
X108858542Y-115369685D01*
X108435920Y-115544741D01*
X108355647Y-115796042D01*
X107376423Y-115796042D01*
X106924861Y-115609000D01*
X106435139Y-115609000D01*
X105982694Y-115796408D01*
X105636408Y-116142694D01*
X105449000Y-116595139D01*
X105449000Y-117084861D01*
X105557995Y-117348000D01*
X105262005Y-117348000D01*
X105371000Y-117084861D01*
X105371000Y-116595139D01*
X105183592Y-116142694D01*
X104837306Y-115796408D01*
X104648000Y-115717995D01*
X104648000Y-114378464D01*
X104790000Y-114378464D01*
X104938659Y-114348894D01*
X105064686Y-114264686D01*
X105148894Y-114138659D01*
X105178464Y-113990000D01*
X105178464Y-113290000D01*
X105148894Y-113141341D01*
X105064686Y-113015314D01*
X104938659Y-112931106D01*
X104790000Y-112901536D01*
X103490000Y-112901536D01*
X103341341Y-112931106D01*
X103215314Y-113015314D01*
X103131106Y-113141341D01*
X103101536Y-113290000D01*
X103101536Y-113990000D01*
X103131106Y-114138659D01*
X103215314Y-114264686D01*
X103341341Y-114348894D01*
X103490000Y-114378464D01*
X103632001Y-114378464D01*
X103632000Y-115687950D01*
X103632001Y-115687955D01*
X103632001Y-115717995D01*
X103442694Y-115796408D01*
X103096408Y-116142694D01*
X102909000Y-116595139D01*
X102909000Y-117084861D01*
X103017995Y-117348000D01*
X102722005Y-117348000D01*
X102831000Y-117084861D01*
X102831000Y-116595139D01*
X102643592Y-116142694D01*
X102297306Y-115796408D01*
X101844861Y-115609000D01*
X101355139Y-115609000D01*
X100902694Y-115796408D01*
X100556408Y-116142694D01*
X100369000Y-116595139D01*
X100369000Y-117084861D01*
X100477995Y-117348000D01*
X98412818Y-117348000D01*
X98855501Y-117164635D01*
X99384635Y-116635501D01*
X99671000Y-115944154D01*
X99671000Y-115195846D01*
X99384635Y-114504499D01*
X98855501Y-113975365D01*
X98164154Y-113689000D01*
X97415846Y-113689000D01*
X96724499Y-113975365D01*
X96195365Y-114504499D01*
X96012000Y-114947182D01*
X96012000Y-106460750D01*
X102705000Y-106460750D01*
X102705000Y-106901310D01*
X102801673Y-107134699D01*
X102980302Y-107313327D01*
X103213691Y-107410000D01*
X103854250Y-107410000D01*
X104013000Y-107251250D01*
X104013000Y-106302000D01*
X104267000Y-106302000D01*
X104267000Y-107251250D01*
X104425750Y-107410000D01*
X105066309Y-107410000D01*
X105299698Y-107313327D01*
X105478327Y-107134699D01*
X105575000Y-106901310D01*
X105575000Y-106460750D01*
X105416250Y-106302000D01*
X104267000Y-106302000D01*
X104013000Y-106302000D01*
X102863750Y-106302000D01*
X102705000Y-106460750D01*
X96012000Y-106460750D01*
X96012000Y-103825000D01*
X102273000Y-103825000D01*
X102273000Y-105425000D01*
X102282667Y-105473601D01*
X102310197Y-105514803D01*
X102351399Y-105542333D01*
X102400000Y-105552000D01*
X102705000Y-105552000D01*
X102705000Y-105889250D01*
X102863750Y-106048000D01*
X104013000Y-106048000D01*
X104013000Y-106028000D01*
X104267000Y-106028000D01*
X104267000Y-106048000D01*
X105416250Y-106048000D01*
X105575000Y-105889250D01*
X105575000Y-105552000D01*
X105875000Y-105552000D01*
X105923601Y-105542333D01*
X105964803Y-105514803D01*
X105992333Y-105473601D01*
X106002000Y-105425000D01*
X106002000Y-103800000D01*
X105992333Y-103751399D01*
X105964803Y-103710197D01*
X105889803Y-103635197D01*
X105848601Y-103607667D01*
X105800000Y-103598000D01*
X105323889Y-103598000D01*
X105328464Y-103575000D01*
X105328464Y-103432200D01*
X107103622Y-103432200D01*
X107492801Y-103821380D01*
X107492800Y-111062622D01*
X107252622Y-111302800D01*
X105161119Y-111302800D01*
X105148894Y-111241341D01*
X105064686Y-111115314D01*
X104938659Y-111031106D01*
X104790000Y-111001536D01*
X103490000Y-111001536D01*
X103341341Y-111031106D01*
X103215314Y-111115314D01*
X103131106Y-111241341D01*
X103101536Y-111390000D01*
X103101536Y-112090000D01*
X103131106Y-112238659D01*
X103215314Y-112364686D01*
X103341341Y-112448894D01*
X103490000Y-112478464D01*
X104790000Y-112478464D01*
X104938659Y-112448894D01*
X105064686Y-112364686D01*
X105148894Y-112238659D01*
X105153162Y-112217200D01*
X107396970Y-112217200D01*
X107442000Y-112226157D01*
X107487030Y-112217200D01*
X107620391Y-112190673D01*
X107771623Y-112089623D01*
X107797132Y-112051446D01*
X108241446Y-111607132D01*
X108279623Y-111581623D01*
X108380673Y-111430391D01*
X108407200Y-111297030D01*
X108407200Y-111297026D01*
X108416156Y-111252001D01*
X108407200Y-111206976D01*
X108407200Y-103677029D01*
X108416157Y-103631999D01*
X108380673Y-103453609D01*
X108305130Y-103340551D01*
X108279623Y-103302377D01*
X108241449Y-103276870D01*
X107648132Y-102683554D01*
X107622623Y-102645377D01*
X107471391Y-102544327D01*
X107338030Y-102517800D01*
X107293000Y-102508843D01*
X107247970Y-102517800D01*
X105328464Y-102517800D01*
X105328464Y-102375000D01*
X105298894Y-102226341D01*
X105214686Y-102100314D01*
X105088659Y-102016106D01*
X104940000Y-101986536D01*
X103340000Y-101986536D01*
X103191341Y-102016106D01*
X103065314Y-102100314D01*
X102981106Y-102226341D01*
X102951536Y-102375000D01*
X102951536Y-103575000D01*
X102956111Y-103598000D01*
X102500000Y-103598000D01*
X102451399Y-103607667D01*
X102410197Y-103635197D01*
X102310197Y-103735197D01*
X102282667Y-103776399D01*
X102273000Y-103825000D01*
X96012000Y-103825000D01*
X96012000Y-98412818D01*
X96195365Y-98855501D01*
X96724499Y-99384635D01*
X97415846Y-99671000D01*
X98164154Y-99671000D01*
X98855501Y-99384635D01*
X99384635Y-98855501D01*
X99671000Y-98164154D01*
X99671000Y-97415846D01*
X99384635Y-96724499D01*
X98855501Y-96195365D01*
X98412818Y-96012000D01*
X110637995Y-96012000D01*
X110529000Y-96275139D01*
X110529000Y-96275139D01*
G37*
X110529000Y-96275139D02*
X110529000Y-96764861D01*
X110716408Y-97217306D01*
X111062694Y-97563592D01*
X111515139Y-97751000D01*
X112004861Y-97751000D01*
X112457306Y-97563592D01*
X112803592Y-97217306D01*
X112991000Y-96764861D01*
X112991000Y-96275139D01*
X112882005Y-96012000D01*
X113177995Y-96012000D01*
X113069000Y-96275139D01*
X113069000Y-96764861D01*
X113256408Y-97217306D01*
X113602694Y-97563592D01*
X114055139Y-97751000D01*
X114544861Y-97751000D01*
X114997306Y-97563592D01*
X115343592Y-97217306D01*
X115531000Y-96764861D01*
X115531000Y-96275139D01*
X115422005Y-96012000D01*
X115717995Y-96012000D01*
X115609000Y-96275139D01*
X115609000Y-96764861D01*
X115796408Y-97217306D01*
X116142694Y-97563592D01*
X116595139Y-97751000D01*
X117084861Y-97751000D01*
X117537306Y-97563592D01*
X117883592Y-97217306D01*
X118071000Y-96764861D01*
X118071000Y-96275139D01*
X117962005Y-96012000D01*
X118257995Y-96012000D01*
X118149000Y-96275139D01*
X118149000Y-96764861D01*
X118336408Y-97217306D01*
X118682694Y-97563592D01*
X119135139Y-97751000D01*
X119624861Y-97751000D01*
X120077306Y-97563592D01*
X120423592Y-97217306D01*
X120611000Y-96764861D01*
X120611000Y-96275139D01*
X120502005Y-96012000D01*
X120797995Y-96012000D01*
X120689000Y-96275139D01*
X120689000Y-96764861D01*
X120876408Y-97217306D01*
X121222694Y-97563592D01*
X121675139Y-97751000D01*
X122164861Y-97751000D01*
X122617306Y-97563592D01*
X122963592Y-97217306D01*
X123151000Y-96764861D01*
X123151000Y-96275139D01*
X123042005Y-96012000D01*
X123337995Y-96012000D01*
X123229000Y-96275139D01*
X123229000Y-96764861D01*
X123416408Y-97217306D01*
X123762694Y-97563592D01*
X124215139Y-97751000D01*
X124704861Y-97751000D01*
X125157306Y-97563592D01*
X125503592Y-97217306D01*
X125691000Y-96764861D01*
X125691000Y-96275139D01*
X125582005Y-96012000D01*
X125877995Y-96012000D01*
X125769000Y-96275139D01*
X125769000Y-96764861D01*
X125956408Y-97217306D01*
X126302694Y-97563592D01*
X126755139Y-97751000D01*
X127244861Y-97751000D01*
X127697306Y-97563592D01*
X128043592Y-97217306D01*
X128231000Y-96764861D01*
X128231000Y-96275139D01*
X128122005Y-96012000D01*
X128417995Y-96012000D01*
X128309000Y-96275139D01*
X128309000Y-96764861D01*
X128496408Y-97217306D01*
X128842694Y-97563592D01*
X129295139Y-97751000D01*
X129784861Y-97751000D01*
X130237306Y-97563592D01*
X130583592Y-97217306D01*
X130771000Y-96764861D01*
X130771000Y-96275139D01*
X130662005Y-96012000D01*
X130957995Y-96012000D01*
X130849000Y-96275139D01*
X130849000Y-96764861D01*
X131036408Y-97217306D01*
X131382694Y-97563592D01*
X131578659Y-97644763D01*
X131407552Y-97815870D01*
X131369378Y-97841377D01*
X131343871Y-97879551D01*
X131343870Y-97879552D01*
X131268327Y-97992610D01*
X131232843Y-98171000D01*
X131241801Y-98216035D01*
X131241801Y-98298000D01*
X122555000Y-98298000D01*
X122506399Y-98307667D01*
X122465197Y-98335197D01*
X122437667Y-98376399D01*
X122428000Y-98425000D01*
X122428000Y-114858800D01*
X117266029Y-114858800D01*
X117220999Y-114849843D01*
X117042609Y-114885327D01*
X116891377Y-114986377D01*
X116865868Y-115024554D01*
X116548554Y-115341868D01*
X116510377Y-115367377D01*
X116425510Y-115494391D01*
X116409327Y-115518610D01*
X116373843Y-115697000D01*
X116374516Y-115700385D01*
X116142694Y-115796408D01*
X115796408Y-116142694D01*
X115609000Y-116595139D01*
X115609000Y-117084861D01*
X115717995Y-117348000D01*
X115422005Y-117348000D01*
X115531000Y-117084861D01*
X115531000Y-116595139D01*
X115343592Y-116142694D01*
X114997306Y-115796408D01*
X114544861Y-115609000D01*
X114055139Y-115609000D01*
X113602694Y-115796408D01*
X113256408Y-116142694D01*
X113069000Y-116595139D01*
X113069000Y-117084861D01*
X113177995Y-117348000D01*
X112882005Y-117348000D01*
X112991000Y-117084861D01*
X112991000Y-116595139D01*
X112803592Y-116142694D01*
X112457306Y-115796408D01*
X112004861Y-115609000D01*
X111515139Y-115609000D01*
X111062694Y-115796408D01*
X110716408Y-116142694D01*
X110633805Y-116342116D01*
X110515259Y-116055920D01*
X110263958Y-115975647D01*
X109399605Y-116840000D01*
X109413748Y-116854143D01*
X109234143Y-117033748D01*
X109220000Y-117019605D01*
X109205858Y-117033748D01*
X109026253Y-116854143D01*
X109040395Y-116840000D01*
X108176042Y-115975647D01*
X107924741Y-116055920D01*
X107814046Y-116361071D01*
X107723592Y-116142694D01*
X107377306Y-115796408D01*
X107376423Y-115796042D01*
X108355647Y-115796042D01*
X109220000Y-116660395D01*
X110084353Y-115796042D01*
X110004080Y-115544741D01*
X109448721Y-115343282D01*
X108858542Y-115369685D01*
X108435920Y-115544741D01*
X108355647Y-115796042D01*
X107376423Y-115796042D01*
X106924861Y-115609000D01*
X106435139Y-115609000D01*
X105982694Y-115796408D01*
X105636408Y-116142694D01*
X105449000Y-116595139D01*
X105449000Y-117084861D01*
X105557995Y-117348000D01*
X105262005Y-117348000D01*
X105371000Y-117084861D01*
X105371000Y-116595139D01*
X105183592Y-116142694D01*
X104837306Y-115796408D01*
X104648000Y-115717995D01*
X104648000Y-114378464D01*
X104790000Y-114378464D01*
X104938659Y-114348894D01*
X105064686Y-114264686D01*
X105148894Y-114138659D01*
X105178464Y-113990000D01*
X105178464Y-113290000D01*
X105148894Y-113141341D01*
X105064686Y-113015314D01*
X104938659Y-112931106D01*
X104790000Y-112901536D01*
X103490000Y-112901536D01*
X103341341Y-112931106D01*
X103215314Y-113015314D01*
X103131106Y-113141341D01*
X103101536Y-113290000D01*
X103101536Y-113990000D01*
X103131106Y-114138659D01*
X103215314Y-114264686D01*
X103341341Y-114348894D01*
X103490000Y-114378464D01*
X103632001Y-114378464D01*
X103632000Y-115687950D01*
X103632001Y-115687955D01*
X103632001Y-115717995D01*
X103442694Y-115796408D01*
X103096408Y-116142694D01*
X102909000Y-116595139D01*
X102909000Y-117084861D01*
X103017995Y-117348000D01*
X102722005Y-117348000D01*
X102831000Y-117084861D01*
X102831000Y-116595139D01*
X102643592Y-116142694D01*
X102297306Y-115796408D01*
X101844861Y-115609000D01*
X101355139Y-115609000D01*
X100902694Y-115796408D01*
X100556408Y-116142694D01*
X100369000Y-116595139D01*
X100369000Y-117084861D01*
X100477995Y-117348000D01*
X98412818Y-117348000D01*
X98855501Y-117164635D01*
X99384635Y-116635501D01*
X99671000Y-115944154D01*
X99671000Y-115195846D01*
X99384635Y-114504499D01*
X98855501Y-113975365D01*
X98164154Y-113689000D01*
X97415846Y-113689000D01*
X96724499Y-113975365D01*
X96195365Y-114504499D01*
X96012000Y-114947182D01*
X96012000Y-106460750D01*
X102705000Y-106460750D01*
X102705000Y-106901310D01*
X102801673Y-107134699D01*
X102980302Y-107313327D01*
X103213691Y-107410000D01*
X103854250Y-107410000D01*
X104013000Y-107251250D01*
X104013000Y-106302000D01*
X104267000Y-106302000D01*
X104267000Y-107251250D01*
X104425750Y-107410000D01*
X105066309Y-107410000D01*
X105299698Y-107313327D01*
X105478327Y-107134699D01*
X105575000Y-106901310D01*
X105575000Y-106460750D01*
X105416250Y-106302000D01*
X104267000Y-106302000D01*
X104013000Y-106302000D01*
X102863750Y-106302000D01*
X102705000Y-106460750D01*
X96012000Y-106460750D01*
X96012000Y-103825000D01*
X102273000Y-103825000D01*
X102273000Y-105425000D01*
X102282667Y-105473601D01*
X102310197Y-105514803D01*
X102351399Y-105542333D01*
X102400000Y-105552000D01*
X102705000Y-105552000D01*
X102705000Y-105889250D01*
X102863750Y-106048000D01*
X104013000Y-106048000D01*
X104013000Y-106028000D01*
X104267000Y-106028000D01*
X104267000Y-106048000D01*
X105416250Y-106048000D01*
X105575000Y-105889250D01*
X105575000Y-105552000D01*
X105875000Y-105552000D01*
X105923601Y-105542333D01*
X105964803Y-105514803D01*
X105992333Y-105473601D01*
X106002000Y-105425000D01*
X106002000Y-103800000D01*
X105992333Y-103751399D01*
X105964803Y-103710197D01*
X105889803Y-103635197D01*
X105848601Y-103607667D01*
X105800000Y-103598000D01*
X105323889Y-103598000D01*
X105328464Y-103575000D01*
X105328464Y-103432200D01*
X107103622Y-103432200D01*
X107492801Y-103821380D01*
X107492800Y-111062622D01*
X107252622Y-111302800D01*
X105161119Y-111302800D01*
X105148894Y-111241341D01*
X105064686Y-111115314D01*
X104938659Y-111031106D01*
X104790000Y-111001536D01*
X103490000Y-111001536D01*
X103341341Y-111031106D01*
X103215314Y-111115314D01*
X103131106Y-111241341D01*
X103101536Y-111390000D01*
X103101536Y-112090000D01*
X103131106Y-112238659D01*
X103215314Y-112364686D01*
X103341341Y-112448894D01*
X103490000Y-112478464D01*
X104790000Y-112478464D01*
X104938659Y-112448894D01*
X105064686Y-112364686D01*
X105148894Y-112238659D01*
X105153162Y-112217200D01*
X107396970Y-112217200D01*
X107442000Y-112226157D01*
X107487030Y-112217200D01*
X107620391Y-112190673D01*
X107771623Y-112089623D01*
X107797132Y-112051446D01*
X108241446Y-111607132D01*
X108279623Y-111581623D01*
X108380673Y-111430391D01*
X108407200Y-111297030D01*
X108407200Y-111297026D01*
X108416156Y-111252001D01*
X108407200Y-111206976D01*
X108407200Y-103677029D01*
X108416157Y-103631999D01*
X108380673Y-103453609D01*
X108305130Y-103340551D01*
X108279623Y-103302377D01*
X108241449Y-103276870D01*
X107648132Y-102683554D01*
X107622623Y-102645377D01*
X107471391Y-102544327D01*
X107338030Y-102517800D01*
X107293000Y-102508843D01*
X107247970Y-102517800D01*
X105328464Y-102517800D01*
X105328464Y-102375000D01*
X105298894Y-102226341D01*
X105214686Y-102100314D01*
X105088659Y-102016106D01*
X104940000Y-101986536D01*
X103340000Y-101986536D01*
X103191341Y-102016106D01*
X103065314Y-102100314D01*
X102981106Y-102226341D01*
X102951536Y-102375000D01*
X102951536Y-103575000D01*
X102956111Y-103598000D01*
X102500000Y-103598000D01*
X102451399Y-103607667D01*
X102410197Y-103635197D01*
X102310197Y-103735197D01*
X102282667Y-103776399D01*
X102273000Y-103825000D01*
X96012000Y-103825000D01*
X96012000Y-98412818D01*
X96195365Y-98855501D01*
X96724499Y-99384635D01*
X97415846Y-99671000D01*
X98164154Y-99671000D01*
X98855501Y-99384635D01*
X99384635Y-98855501D01*
X99671000Y-98164154D01*
X99671000Y-97415846D01*
X99384635Y-96724499D01*
X98855501Y-96195365D01*
X98412818Y-96012000D01*
X110637995Y-96012000D01*
X110529000Y-96275139D01*
G36*
X133389000Y-96275139D02*
X133389000Y-96764861D01*
X133576408Y-97217306D01*
X133922694Y-97563592D01*
X134375139Y-97751000D01*
X134864861Y-97751000D01*
X135317306Y-97563592D01*
X135663592Y-97217306D01*
X135851000Y-96764861D01*
X135851000Y-96275139D01*
X135742005Y-96012000D01*
X136037995Y-96012000D01*
X135929000Y-96275139D01*
X135929000Y-96764861D01*
X136116408Y-97217306D01*
X136462694Y-97563592D01*
X136915139Y-97751000D01*
X137404861Y-97751000D01*
X137857306Y-97563592D01*
X138203592Y-97217306D01*
X138391000Y-96764861D01*
X138391000Y-96275139D01*
X138282005Y-96012000D01*
X138577995Y-96012000D01*
X138469000Y-96275139D01*
X138469000Y-96764861D01*
X138656408Y-97217306D01*
X139002694Y-97563592D01*
X139455139Y-97751000D01*
X139944861Y-97751000D01*
X140397306Y-97563592D01*
X140743592Y-97217306D01*
X140931000Y-96764861D01*
X140931000Y-96275139D01*
X140822005Y-96012000D01*
X145047113Y-96012000D01*
X145252438Y-96188919D01*
X145288000Y-96243785D01*
X145288000Y-98298000D01*
X145064961Y-98298000D01*
X145141000Y-98114426D01*
X145141000Y-97465574D01*
X144892695Y-96866113D01*
X144433887Y-96407305D01*
X143834426Y-96159000D01*
X143185574Y-96159000D01*
X142586113Y-96407305D01*
X142127305Y-96866113D01*
X141879000Y-97465574D01*
X141879000Y-98114426D01*
X141955039Y-98298000D01*
X132218578Y-98298000D01*
X132371446Y-98145132D01*
X132409623Y-98119623D01*
X132510673Y-97968391D01*
X132537200Y-97835030D01*
X132537200Y-97835029D01*
X132546157Y-97790001D01*
X132537200Y-97744971D01*
X132537200Y-97663047D01*
X132777306Y-97563592D01*
X133123592Y-97217306D01*
X133311000Y-96764861D01*
X133311000Y-96275139D01*
X133202005Y-96012000D01*
X133497995Y-96012000D01*
X133389000Y-96275139D01*
X133389000Y-96275139D01*
G37*
X133389000Y-96275139D02*
X133389000Y-96764861D01*
X133576408Y-97217306D01*
X133922694Y-97563592D01*
X134375139Y-97751000D01*
X134864861Y-97751000D01*
X135317306Y-97563592D01*
X135663592Y-97217306D01*
X135851000Y-96764861D01*
X135851000Y-96275139D01*
X135742005Y-96012000D01*
X136037995Y-96012000D01*
X135929000Y-96275139D01*
X135929000Y-96764861D01*
X136116408Y-97217306D01*
X136462694Y-97563592D01*
X136915139Y-97751000D01*
X137404861Y-97751000D01*
X137857306Y-97563592D01*
X138203592Y-97217306D01*
X138391000Y-96764861D01*
X138391000Y-96275139D01*
X138282005Y-96012000D01*
X138577995Y-96012000D01*
X138469000Y-96275139D01*
X138469000Y-96764861D01*
X138656408Y-97217306D01*
X139002694Y-97563592D01*
X139455139Y-97751000D01*
X139944861Y-97751000D01*
X140397306Y-97563592D01*
X140743592Y-97217306D01*
X140931000Y-96764861D01*
X140931000Y-96275139D01*
X140822005Y-96012000D01*
X145047113Y-96012000D01*
X145252438Y-96188919D01*
X145288000Y-96243785D01*
X145288000Y-98298000D01*
X145064961Y-98298000D01*
X145141000Y-98114426D01*
X145141000Y-97465574D01*
X144892695Y-96866113D01*
X144433887Y-96407305D01*
X143834426Y-96159000D01*
X143185574Y-96159000D01*
X142586113Y-96407305D01*
X142127305Y-96866113D01*
X141879000Y-97465574D01*
X141879000Y-98114426D01*
X141955039Y-98298000D01*
X132218578Y-98298000D01*
X132371446Y-98145132D01*
X132409623Y-98119623D01*
X132510673Y-97968391D01*
X132537200Y-97835030D01*
X132537200Y-97835029D01*
X132546157Y-97790001D01*
X132537200Y-97744971D01*
X132537200Y-97663047D01*
X132777306Y-97563592D01*
X133123592Y-97217306D01*
X133311000Y-96764861D01*
X133311000Y-96275139D01*
X133202005Y-96012000D01*
X133497995Y-96012000D01*
X133389000Y-96275139D01*
M02*
