G04 #@! TF.GenerationSoftware,KiCad,Pcbnew,(5.0.0-rc2-dev-444-g2974a2c10)*
G04 #@! TF.CreationDate,2019-07-21T13:12:54-07:00*
G04 #@! TF.ProjectId,Waveform_Generator,57617665666F726D5F47656E65726174,v01*
G04 #@! TF.SameCoordinates,Original*
G04 #@! TF.FileFunction,Legend,Bot*
G04 #@! TF.FilePolarity,Positive*
%FSLAX46Y46*%
G04 Gerber Fmt 4.6, Leading zero omitted, Abs format (unit mm)*
G04 Created by KiCad (PCBNEW (5.0.0-rc2-dev-444-g2974a2c10)) date 07/21/19 13:12:54*
%MOMM*%
%LPD*%
G01*
G04 APERTURE LIST*
%ADD10C,0.100000*%
%ADD11C,0.010000*%
%ADD12C,0.120000*%
G04 APERTURE END LIST*
D10*
X108932142Y-101179285D02*
X108960714Y-101207857D01*
X109046428Y-101236428D01*
X109103571Y-101236428D01*
X109189285Y-101207857D01*
X109246428Y-101150714D01*
X109275000Y-101093571D01*
X109303571Y-100979285D01*
X109303571Y-100893571D01*
X109275000Y-100779285D01*
X109246428Y-100722142D01*
X109189285Y-100665000D01*
X109103571Y-100636428D01*
X109046428Y-100636428D01*
X108960714Y-100665000D01*
X108932142Y-100693571D01*
X108446428Y-101207857D02*
X108503571Y-101236428D01*
X108617857Y-101236428D01*
X108675000Y-101207857D01*
X108703571Y-101150714D01*
X108703571Y-100922142D01*
X108675000Y-100865000D01*
X108617857Y-100836428D01*
X108503571Y-100836428D01*
X108446428Y-100865000D01*
X108417857Y-100922142D01*
X108417857Y-100979285D01*
X108703571Y-101036428D01*
X107903571Y-101236428D02*
X107903571Y-100636428D01*
X107903571Y-101207857D02*
X107960714Y-101236428D01*
X108075000Y-101236428D01*
X108132142Y-101207857D01*
X108160714Y-101179285D01*
X108189285Y-101122142D01*
X108189285Y-100950714D01*
X108160714Y-100893571D01*
X108132142Y-100865000D01*
X108075000Y-100836428D01*
X107960714Y-100836428D01*
X107903571Y-100865000D01*
X107360714Y-101236428D02*
X107360714Y-100922142D01*
X107389285Y-100865000D01*
X107446428Y-100836428D01*
X107560714Y-100836428D01*
X107617857Y-100865000D01*
X107360714Y-101207857D02*
X107417857Y-101236428D01*
X107560714Y-101236428D01*
X107617857Y-101207857D01*
X107646428Y-101150714D01*
X107646428Y-101093571D01*
X107617857Y-101036428D01*
X107560714Y-101007857D01*
X107417857Y-101007857D01*
X107360714Y-100979285D01*
X107075000Y-101236428D02*
X107075000Y-100836428D01*
X107075000Y-100950714D02*
X107046428Y-100893571D01*
X107017857Y-100865000D01*
X106960714Y-100836428D01*
X106903571Y-100836428D01*
X105932142Y-100665000D02*
X105989285Y-100636428D01*
X106075000Y-100636428D01*
X106160714Y-100665000D01*
X106217857Y-100722142D01*
X106246428Y-100779285D01*
X106275000Y-100893571D01*
X106275000Y-100979285D01*
X106246428Y-101093571D01*
X106217857Y-101150714D01*
X106160714Y-101207857D01*
X106075000Y-101236428D01*
X106017857Y-101236428D01*
X105932142Y-101207857D01*
X105903571Y-101179285D01*
X105903571Y-100979285D01*
X106017857Y-100979285D01*
X105646428Y-101236428D02*
X105646428Y-100836428D01*
X105646428Y-100950714D02*
X105617857Y-100893571D01*
X105589285Y-100865000D01*
X105532142Y-100836428D01*
X105475000Y-100836428D01*
X105189285Y-101236428D02*
X105246428Y-101207857D01*
X105275000Y-101179285D01*
X105303571Y-101122142D01*
X105303571Y-100950714D01*
X105275000Y-100893571D01*
X105246428Y-100865000D01*
X105189285Y-100836428D01*
X105103571Y-100836428D01*
X105046428Y-100865000D01*
X105017857Y-100893571D01*
X104989285Y-100950714D01*
X104989285Y-101122142D01*
X105017857Y-101179285D01*
X105046428Y-101207857D01*
X105103571Y-101236428D01*
X105189285Y-101236428D01*
X104789285Y-100836428D02*
X104646428Y-101236428D01*
X104503571Y-100836428D01*
X104046428Y-101207857D02*
X104103571Y-101236428D01*
X104217857Y-101236428D01*
X104275000Y-101207857D01*
X104303571Y-101150714D01*
X104303571Y-100922142D01*
X104275000Y-100865000D01*
X104217857Y-100836428D01*
X104103571Y-100836428D01*
X104046428Y-100865000D01*
X104017857Y-100922142D01*
X104017857Y-100979285D01*
X104303571Y-101036428D01*
X103332142Y-101207857D02*
X103246428Y-101236428D01*
X103103571Y-101236428D01*
X103046428Y-101207857D01*
X103017857Y-101179285D01*
X102989285Y-101122142D01*
X102989285Y-101065000D01*
X103017857Y-101007857D01*
X103046428Y-100979285D01*
X103103571Y-100950714D01*
X103217857Y-100922142D01*
X103275000Y-100893571D01*
X103303571Y-100865000D01*
X103332142Y-100807857D01*
X103332142Y-100750714D01*
X103303571Y-100693571D01*
X103275000Y-100665000D01*
X103217857Y-100636428D01*
X103075000Y-100636428D01*
X102989285Y-100665000D01*
X102817857Y-100836428D02*
X102589285Y-100836428D01*
X102732142Y-100636428D02*
X102732142Y-101150714D01*
X102703571Y-101207857D01*
X102646428Y-101236428D01*
X102589285Y-101236428D01*
X102132142Y-100836428D02*
X102132142Y-101236428D01*
X102389285Y-100836428D02*
X102389285Y-101150714D01*
X102360714Y-101207857D01*
X102303571Y-101236428D01*
X102217857Y-101236428D01*
X102160714Y-101207857D01*
X102132142Y-101179285D01*
X101589285Y-101236428D02*
X101589285Y-100636428D01*
X101589285Y-101207857D02*
X101646428Y-101236428D01*
X101760714Y-101236428D01*
X101817857Y-101207857D01*
X101846428Y-101179285D01*
X101875000Y-101122142D01*
X101875000Y-100950714D01*
X101846428Y-100893571D01*
X101817857Y-100865000D01*
X101760714Y-100836428D01*
X101646428Y-100836428D01*
X101589285Y-100865000D01*
X101303571Y-101236428D02*
X101303571Y-100836428D01*
X101303571Y-100636428D02*
X101332142Y-100665000D01*
X101303571Y-100693571D01*
X101275000Y-100665000D01*
X101303571Y-100636428D01*
X101303571Y-100693571D01*
X100932142Y-101236428D02*
X100989285Y-101207857D01*
X101017857Y-101179285D01*
X101046428Y-101122142D01*
X101046428Y-100950714D01*
X101017857Y-100893571D01*
X100989285Y-100865000D01*
X100932142Y-100836428D01*
X100846428Y-100836428D01*
X100789285Y-100865000D01*
X100760714Y-100893571D01*
X100732142Y-100950714D01*
X100732142Y-101122142D01*
X100760714Y-101179285D01*
X100789285Y-101207857D01*
X100846428Y-101236428D01*
X100932142Y-101236428D01*
X100503571Y-101207857D02*
X100446428Y-101236428D01*
X100332142Y-101236428D01*
X100275000Y-101207857D01*
X100246428Y-101150714D01*
X100246428Y-101122142D01*
X100275000Y-101065000D01*
X100332142Y-101036428D01*
X100417857Y-101036428D01*
X100475000Y-101007857D01*
X100503571Y-100950714D01*
X100503571Y-100922142D01*
X100475000Y-100865000D01*
X100417857Y-100836428D01*
X100332142Y-100836428D01*
X100275000Y-100865000D01*
X121124761Y-106543333D02*
X120886666Y-106543333D01*
X121172380Y-106686190D02*
X121005714Y-106186190D01*
X120839047Y-106686190D01*
X120672380Y-106686190D02*
X120672380Y-106186190D01*
X120553333Y-106186190D01*
X120481904Y-106210000D01*
X120434285Y-106257619D01*
X120410476Y-106305238D01*
X120386666Y-106400476D01*
X120386666Y-106471904D01*
X120410476Y-106567142D01*
X120434285Y-106614761D01*
X120481904Y-106662380D01*
X120553333Y-106686190D01*
X120672380Y-106686190D01*
X120148571Y-106686190D02*
X120053333Y-106686190D01*
X120005714Y-106662380D01*
X119981904Y-106638571D01*
X119934285Y-106567142D01*
X119910476Y-106471904D01*
X119910476Y-106281428D01*
X119934285Y-106233809D01*
X119958095Y-106210000D01*
X120005714Y-106186190D01*
X120100952Y-106186190D01*
X120148571Y-106210000D01*
X120172380Y-106233809D01*
X120196190Y-106281428D01*
X120196190Y-106400476D01*
X120172380Y-106448095D01*
X120148571Y-106471904D01*
X120100952Y-106495714D01*
X120005714Y-106495714D01*
X119958095Y-106471904D01*
X119934285Y-106448095D01*
X119910476Y-106400476D01*
X119624761Y-106400476D02*
X119672380Y-106376666D01*
X119696190Y-106352857D01*
X119720000Y-106305238D01*
X119720000Y-106281428D01*
X119696190Y-106233809D01*
X119672380Y-106210000D01*
X119624761Y-106186190D01*
X119529523Y-106186190D01*
X119481904Y-106210000D01*
X119458095Y-106233809D01*
X119434285Y-106281428D01*
X119434285Y-106305238D01*
X119458095Y-106352857D01*
X119481904Y-106376666D01*
X119529523Y-106400476D01*
X119624761Y-106400476D01*
X119672380Y-106424285D01*
X119696190Y-106448095D01*
X119720000Y-106495714D01*
X119720000Y-106590952D01*
X119696190Y-106638571D01*
X119672380Y-106662380D01*
X119624761Y-106686190D01*
X119529523Y-106686190D01*
X119481904Y-106662380D01*
X119458095Y-106638571D01*
X119434285Y-106590952D01*
X119434285Y-106495714D01*
X119458095Y-106448095D01*
X119481904Y-106424285D01*
X119529523Y-106400476D01*
X119267619Y-106186190D02*
X118958095Y-106186190D01*
X119124761Y-106376666D01*
X119053333Y-106376666D01*
X119005714Y-106400476D01*
X118981904Y-106424285D01*
X118958095Y-106471904D01*
X118958095Y-106590952D01*
X118981904Y-106638571D01*
X119005714Y-106662380D01*
X119053333Y-106686190D01*
X119196190Y-106686190D01*
X119243809Y-106662380D01*
X119267619Y-106638571D01*
X118791428Y-106186190D02*
X118481904Y-106186190D01*
X118648571Y-106376666D01*
X118577142Y-106376666D01*
X118529523Y-106400476D01*
X118505714Y-106424285D01*
X118481904Y-106471904D01*
X118481904Y-106590952D01*
X118505714Y-106638571D01*
X118529523Y-106662380D01*
X118577142Y-106686190D01*
X118720000Y-106686190D01*
X118767619Y-106662380D01*
X118791428Y-106638571D01*
X117886666Y-106686190D02*
X117886666Y-106186190D01*
X117696190Y-106186190D01*
X117648571Y-106210000D01*
X117624761Y-106233809D01*
X117600952Y-106281428D01*
X117600952Y-106352857D01*
X117624761Y-106400476D01*
X117648571Y-106424285D01*
X117696190Y-106448095D01*
X117886666Y-106448095D01*
X117386666Y-106686190D02*
X117386666Y-106352857D01*
X117386666Y-106448095D02*
X117362857Y-106400476D01*
X117339047Y-106376666D01*
X117291428Y-106352857D01*
X117243809Y-106352857D01*
X116886666Y-106662380D02*
X116934285Y-106686190D01*
X117029523Y-106686190D01*
X117077142Y-106662380D01*
X117100952Y-106614761D01*
X117100952Y-106424285D01*
X117077142Y-106376666D01*
X117029523Y-106352857D01*
X116934285Y-106352857D01*
X116886666Y-106376666D01*
X116862857Y-106424285D01*
X116862857Y-106471904D01*
X117100952Y-106519523D01*
X116434285Y-106662380D02*
X116481904Y-106686190D01*
X116577142Y-106686190D01*
X116624761Y-106662380D01*
X116648571Y-106638571D01*
X116672380Y-106590952D01*
X116672380Y-106448095D01*
X116648571Y-106400476D01*
X116624761Y-106376666D01*
X116577142Y-106352857D01*
X116481904Y-106352857D01*
X116434285Y-106376666D01*
X116220000Y-106686190D02*
X116220000Y-106352857D01*
X116220000Y-106186190D02*
X116243809Y-106210000D01*
X116220000Y-106233809D01*
X116196190Y-106210000D01*
X116220000Y-106186190D01*
X116220000Y-106233809D01*
X116005714Y-106662380D02*
X115958095Y-106686190D01*
X115862857Y-106686190D01*
X115815238Y-106662380D01*
X115791428Y-106614761D01*
X115791428Y-106590952D01*
X115815238Y-106543333D01*
X115862857Y-106519523D01*
X115934285Y-106519523D01*
X115981904Y-106495714D01*
X116005714Y-106448095D01*
X116005714Y-106424285D01*
X115981904Y-106376666D01*
X115934285Y-106352857D01*
X115862857Y-106352857D01*
X115815238Y-106376666D01*
X115577142Y-106686190D02*
X115577142Y-106352857D01*
X115577142Y-106186190D02*
X115600952Y-106210000D01*
X115577142Y-106233809D01*
X115553333Y-106210000D01*
X115577142Y-106186190D01*
X115577142Y-106233809D01*
X115267619Y-106686190D02*
X115315238Y-106662380D01*
X115339047Y-106638571D01*
X115362857Y-106590952D01*
X115362857Y-106448095D01*
X115339047Y-106400476D01*
X115315238Y-106376666D01*
X115267619Y-106352857D01*
X115196190Y-106352857D01*
X115148571Y-106376666D01*
X115124761Y-106400476D01*
X115100952Y-106448095D01*
X115100952Y-106590952D01*
X115124761Y-106638571D01*
X115148571Y-106662380D01*
X115196190Y-106686190D01*
X115267619Y-106686190D01*
X114886666Y-106352857D02*
X114886666Y-106686190D01*
X114886666Y-106400476D02*
X114862857Y-106376666D01*
X114815238Y-106352857D01*
X114743809Y-106352857D01*
X114696190Y-106376666D01*
X114672380Y-106424285D01*
X114672380Y-106686190D01*
X114100952Y-106186190D02*
X113981904Y-106686190D01*
X113886666Y-106329047D01*
X113791428Y-106686190D01*
X113672380Y-106186190D01*
X113267619Y-106686190D02*
X113267619Y-106424285D01*
X113291428Y-106376666D01*
X113339047Y-106352857D01*
X113434285Y-106352857D01*
X113481904Y-106376666D01*
X113267619Y-106662380D02*
X113315238Y-106686190D01*
X113434285Y-106686190D01*
X113481904Y-106662380D01*
X113505714Y-106614761D01*
X113505714Y-106567142D01*
X113481904Y-106519523D01*
X113434285Y-106495714D01*
X113315238Y-106495714D01*
X113267619Y-106471904D01*
X113077142Y-106352857D02*
X112958095Y-106686190D01*
X112839047Y-106352857D01*
X112458095Y-106662380D02*
X112505714Y-106686190D01*
X112600952Y-106686190D01*
X112648571Y-106662380D01*
X112672380Y-106614761D01*
X112672380Y-106424285D01*
X112648571Y-106376666D01*
X112600952Y-106352857D01*
X112505714Y-106352857D01*
X112458095Y-106376666D01*
X112434285Y-106424285D01*
X112434285Y-106471904D01*
X112672380Y-106519523D01*
X112291428Y-106352857D02*
X112100952Y-106352857D01*
X112220000Y-106686190D02*
X112220000Y-106257619D01*
X112196190Y-106210000D01*
X112148571Y-106186190D01*
X112100952Y-106186190D01*
X111862857Y-106686190D02*
X111910476Y-106662380D01*
X111934285Y-106638571D01*
X111958095Y-106590952D01*
X111958095Y-106448095D01*
X111934285Y-106400476D01*
X111910476Y-106376666D01*
X111862857Y-106352857D01*
X111791428Y-106352857D01*
X111743809Y-106376666D01*
X111720000Y-106400476D01*
X111696190Y-106448095D01*
X111696190Y-106590952D01*
X111720000Y-106638571D01*
X111743809Y-106662380D01*
X111791428Y-106686190D01*
X111862857Y-106686190D01*
X111481904Y-106686190D02*
X111481904Y-106352857D01*
X111481904Y-106448095D02*
X111458095Y-106400476D01*
X111434285Y-106376666D01*
X111386666Y-106352857D01*
X111339047Y-106352857D01*
X111172380Y-106686190D02*
X111172380Y-106352857D01*
X111172380Y-106400476D02*
X111148571Y-106376666D01*
X111100952Y-106352857D01*
X111029523Y-106352857D01*
X110981904Y-106376666D01*
X110958095Y-106424285D01*
X110958095Y-106686190D01*
X110958095Y-106424285D02*
X110934285Y-106376666D01*
X110886666Y-106352857D01*
X110815238Y-106352857D01*
X110767619Y-106376666D01*
X110743809Y-106424285D01*
X110743809Y-106686190D01*
X109862857Y-106210000D02*
X109910476Y-106186190D01*
X109981904Y-106186190D01*
X110053333Y-106210000D01*
X110100952Y-106257619D01*
X110124761Y-106305238D01*
X110148571Y-106400476D01*
X110148571Y-106471904D01*
X110124761Y-106567142D01*
X110100952Y-106614761D01*
X110053333Y-106662380D01*
X109981904Y-106686190D01*
X109934285Y-106686190D01*
X109862857Y-106662380D01*
X109839047Y-106638571D01*
X109839047Y-106471904D01*
X109934285Y-106471904D01*
X109434285Y-106662380D02*
X109481904Y-106686190D01*
X109577142Y-106686190D01*
X109624761Y-106662380D01*
X109648571Y-106614761D01*
X109648571Y-106424285D01*
X109624761Y-106376666D01*
X109577142Y-106352857D01*
X109481904Y-106352857D01*
X109434285Y-106376666D01*
X109410476Y-106424285D01*
X109410476Y-106471904D01*
X109648571Y-106519523D01*
X109196190Y-106352857D02*
X109196190Y-106686190D01*
X109196190Y-106400476D02*
X109172380Y-106376666D01*
X109124761Y-106352857D01*
X109053333Y-106352857D01*
X109005714Y-106376666D01*
X108981904Y-106424285D01*
X108981904Y-106686190D01*
X108553333Y-106662380D02*
X108600952Y-106686190D01*
X108696190Y-106686190D01*
X108743809Y-106662380D01*
X108767619Y-106614761D01*
X108767619Y-106424285D01*
X108743809Y-106376666D01*
X108696190Y-106352857D01*
X108600952Y-106352857D01*
X108553333Y-106376666D01*
X108529523Y-106424285D01*
X108529523Y-106471904D01*
X108767619Y-106519523D01*
X108315238Y-106686190D02*
X108315238Y-106352857D01*
X108315238Y-106448095D02*
X108291428Y-106400476D01*
X108267619Y-106376666D01*
X108220000Y-106352857D01*
X108172380Y-106352857D01*
X107791428Y-106686190D02*
X107791428Y-106424285D01*
X107815238Y-106376666D01*
X107862857Y-106352857D01*
X107958095Y-106352857D01*
X108005714Y-106376666D01*
X107791428Y-106662380D02*
X107839047Y-106686190D01*
X107958095Y-106686190D01*
X108005714Y-106662380D01*
X108029523Y-106614761D01*
X108029523Y-106567142D01*
X108005714Y-106519523D01*
X107958095Y-106495714D01*
X107839047Y-106495714D01*
X107791428Y-106471904D01*
X107624761Y-106352857D02*
X107434285Y-106352857D01*
X107553333Y-106186190D02*
X107553333Y-106614761D01*
X107529523Y-106662380D01*
X107481904Y-106686190D01*
X107434285Y-106686190D01*
X107196190Y-106686190D02*
X107243809Y-106662380D01*
X107267619Y-106638571D01*
X107291428Y-106590952D01*
X107291428Y-106448095D01*
X107267619Y-106400476D01*
X107243809Y-106376666D01*
X107196190Y-106352857D01*
X107124761Y-106352857D01*
X107077142Y-106376666D01*
X107053333Y-106400476D01*
X107029523Y-106448095D01*
X107029523Y-106590952D01*
X107053333Y-106638571D01*
X107077142Y-106662380D01*
X107124761Y-106686190D01*
X107196190Y-106686190D01*
X106815238Y-106686190D02*
X106815238Y-106352857D01*
X106815238Y-106448095D02*
X106791428Y-106400476D01*
X106767619Y-106376666D01*
X106720000Y-106352857D01*
X106672380Y-106352857D01*
X120339047Y-107345714D02*
X119958095Y-107345714D01*
X120148571Y-107536190D02*
X120148571Y-107155238D01*
X119172380Y-107274285D02*
X119339047Y-107274285D01*
X119339047Y-107536190D02*
X119339047Y-107036190D01*
X119100952Y-107036190D01*
X118720000Y-107512380D02*
X118767619Y-107536190D01*
X118862857Y-107536190D01*
X118910476Y-107512380D01*
X118934285Y-107464761D01*
X118934285Y-107274285D01*
X118910476Y-107226666D01*
X118862857Y-107202857D01*
X118767619Y-107202857D01*
X118720000Y-107226666D01*
X118696190Y-107274285D01*
X118696190Y-107321904D01*
X118934285Y-107369523D01*
X118267619Y-107536190D02*
X118267619Y-107274285D01*
X118291428Y-107226666D01*
X118339047Y-107202857D01*
X118434285Y-107202857D01*
X118481904Y-107226666D01*
X118267619Y-107512380D02*
X118315238Y-107536190D01*
X118434285Y-107536190D01*
X118481904Y-107512380D01*
X118505714Y-107464761D01*
X118505714Y-107417142D01*
X118481904Y-107369523D01*
X118434285Y-107345714D01*
X118315238Y-107345714D01*
X118267619Y-107321904D01*
X118100952Y-107202857D02*
X117910476Y-107202857D01*
X118029523Y-107036190D02*
X118029523Y-107464761D01*
X118005714Y-107512380D01*
X117958095Y-107536190D01*
X117910476Y-107536190D01*
X117743809Y-107536190D02*
X117743809Y-107036190D01*
X117529523Y-107536190D02*
X117529523Y-107274285D01*
X117553333Y-107226666D01*
X117600952Y-107202857D01*
X117672380Y-107202857D01*
X117720000Y-107226666D01*
X117743809Y-107250476D01*
X117100952Y-107512380D02*
X117148571Y-107536190D01*
X117243809Y-107536190D01*
X117291428Y-107512380D01*
X117315238Y-107464761D01*
X117315238Y-107274285D01*
X117291428Y-107226666D01*
X117243809Y-107202857D01*
X117148571Y-107202857D01*
X117100952Y-107226666D01*
X117077142Y-107274285D01*
X117077142Y-107321904D01*
X117315238Y-107369523D01*
X116862857Y-107536190D02*
X116862857Y-107202857D01*
X116862857Y-107298095D02*
X116839047Y-107250476D01*
X116815238Y-107226666D01*
X116767619Y-107202857D01*
X116720000Y-107202857D01*
X116600952Y-107036190D02*
X116481904Y-107536190D01*
X116386666Y-107179047D01*
X116291428Y-107536190D01*
X116172380Y-107036190D01*
X115981904Y-107536190D02*
X115981904Y-107202857D01*
X115981904Y-107036190D02*
X116005714Y-107060000D01*
X115981904Y-107083809D01*
X115958095Y-107060000D01*
X115981904Y-107036190D01*
X115981904Y-107083809D01*
X115743809Y-107202857D02*
X115743809Y-107536190D01*
X115743809Y-107250476D02*
X115720000Y-107226666D01*
X115672380Y-107202857D01*
X115600952Y-107202857D01*
X115553333Y-107226666D01*
X115529523Y-107274285D01*
X115529523Y-107536190D01*
X115077142Y-107202857D02*
X115077142Y-107607619D01*
X115100952Y-107655238D01*
X115124761Y-107679047D01*
X115172380Y-107702857D01*
X115243809Y-107702857D01*
X115291428Y-107679047D01*
X115077142Y-107512380D02*
X115124761Y-107536190D01*
X115220000Y-107536190D01*
X115267619Y-107512380D01*
X115291428Y-107488571D01*
X115315238Y-107440952D01*
X115315238Y-107298095D01*
X115291428Y-107250476D01*
X115267619Y-107226666D01*
X115220000Y-107202857D01*
X115124761Y-107202857D01*
X115077142Y-107226666D01*
X114815238Y-107512380D02*
X114815238Y-107536190D01*
X114839047Y-107583809D01*
X114862857Y-107607619D01*
X114267619Y-107036190D02*
X113958095Y-107036190D01*
X114124761Y-107226666D01*
X114053333Y-107226666D01*
X114005714Y-107250476D01*
X113981904Y-107274285D01*
X113958095Y-107321904D01*
X113958095Y-107440952D01*
X113981904Y-107488571D01*
X114005714Y-107512380D01*
X114053333Y-107536190D01*
X114196190Y-107536190D01*
X114243809Y-107512380D01*
X114267619Y-107488571D01*
X113743809Y-107488571D02*
X113720000Y-107512380D01*
X113743809Y-107536190D01*
X113767619Y-107512380D01*
X113743809Y-107488571D01*
X113743809Y-107536190D01*
X113553333Y-107036190D02*
X113243809Y-107036190D01*
X113410476Y-107226666D01*
X113339047Y-107226666D01*
X113291428Y-107250476D01*
X113267619Y-107274285D01*
X113243809Y-107321904D01*
X113243809Y-107440952D01*
X113267619Y-107488571D01*
X113291428Y-107512380D01*
X113339047Y-107536190D01*
X113481904Y-107536190D01*
X113529523Y-107512380D01*
X113553333Y-107488571D01*
X113077142Y-107202857D02*
X112958095Y-107536190D01*
X112839047Y-107202857D01*
X112267619Y-107202857D02*
X112267619Y-107702857D01*
X112267619Y-107226666D02*
X112220000Y-107202857D01*
X112124761Y-107202857D01*
X112077142Y-107226666D01*
X112053333Y-107250476D01*
X112029523Y-107298095D01*
X112029523Y-107440952D01*
X112053333Y-107488571D01*
X112077142Y-107512380D01*
X112124761Y-107536190D01*
X112220000Y-107536190D01*
X112267619Y-107512380D01*
X111743809Y-107536190D02*
X111791428Y-107512380D01*
X111815238Y-107488571D01*
X111839047Y-107440952D01*
X111839047Y-107298095D01*
X111815238Y-107250476D01*
X111791428Y-107226666D01*
X111743809Y-107202857D01*
X111672380Y-107202857D01*
X111624761Y-107226666D01*
X111600952Y-107250476D01*
X111577142Y-107298095D01*
X111577142Y-107440952D01*
X111600952Y-107488571D01*
X111624761Y-107512380D01*
X111672380Y-107536190D01*
X111743809Y-107536190D01*
X111410476Y-107202857D02*
X111315238Y-107536190D01*
X111220000Y-107298095D01*
X111124761Y-107536190D01*
X111029523Y-107202857D01*
X110648571Y-107512380D02*
X110696190Y-107536190D01*
X110791428Y-107536190D01*
X110839047Y-107512380D01*
X110862857Y-107464761D01*
X110862857Y-107274285D01*
X110839047Y-107226666D01*
X110791428Y-107202857D01*
X110696190Y-107202857D01*
X110648571Y-107226666D01*
X110624761Y-107274285D01*
X110624761Y-107321904D01*
X110862857Y-107369523D01*
X110410476Y-107536190D02*
X110410476Y-107202857D01*
X110410476Y-107298095D02*
X110386666Y-107250476D01*
X110362857Y-107226666D01*
X110315238Y-107202857D01*
X110267619Y-107202857D01*
X109910476Y-107512380D02*
X109958095Y-107536190D01*
X110053333Y-107536190D01*
X110100952Y-107512380D01*
X110124761Y-107464761D01*
X110124761Y-107274285D01*
X110100952Y-107226666D01*
X110053333Y-107202857D01*
X109958095Y-107202857D01*
X109910476Y-107226666D01*
X109886666Y-107274285D01*
X109886666Y-107321904D01*
X110124761Y-107369523D01*
X109458095Y-107536190D02*
X109458095Y-107036190D01*
X109458095Y-107512380D02*
X109505714Y-107536190D01*
X109600952Y-107536190D01*
X109648571Y-107512380D01*
X109672380Y-107488571D01*
X109696190Y-107440952D01*
X109696190Y-107298095D01*
X109672380Y-107250476D01*
X109648571Y-107226666D01*
X109600952Y-107202857D01*
X109505714Y-107202857D01*
X109458095Y-107226666D01*
X120339047Y-108195714D02*
X119958095Y-108195714D01*
X120148571Y-108386190D02*
X120148571Y-108005238D01*
X119339047Y-108386190D02*
X119339047Y-107886190D01*
X119220000Y-107886190D01*
X119148571Y-107910000D01*
X119100952Y-107957619D01*
X119077142Y-108005238D01*
X119053333Y-108100476D01*
X119053333Y-108171904D01*
X119077142Y-108267142D01*
X119100952Y-108314761D01*
X119148571Y-108362380D01*
X119220000Y-108386190D01*
X119339047Y-108386190D01*
X118553333Y-108338571D02*
X118577142Y-108362380D01*
X118648571Y-108386190D01*
X118696190Y-108386190D01*
X118767619Y-108362380D01*
X118815238Y-108314761D01*
X118839047Y-108267142D01*
X118862857Y-108171904D01*
X118862857Y-108100476D01*
X118839047Y-108005238D01*
X118815238Y-107957619D01*
X118767619Y-107910000D01*
X118696190Y-107886190D01*
X118648571Y-107886190D01*
X118577142Y-107910000D01*
X118553333Y-107933809D01*
X118029523Y-108052857D02*
X117839047Y-108052857D01*
X117958095Y-107886190D02*
X117958095Y-108314761D01*
X117934285Y-108362380D01*
X117886666Y-108386190D01*
X117839047Y-108386190D01*
X117600952Y-108386190D02*
X117648571Y-108362380D01*
X117672380Y-108338571D01*
X117696190Y-108290952D01*
X117696190Y-108148095D01*
X117672380Y-108100476D01*
X117648571Y-108076666D01*
X117600952Y-108052857D01*
X117529523Y-108052857D01*
X117481904Y-108076666D01*
X117458095Y-108100476D01*
X117434285Y-108148095D01*
X117434285Y-108290952D01*
X117458095Y-108338571D01*
X117481904Y-108362380D01*
X117529523Y-108386190D01*
X117600952Y-108386190D01*
X116577142Y-108386190D02*
X116862857Y-108386190D01*
X116720000Y-108386190D02*
X116720000Y-107886190D01*
X116767619Y-107957619D01*
X116815238Y-108005238D01*
X116862857Y-108029047D01*
X116362857Y-108386190D02*
X116362857Y-107886190D01*
X116196190Y-108243333D01*
X116029523Y-107886190D01*
X116029523Y-108386190D01*
X115791428Y-108386190D02*
X115791428Y-107886190D01*
X115791428Y-108124285D02*
X115505714Y-108124285D01*
X115505714Y-108386190D02*
X115505714Y-107886190D01*
X115315238Y-108052857D02*
X115053333Y-108052857D01*
X115315238Y-108386190D01*
X115053333Y-108386190D01*
X114839047Y-108362380D02*
X114839047Y-108386190D01*
X114862857Y-108433809D01*
X114886666Y-108457619D01*
X114148571Y-107886190D02*
X114100952Y-107886190D01*
X114053333Y-107910000D01*
X114029523Y-107933809D01*
X114005714Y-107981428D01*
X113981904Y-108076666D01*
X113981904Y-108195714D01*
X114005714Y-108290952D01*
X114029523Y-108338571D01*
X114053333Y-108362380D01*
X114100952Y-108386190D01*
X114148571Y-108386190D01*
X114196190Y-108362380D01*
X114220000Y-108338571D01*
X114243809Y-108290952D01*
X114267619Y-108195714D01*
X114267619Y-108076666D01*
X114243809Y-107981428D01*
X114220000Y-107933809D01*
X114196190Y-107910000D01*
X114148571Y-107886190D01*
X113767619Y-108338571D02*
X113743809Y-108362380D01*
X113767619Y-108386190D01*
X113791428Y-108362380D01*
X113767619Y-108338571D01*
X113767619Y-108386190D01*
X113267619Y-108386190D02*
X113553333Y-108386190D01*
X113410476Y-108386190D02*
X113410476Y-107886190D01*
X113458095Y-107957619D01*
X113505714Y-108005238D01*
X113553333Y-108029047D01*
X113053333Y-108386190D02*
X113053333Y-107886190D01*
X113053333Y-108124285D02*
X112767619Y-108124285D01*
X112767619Y-108386190D02*
X112767619Y-107886190D01*
X112577142Y-108052857D02*
X112315238Y-108052857D01*
X112577142Y-108386190D01*
X112315238Y-108386190D01*
X111529523Y-108386190D02*
X111529523Y-108124285D01*
X111553333Y-108076666D01*
X111600952Y-108052857D01*
X111696190Y-108052857D01*
X111743809Y-108076666D01*
X111529523Y-108362380D02*
X111577142Y-108386190D01*
X111696190Y-108386190D01*
X111743809Y-108362380D01*
X111767619Y-108314761D01*
X111767619Y-108267142D01*
X111743809Y-108219523D01*
X111696190Y-108195714D01*
X111577142Y-108195714D01*
X111529523Y-108171904D01*
X111077142Y-108362380D02*
X111124761Y-108386190D01*
X111220000Y-108386190D01*
X111267619Y-108362380D01*
X111291428Y-108338571D01*
X111315238Y-108290952D01*
X111315238Y-108148095D01*
X111291428Y-108100476D01*
X111267619Y-108076666D01*
X111220000Y-108052857D01*
X111124761Y-108052857D01*
X111077142Y-108076666D01*
X110648571Y-108362380D02*
X110696190Y-108386190D01*
X110791428Y-108386190D01*
X110839047Y-108362380D01*
X110862857Y-108338571D01*
X110886666Y-108290952D01*
X110886666Y-108148095D01*
X110862857Y-108100476D01*
X110839047Y-108076666D01*
X110791428Y-108052857D01*
X110696190Y-108052857D01*
X110648571Y-108076666D01*
X110220000Y-108052857D02*
X110220000Y-108386190D01*
X110434285Y-108052857D02*
X110434285Y-108314761D01*
X110410476Y-108362380D01*
X110362857Y-108386190D01*
X110291428Y-108386190D01*
X110243809Y-108362380D01*
X110220000Y-108338571D01*
X109981904Y-108386190D02*
X109981904Y-108052857D01*
X109981904Y-108148095D02*
X109958095Y-108100476D01*
X109934285Y-108076666D01*
X109886666Y-108052857D01*
X109839047Y-108052857D01*
X109458095Y-108386190D02*
X109458095Y-108124285D01*
X109481904Y-108076666D01*
X109529523Y-108052857D01*
X109624761Y-108052857D01*
X109672380Y-108076666D01*
X109458095Y-108362380D02*
X109505714Y-108386190D01*
X109624761Y-108386190D01*
X109672380Y-108362380D01*
X109696190Y-108314761D01*
X109696190Y-108267142D01*
X109672380Y-108219523D01*
X109624761Y-108195714D01*
X109505714Y-108195714D01*
X109458095Y-108171904D01*
X109005714Y-108362380D02*
X109053333Y-108386190D01*
X109148571Y-108386190D01*
X109196190Y-108362380D01*
X109220000Y-108338571D01*
X109243809Y-108290952D01*
X109243809Y-108148095D01*
X109220000Y-108100476D01*
X109196190Y-108076666D01*
X109148571Y-108052857D01*
X109053333Y-108052857D01*
X109005714Y-108076666D01*
X108839047Y-108052857D02*
X108720000Y-108386190D01*
X108600952Y-108052857D02*
X108720000Y-108386190D01*
X108767619Y-108505238D01*
X108791428Y-108529047D01*
X108839047Y-108552857D01*
X120339047Y-109045714D02*
X119958095Y-109045714D01*
X120148571Y-109236190D02*
X120148571Y-108855238D01*
X119362857Y-109212380D02*
X119291428Y-109236190D01*
X119172380Y-109236190D01*
X119124761Y-109212380D01*
X119100952Y-109188571D01*
X119077142Y-109140952D01*
X119077142Y-109093333D01*
X119100952Y-109045714D01*
X119124761Y-109021904D01*
X119172380Y-108998095D01*
X119267619Y-108974285D01*
X119315238Y-108950476D01*
X119339047Y-108926666D01*
X119362857Y-108879047D01*
X119362857Y-108831428D01*
X119339047Y-108783809D01*
X119315238Y-108760000D01*
X119267619Y-108736190D01*
X119148571Y-108736190D01*
X119077142Y-108760000D01*
X118862857Y-109236190D02*
X118862857Y-108902857D01*
X118862857Y-108736190D02*
X118886666Y-108760000D01*
X118862857Y-108783809D01*
X118839047Y-108760000D01*
X118862857Y-108736190D01*
X118862857Y-108783809D01*
X118624761Y-108902857D02*
X118624761Y-109236190D01*
X118624761Y-108950476D02*
X118600952Y-108926666D01*
X118553333Y-108902857D01*
X118481904Y-108902857D01*
X118434285Y-108926666D01*
X118410476Y-108974285D01*
X118410476Y-109236190D01*
X117981904Y-109212380D02*
X118029523Y-109236190D01*
X118124761Y-109236190D01*
X118172380Y-109212380D01*
X118196190Y-109164761D01*
X118196190Y-108974285D01*
X118172380Y-108926666D01*
X118124761Y-108902857D01*
X118029523Y-108902857D01*
X117981904Y-108926666D01*
X117958095Y-108974285D01*
X117958095Y-109021904D01*
X118196190Y-109069523D01*
X117386666Y-108712380D02*
X117815238Y-109355238D01*
X117243809Y-109212380D02*
X117172380Y-109236190D01*
X117053333Y-109236190D01*
X117005714Y-109212380D01*
X116981904Y-109188571D01*
X116958095Y-109140952D01*
X116958095Y-109093333D01*
X116981904Y-109045714D01*
X117005714Y-109021904D01*
X117053333Y-108998095D01*
X117148571Y-108974285D01*
X117196190Y-108950476D01*
X117220000Y-108926666D01*
X117243809Y-108879047D01*
X117243809Y-108831428D01*
X117220000Y-108783809D01*
X117196190Y-108760000D01*
X117148571Y-108736190D01*
X117029523Y-108736190D01*
X116958095Y-108760000D01*
X116529523Y-108902857D02*
X116529523Y-109402857D01*
X116529523Y-109212380D02*
X116577142Y-109236190D01*
X116672380Y-109236190D01*
X116720000Y-109212380D01*
X116743809Y-109188571D01*
X116767619Y-109140952D01*
X116767619Y-108998095D01*
X116743809Y-108950476D01*
X116720000Y-108926666D01*
X116672380Y-108902857D01*
X116577142Y-108902857D01*
X116529523Y-108926666D01*
X116077142Y-108902857D02*
X116077142Y-109236190D01*
X116291428Y-108902857D02*
X116291428Y-109164761D01*
X116267619Y-109212380D01*
X116220000Y-109236190D01*
X116148571Y-109236190D01*
X116100952Y-109212380D01*
X116077142Y-109188571D01*
X115624761Y-109236190D02*
X115624761Y-108974285D01*
X115648571Y-108926666D01*
X115696190Y-108902857D01*
X115791428Y-108902857D01*
X115839047Y-108926666D01*
X115624761Y-109212380D02*
X115672380Y-109236190D01*
X115791428Y-109236190D01*
X115839047Y-109212380D01*
X115862857Y-109164761D01*
X115862857Y-109117142D01*
X115839047Y-109069523D01*
X115791428Y-109045714D01*
X115672380Y-109045714D01*
X115624761Y-109021904D01*
X115386666Y-109236190D02*
X115386666Y-108902857D01*
X115386666Y-108998095D02*
X115362857Y-108950476D01*
X115339047Y-108926666D01*
X115291428Y-108902857D01*
X115243809Y-108902857D01*
X114886666Y-109212380D02*
X114934285Y-109236190D01*
X115029523Y-109236190D01*
X115077142Y-109212380D01*
X115100952Y-109164761D01*
X115100952Y-108974285D01*
X115077142Y-108926666D01*
X115029523Y-108902857D01*
X114934285Y-108902857D01*
X114886666Y-108926666D01*
X114862857Y-108974285D01*
X114862857Y-109021904D01*
X115100952Y-109069523D01*
X114291428Y-108712380D02*
X114720000Y-109355238D01*
X114196190Y-108736190D02*
X113910476Y-108736190D01*
X114053333Y-109236190D02*
X114053333Y-108736190D01*
X113743809Y-109236190D02*
X113743809Y-108902857D01*
X113743809Y-108998095D02*
X113720000Y-108950476D01*
X113696190Y-108926666D01*
X113648571Y-108902857D01*
X113600952Y-108902857D01*
X113434285Y-109236190D02*
X113434285Y-108902857D01*
X113434285Y-108736190D02*
X113458095Y-108760000D01*
X113434285Y-108783809D01*
X113410476Y-108760000D01*
X113434285Y-108736190D01*
X113434285Y-108783809D01*
X112981904Y-109236190D02*
X112981904Y-108974285D01*
X113005714Y-108926666D01*
X113053333Y-108902857D01*
X113148571Y-108902857D01*
X113196190Y-108926666D01*
X112981904Y-109212380D02*
X113029523Y-109236190D01*
X113148571Y-109236190D01*
X113196190Y-109212380D01*
X113220000Y-109164761D01*
X113220000Y-109117142D01*
X113196190Y-109069523D01*
X113148571Y-109045714D01*
X113029523Y-109045714D01*
X112981904Y-109021904D01*
X112743809Y-108902857D02*
X112743809Y-109236190D01*
X112743809Y-108950476D02*
X112720000Y-108926666D01*
X112672380Y-108902857D01*
X112600952Y-108902857D01*
X112553333Y-108926666D01*
X112529523Y-108974285D01*
X112529523Y-109236190D01*
X112077142Y-108902857D02*
X112077142Y-109307619D01*
X112100952Y-109355238D01*
X112124761Y-109379047D01*
X112172380Y-109402857D01*
X112243809Y-109402857D01*
X112291428Y-109379047D01*
X112077142Y-109212380D02*
X112124761Y-109236190D01*
X112220000Y-109236190D01*
X112267619Y-109212380D01*
X112291428Y-109188571D01*
X112315238Y-109140952D01*
X112315238Y-108998095D01*
X112291428Y-108950476D01*
X112267619Y-108926666D01*
X112220000Y-108902857D01*
X112124761Y-108902857D01*
X112077142Y-108926666D01*
X111767619Y-109236190D02*
X111815238Y-109212380D01*
X111839047Y-109164761D01*
X111839047Y-108736190D01*
X111386666Y-109212380D02*
X111434285Y-109236190D01*
X111529523Y-109236190D01*
X111577142Y-109212380D01*
X111600952Y-109164761D01*
X111600952Y-108974285D01*
X111577142Y-108926666D01*
X111529523Y-108902857D01*
X111434285Y-108902857D01*
X111386666Y-108926666D01*
X111362857Y-108974285D01*
X111362857Y-109021904D01*
X111600952Y-109069523D01*
X110815238Y-108902857D02*
X110720000Y-109236190D01*
X110624761Y-108998095D01*
X110529523Y-109236190D01*
X110434285Y-108902857D01*
X110029523Y-109236190D02*
X110029523Y-108974285D01*
X110053333Y-108926666D01*
X110100952Y-108902857D01*
X110196190Y-108902857D01*
X110243809Y-108926666D01*
X110029523Y-109212380D02*
X110077142Y-109236190D01*
X110196190Y-109236190D01*
X110243809Y-109212380D01*
X110267619Y-109164761D01*
X110267619Y-109117142D01*
X110243809Y-109069523D01*
X110196190Y-109045714D01*
X110077142Y-109045714D01*
X110029523Y-109021904D01*
X109839047Y-108902857D02*
X109720000Y-109236190D01*
X109600952Y-108902857D01*
X109220000Y-109212380D02*
X109267619Y-109236190D01*
X109362857Y-109236190D01*
X109410476Y-109212380D01*
X109434285Y-109164761D01*
X109434285Y-108974285D01*
X109410476Y-108926666D01*
X109362857Y-108902857D01*
X109267619Y-108902857D01*
X109220000Y-108926666D01*
X109196190Y-108974285D01*
X109196190Y-109021904D01*
X109434285Y-109069523D01*
X109053333Y-108902857D02*
X108862857Y-108902857D01*
X108981904Y-109236190D02*
X108981904Y-108807619D01*
X108958095Y-108760000D01*
X108910476Y-108736190D01*
X108862857Y-108736190D01*
X108624761Y-109236190D02*
X108672380Y-109212380D01*
X108696190Y-109188571D01*
X108720000Y-109140952D01*
X108720000Y-108998095D01*
X108696190Y-108950476D01*
X108672380Y-108926666D01*
X108624761Y-108902857D01*
X108553333Y-108902857D01*
X108505714Y-108926666D01*
X108481904Y-108950476D01*
X108458095Y-108998095D01*
X108458095Y-109140952D01*
X108481904Y-109188571D01*
X108505714Y-109212380D01*
X108553333Y-109236190D01*
X108624761Y-109236190D01*
X108243809Y-109236190D02*
X108243809Y-108902857D01*
X108243809Y-108998095D02*
X108220000Y-108950476D01*
X108196190Y-108926666D01*
X108148571Y-108902857D01*
X108100952Y-108902857D01*
X107934285Y-109236190D02*
X107934285Y-108902857D01*
X107934285Y-108950476D02*
X107910476Y-108926666D01*
X107862857Y-108902857D01*
X107791428Y-108902857D01*
X107743809Y-108926666D01*
X107720000Y-108974285D01*
X107720000Y-109236190D01*
X107720000Y-108974285D02*
X107696190Y-108926666D01*
X107648571Y-108902857D01*
X107577142Y-108902857D01*
X107529523Y-108926666D01*
X107505714Y-108974285D01*
X107505714Y-109236190D01*
X120339047Y-109895714D02*
X119958095Y-109895714D01*
X120148571Y-110086190D02*
X120148571Y-109705238D01*
X119386666Y-109586190D02*
X119077142Y-109586190D01*
X119243809Y-109776666D01*
X119172380Y-109776666D01*
X119124761Y-109800476D01*
X119100952Y-109824285D01*
X119077142Y-109871904D01*
X119077142Y-109990952D01*
X119100952Y-110038571D01*
X119124761Y-110062380D01*
X119172380Y-110086190D01*
X119315238Y-110086190D01*
X119362857Y-110062380D01*
X119386666Y-110038571D01*
X118862857Y-110038571D02*
X118839047Y-110062380D01*
X118862857Y-110086190D01*
X118886666Y-110062380D01*
X118862857Y-110038571D01*
X118862857Y-110086190D01*
X118672380Y-109586190D02*
X118362857Y-109586190D01*
X118529523Y-109776666D01*
X118458095Y-109776666D01*
X118410476Y-109800476D01*
X118386666Y-109824285D01*
X118362857Y-109871904D01*
X118362857Y-109990952D01*
X118386666Y-110038571D01*
X118410476Y-110062380D01*
X118458095Y-110086190D01*
X118600952Y-110086190D01*
X118648571Y-110062380D01*
X118672380Y-110038571D01*
X118196190Y-109752857D02*
X118077142Y-110086190D01*
X117958095Y-109752857D01*
X117386666Y-110086190D02*
X117386666Y-109586190D01*
X117386666Y-109776666D02*
X117339047Y-109752857D01*
X117243809Y-109752857D01*
X117196190Y-109776666D01*
X117172380Y-109800476D01*
X117148571Y-109848095D01*
X117148571Y-109990952D01*
X117172380Y-110038571D01*
X117196190Y-110062380D01*
X117243809Y-110086190D01*
X117339047Y-110086190D01*
X117386666Y-110062380D01*
X116720000Y-109752857D02*
X116720000Y-110086190D01*
X116934285Y-109752857D02*
X116934285Y-110014761D01*
X116910476Y-110062380D01*
X116862857Y-110086190D01*
X116791428Y-110086190D01*
X116743809Y-110062380D01*
X116720000Y-110038571D01*
X116553333Y-109752857D02*
X116362857Y-109752857D01*
X116481904Y-110086190D02*
X116481904Y-109657619D01*
X116458095Y-109610000D01*
X116410476Y-109586190D01*
X116362857Y-109586190D01*
X116267619Y-109752857D02*
X116077142Y-109752857D01*
X116196190Y-110086190D02*
X116196190Y-109657619D01*
X116172380Y-109610000D01*
X116124761Y-109586190D01*
X116077142Y-109586190D01*
X115720000Y-110062380D02*
X115767619Y-110086190D01*
X115862857Y-110086190D01*
X115910476Y-110062380D01*
X115934285Y-110014761D01*
X115934285Y-109824285D01*
X115910476Y-109776666D01*
X115862857Y-109752857D01*
X115767619Y-109752857D01*
X115720000Y-109776666D01*
X115696190Y-109824285D01*
X115696190Y-109871904D01*
X115934285Y-109919523D01*
X115481904Y-110086190D02*
X115481904Y-109752857D01*
X115481904Y-109848095D02*
X115458095Y-109800476D01*
X115434285Y-109776666D01*
X115386666Y-109752857D01*
X115339047Y-109752857D01*
X114981904Y-110062380D02*
X115029523Y-110086190D01*
X115124761Y-110086190D01*
X115172380Y-110062380D01*
X115196190Y-110014761D01*
X115196190Y-109824285D01*
X115172380Y-109776666D01*
X115124761Y-109752857D01*
X115029523Y-109752857D01*
X114981904Y-109776666D01*
X114958095Y-109824285D01*
X114958095Y-109871904D01*
X115196190Y-109919523D01*
X114529523Y-110086190D02*
X114529523Y-109586190D01*
X114529523Y-110062380D02*
X114577142Y-110086190D01*
X114672380Y-110086190D01*
X114720000Y-110062380D01*
X114743809Y-110038571D01*
X114767619Y-109990952D01*
X114767619Y-109848095D01*
X114743809Y-109800476D01*
X114720000Y-109776666D01*
X114672380Y-109752857D01*
X114577142Y-109752857D01*
X114529523Y-109776666D01*
X113839047Y-110086190D02*
X113886666Y-110062380D01*
X113910476Y-110038571D01*
X113934285Y-109990952D01*
X113934285Y-109848095D01*
X113910476Y-109800476D01*
X113886666Y-109776666D01*
X113839047Y-109752857D01*
X113767619Y-109752857D01*
X113720000Y-109776666D01*
X113696190Y-109800476D01*
X113672380Y-109848095D01*
X113672380Y-109990952D01*
X113696190Y-110038571D01*
X113720000Y-110062380D01*
X113767619Y-110086190D01*
X113839047Y-110086190D01*
X113243809Y-109752857D02*
X113243809Y-110086190D01*
X113458095Y-109752857D02*
X113458095Y-110014761D01*
X113434285Y-110062380D01*
X113386666Y-110086190D01*
X113315238Y-110086190D01*
X113267619Y-110062380D01*
X113243809Y-110038571D01*
X113077142Y-109752857D02*
X112886666Y-109752857D01*
X113005714Y-109586190D02*
X113005714Y-110014761D01*
X112981904Y-110062380D01*
X112934285Y-110086190D01*
X112886666Y-110086190D01*
X112720000Y-109752857D02*
X112720000Y-110252857D01*
X112720000Y-109776666D02*
X112672380Y-109752857D01*
X112577142Y-109752857D01*
X112529523Y-109776666D01*
X112505714Y-109800476D01*
X112481904Y-109848095D01*
X112481904Y-109990952D01*
X112505714Y-110038571D01*
X112529523Y-110062380D01*
X112577142Y-110086190D01*
X112672380Y-110086190D01*
X112720000Y-110062380D01*
X112053333Y-109752857D02*
X112053333Y-110086190D01*
X112267619Y-109752857D02*
X112267619Y-110014761D01*
X112243809Y-110062380D01*
X112196190Y-110086190D01*
X112124761Y-110086190D01*
X112077142Y-110062380D01*
X112053333Y-110038571D01*
X111886666Y-109752857D02*
X111696190Y-109752857D01*
X111815238Y-109586190D02*
X111815238Y-110014761D01*
X111791428Y-110062380D01*
X111743809Y-110086190D01*
X111696190Y-110086190D01*
X120339047Y-110745714D02*
X119958095Y-110745714D01*
X120148571Y-110936190D02*
X120148571Y-110555238D01*
X119362857Y-110912380D02*
X119291428Y-110936190D01*
X119172380Y-110936190D01*
X119124761Y-110912380D01*
X119100952Y-110888571D01*
X119077142Y-110840952D01*
X119077142Y-110793333D01*
X119100952Y-110745714D01*
X119124761Y-110721904D01*
X119172380Y-110698095D01*
X119267619Y-110674285D01*
X119315238Y-110650476D01*
X119339047Y-110626666D01*
X119362857Y-110579047D01*
X119362857Y-110531428D01*
X119339047Y-110483809D01*
X119315238Y-110460000D01*
X119267619Y-110436190D01*
X119148571Y-110436190D01*
X119077142Y-110460000D01*
X118862857Y-110936190D02*
X118862857Y-110436190D01*
X118672380Y-110436190D01*
X118624761Y-110460000D01*
X118600952Y-110483809D01*
X118577142Y-110531428D01*
X118577142Y-110602857D01*
X118600952Y-110650476D01*
X118624761Y-110674285D01*
X118672380Y-110698095D01*
X118862857Y-110698095D01*
X118362857Y-110936190D02*
X118362857Y-110436190D01*
X117743809Y-110936190D02*
X117743809Y-110602857D01*
X117743809Y-110436190D02*
X117767619Y-110460000D01*
X117743809Y-110483809D01*
X117720000Y-110460000D01*
X117743809Y-110436190D01*
X117743809Y-110483809D01*
X117505714Y-110602857D02*
X117505714Y-110936190D01*
X117505714Y-110650476D02*
X117481904Y-110626666D01*
X117434285Y-110602857D01*
X117362857Y-110602857D01*
X117315238Y-110626666D01*
X117291428Y-110674285D01*
X117291428Y-110936190D01*
X117124761Y-110602857D02*
X116934285Y-110602857D01*
X117053333Y-110436190D02*
X117053333Y-110864761D01*
X117029523Y-110912380D01*
X116981904Y-110936190D01*
X116934285Y-110936190D01*
X116577142Y-110912380D02*
X116624761Y-110936190D01*
X116720000Y-110936190D01*
X116767619Y-110912380D01*
X116791428Y-110864761D01*
X116791428Y-110674285D01*
X116767619Y-110626666D01*
X116720000Y-110602857D01*
X116624761Y-110602857D01*
X116577142Y-110626666D01*
X116553333Y-110674285D01*
X116553333Y-110721904D01*
X116791428Y-110769523D01*
X116339047Y-110936190D02*
X116339047Y-110602857D01*
X116339047Y-110698095D02*
X116315238Y-110650476D01*
X116291428Y-110626666D01*
X116243809Y-110602857D01*
X116196190Y-110602857D01*
X116100952Y-110602857D02*
X115910476Y-110602857D01*
X116029523Y-110936190D02*
X116029523Y-110507619D01*
X116005714Y-110460000D01*
X115958095Y-110436190D01*
X115910476Y-110436190D01*
X115529523Y-110936190D02*
X115529523Y-110674285D01*
X115553333Y-110626666D01*
X115600952Y-110602857D01*
X115696190Y-110602857D01*
X115743809Y-110626666D01*
X115529523Y-110912380D02*
X115577142Y-110936190D01*
X115696190Y-110936190D01*
X115743809Y-110912380D01*
X115767619Y-110864761D01*
X115767619Y-110817142D01*
X115743809Y-110769523D01*
X115696190Y-110745714D01*
X115577142Y-110745714D01*
X115529523Y-110721904D01*
X115077142Y-110912380D02*
X115124761Y-110936190D01*
X115220000Y-110936190D01*
X115267619Y-110912380D01*
X115291428Y-110888571D01*
X115315238Y-110840952D01*
X115315238Y-110698095D01*
X115291428Y-110650476D01*
X115267619Y-110626666D01*
X115220000Y-110602857D01*
X115124761Y-110602857D01*
X115077142Y-110626666D01*
X114672380Y-110912380D02*
X114720000Y-110936190D01*
X114815238Y-110936190D01*
X114862857Y-110912380D01*
X114886666Y-110864761D01*
X114886666Y-110674285D01*
X114862857Y-110626666D01*
X114815238Y-110602857D01*
X114720000Y-110602857D01*
X114672380Y-110626666D01*
X114648571Y-110674285D01*
X114648571Y-110721904D01*
X114886666Y-110769523D01*
X113910476Y-111126666D02*
X113934285Y-111102857D01*
X113981904Y-111031428D01*
X114005714Y-110983809D01*
X114029523Y-110912380D01*
X114053333Y-110793333D01*
X114053333Y-110698095D01*
X114029523Y-110579047D01*
X114005714Y-110507619D01*
X113981904Y-110460000D01*
X113934285Y-110388571D01*
X113910476Y-110364761D01*
X113720000Y-110936190D02*
X113720000Y-110436190D01*
X113600952Y-110436190D01*
X113529523Y-110460000D01*
X113481904Y-110507619D01*
X113458095Y-110555238D01*
X113434285Y-110650476D01*
X113434285Y-110721904D01*
X113458095Y-110817142D01*
X113481904Y-110864761D01*
X113529523Y-110912380D01*
X113600952Y-110936190D01*
X113720000Y-110936190D01*
X113005714Y-110436190D02*
X113100952Y-110436190D01*
X113148571Y-110460000D01*
X113172380Y-110483809D01*
X113220000Y-110555238D01*
X113243809Y-110650476D01*
X113243809Y-110840952D01*
X113220000Y-110888571D01*
X113196190Y-110912380D01*
X113148571Y-110936190D01*
X113053333Y-110936190D01*
X113005714Y-110912380D01*
X112981904Y-110888571D01*
X112958095Y-110840952D01*
X112958095Y-110721904D01*
X112981904Y-110674285D01*
X113005714Y-110650476D01*
X113053333Y-110626666D01*
X113148571Y-110626666D01*
X113196190Y-110650476D01*
X113220000Y-110674285D01*
X113243809Y-110721904D01*
X112362857Y-110674285D02*
X111981904Y-110674285D01*
X111981904Y-110817142D02*
X112362857Y-110817142D01*
X111389404Y-110220000D02*
X110981904Y-110220000D01*
X111077142Y-110888571D02*
X111100952Y-110912380D01*
X111172380Y-110936190D01*
X111220000Y-110936190D01*
X111291428Y-110912380D01*
X111339047Y-110864761D01*
X111362857Y-110817142D01*
X111386666Y-110721904D01*
X111386666Y-110650476D01*
X111362857Y-110555238D01*
X111339047Y-110507619D01*
X111291428Y-110460000D01*
X111220000Y-110436190D01*
X111172380Y-110436190D01*
X111100952Y-110460000D01*
X111077142Y-110483809D01*
X110981904Y-110220000D02*
X110505714Y-110220000D01*
X110886666Y-110912380D02*
X110815238Y-110936190D01*
X110696190Y-110936190D01*
X110648571Y-110912380D01*
X110624761Y-110888571D01*
X110600952Y-110840952D01*
X110600952Y-110793333D01*
X110624761Y-110745714D01*
X110648571Y-110721904D01*
X110696190Y-110698095D01*
X110791428Y-110674285D01*
X110839047Y-110650476D01*
X110862857Y-110626666D01*
X110886666Y-110579047D01*
X110886666Y-110531428D01*
X110862857Y-110483809D01*
X110839047Y-110460000D01*
X110791428Y-110436190D01*
X110672380Y-110436190D01*
X110600952Y-110460000D01*
X110434285Y-111126666D02*
X110410476Y-111102857D01*
X110362857Y-111031428D01*
X110339047Y-110983809D01*
X110315238Y-110912380D01*
X110291428Y-110793333D01*
X110291428Y-110698095D01*
X110315238Y-110579047D01*
X110339047Y-110507619D01*
X110362857Y-110460000D01*
X110410476Y-110388571D01*
X110434285Y-110364761D01*
X119300238Y-113438809D02*
X119276428Y-113415000D01*
X119228809Y-113391190D01*
X119109761Y-113391190D01*
X119062142Y-113415000D01*
X119038333Y-113438809D01*
X119014523Y-113486428D01*
X119014523Y-113534047D01*
X119038333Y-113605476D01*
X119324047Y-113891190D01*
X119014523Y-113891190D01*
X118705000Y-113391190D02*
X118657380Y-113391190D01*
X118609761Y-113415000D01*
X118585952Y-113438809D01*
X118562142Y-113486428D01*
X118538333Y-113581666D01*
X118538333Y-113700714D01*
X118562142Y-113795952D01*
X118585952Y-113843571D01*
X118609761Y-113867380D01*
X118657380Y-113891190D01*
X118705000Y-113891190D01*
X118752619Y-113867380D01*
X118776428Y-113843571D01*
X118800238Y-113795952D01*
X118824047Y-113700714D01*
X118824047Y-113581666D01*
X118800238Y-113486428D01*
X118776428Y-113438809D01*
X118752619Y-113415000D01*
X118705000Y-113391190D01*
X118062142Y-113891190D02*
X118347857Y-113891190D01*
X118205000Y-113891190D02*
X118205000Y-113391190D01*
X118252619Y-113462619D01*
X118300238Y-113510238D01*
X118347857Y-113534047D01*
X117824047Y-113891190D02*
X117728809Y-113891190D01*
X117681190Y-113867380D01*
X117657380Y-113843571D01*
X117609761Y-113772142D01*
X117585952Y-113676904D01*
X117585952Y-113486428D01*
X117609761Y-113438809D01*
X117633571Y-113415000D01*
X117681190Y-113391190D01*
X117776428Y-113391190D01*
X117824047Y-113415000D01*
X117847857Y-113438809D01*
X117871666Y-113486428D01*
X117871666Y-113605476D01*
X117847857Y-113653095D01*
X117824047Y-113676904D01*
X117776428Y-113700714D01*
X117681190Y-113700714D01*
X117633571Y-113676904D01*
X117609761Y-113653095D01*
X117585952Y-113605476D01*
X117371666Y-113700714D02*
X116990714Y-113700714D01*
X116657380Y-113391190D02*
X116609761Y-113391190D01*
X116562142Y-113415000D01*
X116538333Y-113438809D01*
X116514523Y-113486428D01*
X116490714Y-113581666D01*
X116490714Y-113700714D01*
X116514523Y-113795952D01*
X116538333Y-113843571D01*
X116562142Y-113867380D01*
X116609761Y-113891190D01*
X116657380Y-113891190D01*
X116705000Y-113867380D01*
X116728809Y-113843571D01*
X116752619Y-113795952D01*
X116776428Y-113700714D01*
X116776428Y-113581666D01*
X116752619Y-113486428D01*
X116728809Y-113438809D01*
X116705000Y-113415000D01*
X116657380Y-113391190D01*
X116324047Y-113391190D02*
X115990714Y-113391190D01*
X116205000Y-113891190D01*
X115800238Y-113700714D02*
X115419285Y-113700714D01*
X115205000Y-113438809D02*
X115181190Y-113415000D01*
X115133571Y-113391190D01*
X115014523Y-113391190D01*
X114966904Y-113415000D01*
X114943095Y-113438809D01*
X114919285Y-113486428D01*
X114919285Y-113534047D01*
X114943095Y-113605476D01*
X115228809Y-113891190D01*
X114919285Y-113891190D01*
X114443095Y-113891190D02*
X114728809Y-113891190D01*
X114585952Y-113891190D02*
X114585952Y-113391190D01*
X114633571Y-113462619D01*
X114681190Y-113510238D01*
X114728809Y-113534047D01*
X114276428Y-113557857D02*
X114157380Y-113891190D01*
X114038333Y-113557857D01*
X113752619Y-113391190D02*
X113705000Y-113391190D01*
X113657380Y-113415000D01*
X113633571Y-113438809D01*
X113609761Y-113486428D01*
X113585952Y-113581666D01*
X113585952Y-113700714D01*
X113609761Y-113795952D01*
X113633571Y-113843571D01*
X113657380Y-113867380D01*
X113705000Y-113891190D01*
X113752619Y-113891190D01*
X113800238Y-113867380D01*
X113824047Y-113843571D01*
X113847857Y-113795952D01*
X113871666Y-113700714D01*
X113871666Y-113581666D01*
X113847857Y-113486428D01*
X113824047Y-113438809D01*
X113800238Y-113415000D01*
X113752619Y-113391190D01*
X113109761Y-113891190D02*
X113395476Y-113891190D01*
X113252619Y-113891190D02*
X113252619Y-113391190D01*
X113300238Y-113462619D01*
X113347857Y-113510238D01*
X113395476Y-113534047D01*
X138269761Y-99778333D02*
X138031666Y-99778333D01*
X138317380Y-99921190D02*
X138150714Y-99421190D01*
X137984047Y-99921190D01*
X137817380Y-99921190D02*
X137817380Y-99421190D01*
X137531666Y-99921190D01*
X137531666Y-99421190D01*
X137317380Y-99778333D02*
X137079285Y-99778333D01*
X137365000Y-99921190D02*
X137198333Y-99421190D01*
X137031666Y-99921190D01*
X136626904Y-99921190D02*
X136865000Y-99921190D01*
X136865000Y-99421190D01*
X136365000Y-99421190D02*
X136269761Y-99421190D01*
X136222142Y-99445000D01*
X136174523Y-99492619D01*
X136150714Y-99587857D01*
X136150714Y-99754523D01*
X136174523Y-99849761D01*
X136222142Y-99897380D01*
X136269761Y-99921190D01*
X136365000Y-99921190D01*
X136412619Y-99897380D01*
X136460238Y-99849761D01*
X136484047Y-99754523D01*
X136484047Y-99587857D01*
X136460238Y-99492619D01*
X136412619Y-99445000D01*
X136365000Y-99421190D01*
X135674523Y-99445000D02*
X135722142Y-99421190D01*
X135793571Y-99421190D01*
X135865000Y-99445000D01*
X135912619Y-99492619D01*
X135936428Y-99540238D01*
X135960238Y-99635476D01*
X135960238Y-99706904D01*
X135936428Y-99802142D01*
X135912619Y-99849761D01*
X135865000Y-99897380D01*
X135793571Y-99921190D01*
X135745952Y-99921190D01*
X135674523Y-99897380D01*
X135650714Y-99873571D01*
X135650714Y-99706904D01*
X135745952Y-99706904D01*
X135079285Y-99897380D02*
X135007857Y-99921190D01*
X134888809Y-99921190D01*
X134841190Y-99897380D01*
X134817380Y-99873571D01*
X134793571Y-99825952D01*
X134793571Y-99778333D01*
X134817380Y-99730714D01*
X134841190Y-99706904D01*
X134888809Y-99683095D01*
X134984047Y-99659285D01*
X135031666Y-99635476D01*
X135055476Y-99611666D01*
X135079285Y-99564047D01*
X135079285Y-99516428D01*
X135055476Y-99468809D01*
X135031666Y-99445000D01*
X134984047Y-99421190D01*
X134865000Y-99421190D01*
X134793571Y-99445000D01*
X134579285Y-99659285D02*
X134412619Y-99659285D01*
X134341190Y-99921190D02*
X134579285Y-99921190D01*
X134579285Y-99421190D01*
X134341190Y-99421190D01*
X133841190Y-99873571D02*
X133865000Y-99897380D01*
X133936428Y-99921190D01*
X133984047Y-99921190D01*
X134055476Y-99897380D01*
X134103095Y-99849761D01*
X134126904Y-99802142D01*
X134150714Y-99706904D01*
X134150714Y-99635476D01*
X134126904Y-99540238D01*
X134103095Y-99492619D01*
X134055476Y-99445000D01*
X133984047Y-99421190D01*
X133936428Y-99421190D01*
X133865000Y-99445000D01*
X133841190Y-99468809D01*
X133698333Y-99421190D02*
X133412619Y-99421190D01*
X133555476Y-99921190D02*
X133555476Y-99421190D01*
X133245952Y-99921190D02*
X133245952Y-99421190D01*
X132912619Y-99421190D02*
X132817380Y-99421190D01*
X132769761Y-99445000D01*
X132722142Y-99492619D01*
X132698333Y-99587857D01*
X132698333Y-99754523D01*
X132722142Y-99849761D01*
X132769761Y-99897380D01*
X132817380Y-99921190D01*
X132912619Y-99921190D01*
X132960238Y-99897380D01*
X133007857Y-99849761D01*
X133031666Y-99754523D01*
X133031666Y-99587857D01*
X133007857Y-99492619D01*
X132960238Y-99445000D01*
X132912619Y-99421190D01*
X132484047Y-99921190D02*
X132484047Y-99421190D01*
X132198333Y-99921190D01*
X132198333Y-99421190D01*
X123190000Y-99060000D02*
X123190000Y-114300000D01*
X145415000Y-99060000D02*
X123190000Y-99060000D01*
X145415000Y-114300000D02*
X145415000Y-99060000D01*
X123190000Y-114300000D02*
X145415000Y-114300000D01*
D11*
G36*
X115589139Y-99706575D02*
X115581635Y-99759030D01*
X115578834Y-99834958D01*
X115578834Y-99982942D01*
X114515209Y-99988429D01*
X113451584Y-99993917D01*
X113440602Y-102078833D01*
X113313801Y-102078833D01*
X113246235Y-102082051D01*
X113200436Y-102090455D01*
X113187000Y-102100000D01*
X113206106Y-102111746D01*
X113255254Y-102119432D01*
X113299889Y-102121167D01*
X113375663Y-102126132D01*
X113414761Y-102140501D01*
X113419124Y-102147625D01*
X113420650Y-102173499D01*
X113422582Y-102237494D01*
X113424841Y-102335400D01*
X113427351Y-102463008D01*
X113430034Y-102616108D01*
X113432812Y-102790489D01*
X113435607Y-102981943D01*
X113438343Y-103186260D01*
X113438526Y-103200667D01*
X113451584Y-104227250D01*
X114515209Y-104232737D01*
X115578834Y-104238225D01*
X115578834Y-104375612D01*
X115581828Y-104447431D01*
X115589759Y-104496592D01*
X115600000Y-104513000D01*
X115611061Y-104493560D01*
X115618634Y-104442065D01*
X115621167Y-104375417D01*
X115621167Y-104237833D01*
X117716667Y-104237833D01*
X117716667Y-104218255D01*
X115155500Y-104218255D01*
X114959709Y-104212169D01*
X114763917Y-104206083D01*
X114757675Y-104051495D01*
X114758354Y-103951890D01*
X114769340Y-103905048D01*
X114732167Y-103905048D01*
X114732167Y-104218255D01*
X114536375Y-104212169D01*
X114340584Y-104206083D01*
X114334355Y-104039417D01*
X114332019Y-103956569D01*
X114333764Y-103908339D01*
X114341202Y-103887084D01*
X114355944Y-103885162D01*
X114366105Y-103888870D01*
X114486853Y-103928908D01*
X114590001Y-103937328D01*
X114647500Y-103927647D01*
X114732167Y-103905048D01*
X114769340Y-103905048D01*
X114774132Y-103884618D01*
X114811349Y-103843549D01*
X114876346Y-103822551D01*
X114975464Y-103815493D01*
X115002042Y-103815204D01*
X115155500Y-103814500D01*
X114287667Y-103814500D01*
X114287667Y-104216667D01*
X113906667Y-104216667D01*
X113906667Y-103814500D01*
X113864334Y-103814500D01*
X113864334Y-104216667D01*
X113483334Y-104216667D01*
X113483334Y-103814500D01*
X113864334Y-103814500D01*
X113906667Y-103814500D01*
X114287667Y-103814500D01*
X115155500Y-103814500D01*
X115155500Y-104218255D01*
X117716667Y-104218255D01*
X117716667Y-103814500D01*
X117695500Y-103814500D01*
X117695500Y-104001472D01*
X117693999Y-104086650D01*
X117689986Y-104154995D01*
X117684201Y-104195991D01*
X117681389Y-104202555D01*
X117655179Y-104208871D01*
X117597157Y-104213726D01*
X117517839Y-104216383D01*
X117480306Y-104216667D01*
X117293334Y-104216667D01*
X117293334Y-103814500D01*
X117272167Y-103814500D01*
X117272167Y-104001472D01*
X117270666Y-104086650D01*
X117266653Y-104154995D01*
X117260867Y-104195991D01*
X117258056Y-104202555D01*
X117231846Y-104208871D01*
X117173824Y-104213726D01*
X117094506Y-104216383D01*
X117056973Y-104216667D01*
X116870000Y-104216667D01*
X116870000Y-103814500D01*
X116848834Y-103814500D01*
X116848834Y-104216667D01*
X116446667Y-104216667D01*
X116446667Y-103814500D01*
X116425500Y-103814500D01*
X116425500Y-104216667D01*
X116023334Y-104216667D01*
X116023334Y-103814500D01*
X116002167Y-103814500D01*
X116002167Y-104216667D01*
X115621167Y-104216667D01*
X115621167Y-103814500D01*
X115578834Y-103814500D01*
X115578834Y-104216667D01*
X115176667Y-104216667D01*
X115176667Y-103814500D01*
X115578834Y-103814500D01*
X115621167Y-103814500D01*
X116002167Y-103814500D01*
X116023334Y-103814500D01*
X116425500Y-103814500D01*
X116446667Y-103814500D01*
X116848834Y-103814500D01*
X116870000Y-103814500D01*
X117272167Y-103814500D01*
X117293334Y-103814500D01*
X117695500Y-103814500D01*
X117716667Y-103814500D01*
X117716667Y-103391167D01*
X117695500Y-103391167D01*
X117695500Y-103793333D01*
X117293334Y-103793333D01*
X117293334Y-103391167D01*
X117272167Y-103391167D01*
X117272167Y-103793333D01*
X116870000Y-103793333D01*
X116870000Y-103391167D01*
X116848834Y-103391167D01*
X116848834Y-103793333D01*
X116446667Y-103793333D01*
X116446667Y-103391167D01*
X116425500Y-103391167D01*
X116425500Y-103793333D01*
X116023334Y-103793333D01*
X116023334Y-103391167D01*
X116002167Y-103391167D01*
X116002167Y-103793333D01*
X115621167Y-103793333D01*
X115621167Y-103391167D01*
X115578834Y-103391167D01*
X115578834Y-103793333D01*
X115176667Y-103793333D01*
X115176667Y-103592250D01*
X115155500Y-103592250D01*
X115155500Y-103793333D01*
X114880007Y-103793333D01*
X114225344Y-103793333D01*
X113906667Y-103793333D01*
X113906667Y-103592250D01*
X113909002Y-103486773D01*
X113916591Y-103421734D01*
X113930311Y-103395463D01*
X113951041Y-103406291D01*
X113979655Y-103452549D01*
X113979867Y-103452957D01*
X114008029Y-103499269D01*
X114053600Y-103565822D01*
X114107669Y-103639700D01*
X114118582Y-103654041D01*
X114225344Y-103793333D01*
X114880007Y-103793333D01*
X114962851Y-103671625D01*
X115012072Y-103595696D01*
X115056807Y-103520566D01*
X115083352Y-103470542D01*
X115110527Y-103421191D01*
X115121103Y-103408189D01*
X114965000Y-103408189D01*
X114953763Y-103438467D01*
X114924725Y-103490004D01*
X114884901Y-103552486D01*
X114841304Y-103615602D01*
X114800949Y-103669039D01*
X114770849Y-103702485D01*
X114760637Y-103708667D01*
X114757146Y-103689225D01*
X114754563Y-103637800D01*
X114753366Y-103564737D01*
X114753334Y-103549917D01*
X114753334Y-103391167D01*
X114732167Y-103391167D01*
X114732167Y-103570031D01*
X114730701Y-103661046D01*
X114725194Y-103718775D01*
X114713989Y-103752198D01*
X114695425Y-103770296D01*
X114695125Y-103770471D01*
X114628775Y-103790153D01*
X114543479Y-103790899D01*
X114457469Y-103774022D01*
X114401291Y-103749273D01*
X114364844Y-103725030D01*
X114343581Y-103700725D01*
X114333411Y-103664821D01*
X114330243Y-103605779D01*
X114330000Y-103548190D01*
X114330000Y-103391167D01*
X114287667Y-103391167D01*
X114287667Y-103518167D01*
X114286529Y-103585160D01*
X114283569Y-103631180D01*
X114280151Y-103645167D01*
X114265291Y-103629172D01*
X114233008Y-103586956D01*
X114189881Y-103527167D01*
X114183549Y-103518167D01*
X114094463Y-103391167D01*
X113864334Y-103391167D01*
X113864334Y-103793333D01*
X113483334Y-103793333D01*
X113483334Y-103391167D01*
X113864334Y-103391167D01*
X114094463Y-103391167D01*
X114287667Y-103391167D01*
X114330000Y-103391167D01*
X114732167Y-103391167D01*
X114753334Y-103391167D01*
X114859167Y-103391167D01*
X114919548Y-103394229D01*
X114957866Y-103402061D01*
X114965000Y-103408189D01*
X115121103Y-103408189D01*
X115133128Y-103393406D01*
X115138254Y-103391167D01*
X115145665Y-103410797D01*
X115151480Y-103463562D01*
X115154913Y-103540270D01*
X115155500Y-103592250D01*
X115176667Y-103592250D01*
X115176667Y-103391167D01*
X115578834Y-103391167D01*
X115621167Y-103391167D01*
X116002167Y-103391167D01*
X116023334Y-103391167D01*
X116425500Y-103391167D01*
X116446667Y-103391167D01*
X116848834Y-103391167D01*
X116870000Y-103391167D01*
X117272167Y-103391167D01*
X117293334Y-103391167D01*
X117695500Y-103391167D01*
X117716667Y-103391167D01*
X117716667Y-102967833D01*
X117695500Y-102967833D01*
X117695500Y-103370000D01*
X117293334Y-103370000D01*
X117293334Y-102967833D01*
X117272167Y-102967833D01*
X117272167Y-103370000D01*
X116870000Y-103370000D01*
X116870000Y-102967833D01*
X116848834Y-102967833D01*
X116848834Y-103370000D01*
X116446667Y-103370000D01*
X116446667Y-102967833D01*
X116425500Y-102967833D01*
X116425500Y-103370000D01*
X116023334Y-103370000D01*
X116023334Y-102967833D01*
X116002167Y-102967833D01*
X116002167Y-103370000D01*
X115621167Y-103370000D01*
X115578834Y-103370000D01*
X115377750Y-103370000D01*
X115283374Y-103369108D01*
X115223721Y-103365530D01*
X115197617Y-103359417D01*
X115155500Y-103359417D01*
X115144917Y-103370000D01*
X115134334Y-103359417D01*
X115144917Y-103348833D01*
X115155500Y-103359417D01*
X115197617Y-103359417D01*
X115191202Y-103357915D01*
X115178228Y-103344909D01*
X115176667Y-103334162D01*
X115184506Y-103298830D01*
X115205353Y-103236407D01*
X115235202Y-103158570D01*
X115245459Y-103133612D01*
X115303177Y-102995411D01*
X115155500Y-102995411D01*
X115146727Y-103025796D01*
X115123251Y-103083792D01*
X115089345Y-103159166D01*
X115071595Y-103196494D01*
X114987690Y-103370000D01*
X114753334Y-103370000D01*
X114753334Y-102967833D01*
X114732167Y-102967833D01*
X114732167Y-103370000D01*
X114330000Y-103370000D01*
X114330000Y-102967833D01*
X114287667Y-102967833D01*
X114287667Y-103370000D01*
X114080286Y-103370000D01*
X114069354Y-103348833D01*
X113927834Y-103348833D01*
X113920612Y-103369450D01*
X113918500Y-103370000D01*
X113900428Y-103355168D01*
X113896084Y-103348833D01*
X113897762Y-103329328D01*
X113905418Y-103327667D01*
X113926972Y-103343032D01*
X113927834Y-103348833D01*
X114069354Y-103348833D01*
X114048717Y-103308876D01*
X113864334Y-103308876D01*
X113864334Y-103370000D01*
X113483334Y-103370000D01*
X113483334Y-102967833D01*
X113733344Y-102967833D01*
X113798839Y-103107793D01*
X113831703Y-103186329D01*
X113855210Y-103258356D01*
X113864332Y-103308437D01*
X113864334Y-103308876D01*
X114048717Y-103308876D01*
X113982893Y-103181429D01*
X113941840Y-103100769D01*
X113909334Y-103034670D01*
X113889554Y-102991759D01*
X113885500Y-102980346D01*
X113905133Y-102974969D01*
X113957902Y-102970750D01*
X114034615Y-102968260D01*
X114086584Y-102967833D01*
X114287667Y-102967833D01*
X114330000Y-102967833D01*
X114732167Y-102967833D01*
X114753334Y-102967833D01*
X114954417Y-102967833D01*
X115053838Y-102969393D01*
X115116659Y-102974588D01*
X115148518Y-102984192D01*
X115155500Y-102995411D01*
X115303177Y-102995411D01*
X115314250Y-102968899D01*
X115578834Y-102967833D01*
X115578834Y-103370000D01*
X115621167Y-103370000D01*
X115621167Y-102967833D01*
X116002167Y-102967833D01*
X116023334Y-102967833D01*
X116425500Y-102967833D01*
X116446667Y-102967833D01*
X116848834Y-102967833D01*
X116870000Y-102967833D01*
X117272167Y-102967833D01*
X117293334Y-102967833D01*
X117695500Y-102967833D01*
X117716667Y-102967833D01*
X117716667Y-102544500D01*
X117695500Y-102544500D01*
X117695500Y-102946667D01*
X117293334Y-102946667D01*
X117293334Y-102544500D01*
X117272167Y-102544500D01*
X117272167Y-102946667D01*
X116870000Y-102946667D01*
X116870000Y-102544500D01*
X116848834Y-102544500D01*
X116848834Y-102946667D01*
X116446667Y-102946667D01*
X116446667Y-102544500D01*
X116425500Y-102544500D01*
X116425500Y-102946667D01*
X116023334Y-102946667D01*
X116023334Y-102544500D01*
X116002167Y-102544500D01*
X116002167Y-102946667D01*
X115621167Y-102946667D01*
X115621167Y-102744111D01*
X115578834Y-102744111D01*
X115578834Y-102946667D01*
X115327890Y-102946667D01*
X115407133Y-102750875D01*
X115447263Y-102656364D01*
X115478456Y-102595554D01*
X115504788Y-102561861D01*
X115505576Y-102561455D01*
X115342473Y-102561455D01*
X115331724Y-102587552D01*
X115309021Y-102642826D01*
X115278467Y-102717284D01*
X115264246Y-102751955D01*
X115231770Y-102829051D01*
X115205068Y-102888556D01*
X115188191Y-102921612D01*
X115184871Y-102925500D01*
X115181258Y-102905908D01*
X115178457Y-102853431D01*
X115176874Y-102777513D01*
X115176667Y-102735000D01*
X115176667Y-102544500D01*
X115155500Y-102544500D01*
X115155500Y-102946667D01*
X114753334Y-102946667D01*
X114753334Y-102544500D01*
X114732167Y-102544500D01*
X114732167Y-102946667D01*
X114330000Y-102946667D01*
X114330000Y-102544500D01*
X114287667Y-102544500D01*
X114287667Y-102946667D01*
X113906667Y-102946667D01*
X113906667Y-102544500D01*
X113864334Y-102544500D01*
X113862766Y-102729708D01*
X113861197Y-102914917D01*
X113857669Y-102907254D01*
X113707737Y-102907254D01*
X113700383Y-102933911D01*
X113666888Y-102944645D01*
X113605054Y-102946665D01*
X113601177Y-102946667D01*
X113483334Y-102946667D01*
X113483334Y-102745583D01*
X113484027Y-102651982D01*
X113487162Y-102592891D01*
X113494320Y-102560496D01*
X113507082Y-102546981D01*
X113524026Y-102544500D01*
X113559488Y-102561552D01*
X113587671Y-102615761D01*
X113590390Y-102623875D01*
X113618640Y-102700026D01*
X113651594Y-102774855D01*
X113652816Y-102777333D01*
X113691148Y-102857464D01*
X113707737Y-102907254D01*
X113857669Y-102907254D01*
X113798932Y-102779687D01*
X113765461Y-102703806D01*
X113738429Y-102636750D01*
X113724122Y-102594479D01*
X113720063Y-102561384D01*
X113737497Y-102547407D01*
X113786701Y-102544500D01*
X113864334Y-102544500D01*
X113906667Y-102544500D01*
X114287667Y-102544500D01*
X114330000Y-102544500D01*
X114732167Y-102544500D01*
X114753334Y-102544500D01*
X115155500Y-102544500D01*
X115176667Y-102544500D01*
X115263098Y-102544500D01*
X115314869Y-102548129D01*
X115341499Y-102557232D01*
X115342473Y-102561455D01*
X115505576Y-102561455D01*
X115530337Y-102548702D01*
X115532605Y-102548319D01*
X115553962Y-102547215D01*
X115567465Y-102556550D01*
X115574912Y-102583935D01*
X115578100Y-102636982D01*
X115578826Y-102723303D01*
X115578834Y-102744111D01*
X115621167Y-102744111D01*
X115621167Y-102544500D01*
X116002167Y-102544500D01*
X116023334Y-102544500D01*
X116425500Y-102544500D01*
X116446667Y-102544500D01*
X116848834Y-102544500D01*
X116870000Y-102544500D01*
X117272167Y-102544500D01*
X117293334Y-102544500D01*
X117695500Y-102544500D01*
X117716667Y-102544500D01*
X117716667Y-102335098D01*
X117695500Y-102335098D01*
X117695500Y-102523333D01*
X117293334Y-102523333D01*
X117293334Y-102121167D01*
X117272167Y-102121167D01*
X117272167Y-102523333D01*
X116870000Y-102523333D01*
X116870000Y-102121167D01*
X116848834Y-102121167D01*
X116848834Y-102523333D01*
X116446667Y-102523333D01*
X116446667Y-102121167D01*
X116425500Y-102121167D01*
X116425500Y-102523333D01*
X116023334Y-102523333D01*
X116023334Y-102121167D01*
X116002167Y-102121167D01*
X116002167Y-102523333D01*
X115621167Y-102523333D01*
X115621356Y-102422792D01*
X115577224Y-102422792D01*
X115574681Y-102487111D01*
X115562764Y-102517696D01*
X115547084Y-102523333D01*
X115519907Y-102509259D01*
X115516944Y-102496875D01*
X115525216Y-102460635D01*
X115543451Y-102405946D01*
X115547084Y-102396333D01*
X115575613Y-102322250D01*
X115577224Y-102422792D01*
X115621356Y-102422792D01*
X115621456Y-102369875D01*
X115622284Y-102264165D01*
X115628177Y-102193658D01*
X115644957Y-102151229D01*
X115678446Y-102129753D01*
X115734467Y-102122107D01*
X115818663Y-102121167D01*
X115514716Y-102121167D01*
X115470311Y-102232292D01*
X115437615Y-102315086D01*
X115405034Y-102399088D01*
X115391971Y-102433375D01*
X115368411Y-102488773D01*
X115343213Y-102514956D01*
X115301256Y-102522841D01*
X115267352Y-102523333D01*
X115176667Y-102523333D01*
X115176667Y-102121167D01*
X115155500Y-102121167D01*
X115155500Y-102523333D01*
X114753334Y-102523333D01*
X114753334Y-102121167D01*
X114732167Y-102121167D01*
X114732167Y-102523333D01*
X114330000Y-102523333D01*
X114330000Y-102121167D01*
X114287667Y-102121167D01*
X114287667Y-102523333D01*
X113906667Y-102523333D01*
X113906667Y-102121167D01*
X113864334Y-102121167D01*
X113864334Y-102525767D01*
X113775796Y-102519259D01*
X113718286Y-102515031D01*
X113544133Y-102515031D01*
X113532750Y-102522787D01*
X113515084Y-102523333D01*
X113492599Y-102508850D01*
X113484307Y-102461260D01*
X113484162Y-102443958D01*
X113484991Y-102364583D01*
X113515912Y-102435805D01*
X113538487Y-102489558D01*
X113544133Y-102515031D01*
X113718286Y-102515031D01*
X113687258Y-102512750D01*
X113617078Y-102332833D01*
X113586118Y-102251832D01*
X113562128Y-102185967D01*
X113548609Y-102144996D01*
X113546866Y-102137042D01*
X113566287Y-102129453D01*
X113617690Y-102123840D01*
X113690734Y-102121236D01*
X113705584Y-102121167D01*
X113864334Y-102121167D01*
X113906667Y-102121167D01*
X114287667Y-102121167D01*
X114330000Y-102121167D01*
X114732167Y-102121167D01*
X114753334Y-102121167D01*
X115155500Y-102121167D01*
X115176667Y-102121167D01*
X115514716Y-102121167D01*
X115818663Y-102121167D01*
X115818843Y-102121165D01*
X115824719Y-102121167D01*
X116002167Y-102121167D01*
X116023334Y-102121167D01*
X116425500Y-102121167D01*
X116446667Y-102121167D01*
X116848834Y-102121167D01*
X116870000Y-102121167D01*
X117272167Y-102121167D01*
X117293334Y-102121167D01*
X117460936Y-102121167D01*
X117563078Y-102121702D01*
X117630231Y-102127764D01*
X117669722Y-102146036D01*
X117688879Y-102183202D01*
X117695030Y-102245943D01*
X117695500Y-102335098D01*
X117716667Y-102335098D01*
X117716667Y-102121167D01*
X117876666Y-102121167D01*
X117962173Y-102118615D01*
X118012200Y-102111285D01*
X118023584Y-102100000D01*
X117996887Y-102088574D01*
X117941336Y-102080889D01*
X117887220Y-102078833D01*
X117631383Y-102078833D01*
X117293334Y-102078833D01*
X117293334Y-101697833D01*
X117272167Y-101697833D01*
X117272167Y-102078833D01*
X116870000Y-102078833D01*
X116870000Y-101697833D01*
X116848834Y-101697833D01*
X116848834Y-102078833D01*
X116446667Y-102078833D01*
X116446667Y-101697833D01*
X116425500Y-101697833D01*
X116425500Y-102078833D01*
X116023334Y-102078833D01*
X116023334Y-101697833D01*
X116002167Y-101697833D01*
X116002167Y-102078833D01*
X115667422Y-102078833D01*
X115808815Y-101723733D01*
X115656749Y-101723733D01*
X115649346Y-101773115D01*
X115648914Y-101774711D01*
X115632267Y-101835417D01*
X115625125Y-101775273D01*
X115623765Y-101727763D01*
X115630158Y-101702954D01*
X115647758Y-101697833D01*
X115578834Y-101697833D01*
X115578834Y-101821675D01*
X115574770Y-101903080D01*
X115564351Y-101977885D01*
X115555597Y-102012175D01*
X115532359Y-102078833D01*
X115176667Y-102078833D01*
X115176667Y-101697833D01*
X115155500Y-101697833D01*
X115155500Y-102078833D01*
X114753334Y-102078833D01*
X114753334Y-101697833D01*
X114732167Y-101697833D01*
X114732167Y-102078833D01*
X114330000Y-102078833D01*
X114330000Y-101697833D01*
X114287667Y-101697833D01*
X114287667Y-102078833D01*
X113906667Y-102078833D01*
X113906667Y-101697833D01*
X113864334Y-101697833D01*
X113864334Y-102078833D01*
X113483334Y-102078833D01*
X113483334Y-101697833D01*
X113864334Y-101697833D01*
X113906667Y-101697833D01*
X114287667Y-101697833D01*
X114330000Y-101697833D01*
X114732167Y-101697833D01*
X114753334Y-101697833D01*
X115155500Y-101697833D01*
X115176667Y-101697833D01*
X115578834Y-101697833D01*
X115647758Y-101697833D01*
X115649560Y-101697309D01*
X115656749Y-101723733D01*
X115808815Y-101723733D01*
X115819128Y-101697833D01*
X116002167Y-101697833D01*
X116023334Y-101697833D01*
X116425500Y-101697833D01*
X116446667Y-101697833D01*
X116848834Y-101697833D01*
X116870000Y-101697833D01*
X117272167Y-101697833D01*
X117293334Y-101697833D01*
X117386286Y-101697833D01*
X117422977Y-101697297D01*
X117449690Y-101699610D01*
X117470726Y-101710650D01*
X117490389Y-101736298D01*
X117512980Y-101782433D01*
X117542804Y-101854934D01*
X117584162Y-101959681D01*
X117591529Y-101978292D01*
X117631383Y-102078833D01*
X117887220Y-102078833D01*
X117816196Y-102076873D01*
X117775898Y-102068393D01*
X117754799Y-102049493D01*
X117746443Y-102031208D01*
X117742658Y-102000858D01*
X117738670Y-101932577D01*
X117734602Y-101830766D01*
X117732956Y-101777208D01*
X117694750Y-101777208D01*
X117694000Y-101856583D01*
X117663750Y-101803667D01*
X117641180Y-101755960D01*
X117632751Y-101724292D01*
X117649063Y-101700892D01*
X117663750Y-101697833D01*
X117686259Y-101712359D01*
X117694593Y-101760051D01*
X117694750Y-101777208D01*
X117732956Y-101777208D01*
X117730576Y-101699827D01*
X117726715Y-101544161D01*
X117723139Y-101368169D01*
X117721594Y-101274500D01*
X117695500Y-101274500D01*
X117695500Y-101477055D01*
X117694986Y-101570597D01*
X117692300Y-101629398D01*
X117685734Y-101661048D01*
X117673575Y-101673136D01*
X117654112Y-101673253D01*
X117651362Y-101672847D01*
X117641193Y-101667108D01*
X117462667Y-101667108D01*
X117443868Y-101673097D01*
X117396910Y-101676425D01*
X117378000Y-101676667D01*
X117293334Y-101676667D01*
X117293334Y-101482639D01*
X117294130Y-101399165D01*
X117296266Y-101335710D01*
X117299364Y-101301072D01*
X117301288Y-101297430D01*
X117312994Y-101319806D01*
X117336267Y-101370112D01*
X117366427Y-101437626D01*
X117398794Y-101511625D01*
X117428685Y-101581386D01*
X117451421Y-101636187D01*
X117462320Y-101665304D01*
X117462667Y-101667108D01*
X117641193Y-101667108D01*
X117620391Y-101655369D01*
X117587111Y-101608705D01*
X117547589Y-101527204D01*
X117543570Y-101517917D01*
X117499322Y-101415833D01*
X117470817Y-101346884D01*
X117458725Y-101304648D01*
X117463719Y-101282699D01*
X117486470Y-101274613D01*
X117493662Y-101274500D01*
X117272167Y-101274500D01*
X117272167Y-101676667D01*
X116870000Y-101676667D01*
X116870000Y-101274500D01*
X116848834Y-101274500D01*
X116848834Y-101676667D01*
X116446667Y-101676667D01*
X116446667Y-101274500D01*
X116425500Y-101274500D01*
X116425500Y-101676667D01*
X116023334Y-101676667D01*
X116023334Y-101472055D01*
X116002167Y-101472055D01*
X116002167Y-101676667D01*
X115917500Y-101676667D01*
X115864452Y-101675230D01*
X115834975Y-101671641D01*
X115832834Y-101670196D01*
X115840347Y-101647580D01*
X115860023Y-101596477D01*
X115887570Y-101527402D01*
X115918693Y-101450872D01*
X115949101Y-101377404D01*
X115974498Y-101317512D01*
X115985960Y-101292017D01*
X115832834Y-101292017D01*
X115825354Y-101319157D01*
X115805721Y-101373661D01*
X115778148Y-101443852D01*
X115777488Y-101445476D01*
X115746507Y-101521981D01*
X115719762Y-101588748D01*
X115703928Y-101629042D01*
X115677898Y-101665934D01*
X115653441Y-101676667D01*
X115638098Y-101669821D01*
X115628390Y-101644493D01*
X115623162Y-101593492D01*
X115621261Y-101509629D01*
X115621167Y-101475583D01*
X115621167Y-101274500D01*
X115578834Y-101274500D01*
X115578834Y-101676667D01*
X115176667Y-101676667D01*
X115176667Y-101274500D01*
X115155500Y-101274500D01*
X115155500Y-101676667D01*
X114753334Y-101676667D01*
X114753334Y-101274500D01*
X114732167Y-101274500D01*
X114732167Y-101676667D01*
X114330000Y-101676667D01*
X114330000Y-101274500D01*
X114287667Y-101274500D01*
X114287667Y-101676667D01*
X113906667Y-101676667D01*
X113906667Y-101274500D01*
X113864334Y-101274500D01*
X113864334Y-101676667D01*
X113483334Y-101676667D01*
X113483334Y-101274500D01*
X113864334Y-101274500D01*
X113906667Y-101274500D01*
X114287667Y-101274500D01*
X114330000Y-101274500D01*
X114732167Y-101274500D01*
X114753334Y-101274500D01*
X115155500Y-101274500D01*
X115176667Y-101274500D01*
X115578834Y-101274500D01*
X115621167Y-101274500D01*
X115727000Y-101274500D01*
X115787380Y-101277652D01*
X115825699Y-101285710D01*
X115832834Y-101292017D01*
X115985960Y-101292017D01*
X115990593Y-101281714D01*
X115993660Y-101276264D01*
X115997271Y-101291988D01*
X116000121Y-101341446D01*
X116001837Y-101416041D01*
X116002167Y-101472055D01*
X116023334Y-101472055D01*
X116023334Y-101274500D01*
X116425500Y-101274500D01*
X116446667Y-101274500D01*
X116848834Y-101274500D01*
X116870000Y-101274500D01*
X117272167Y-101274500D01*
X117493662Y-101274500D01*
X117527650Y-101273966D01*
X117569024Y-101274500D01*
X117695500Y-101274500D01*
X117721594Y-101274500D01*
X117719972Y-101176253D01*
X117717516Y-100988750D01*
X117715936Y-100851167D01*
X117695500Y-100851167D01*
X117695500Y-101253333D01*
X117429420Y-101253333D01*
X117423250Y-101240820D01*
X117272167Y-101240820D01*
X117252535Y-101246197D01*
X117199766Y-101250417D01*
X117123053Y-101252907D01*
X117071084Y-101253333D01*
X116870000Y-101253333D01*
X116870000Y-100851167D01*
X116848834Y-100851167D01*
X116848834Y-101253333D01*
X116446667Y-101253333D01*
X116446667Y-100851167D01*
X116425500Y-100851167D01*
X116425500Y-101253333D01*
X116224417Y-101253333D01*
X116128798Y-101252231D01*
X116068293Y-101248156D01*
X116035722Y-101239960D01*
X116023905Y-101226490D01*
X116023334Y-101221113D01*
X116032426Y-101188567D01*
X116056713Y-101129160D01*
X116091710Y-101053516D01*
X116108237Y-101020030D01*
X116159882Y-100917312D01*
X115998778Y-100917312D01*
X115977889Y-100980777D01*
X115936056Y-101075617D01*
X115928618Y-101091941D01*
X115855069Y-101253333D01*
X115621167Y-101253333D01*
X115621167Y-100851167D01*
X115578834Y-100851167D01*
X115578834Y-101253333D01*
X115176667Y-101253333D01*
X115176667Y-100851167D01*
X115155500Y-100851167D01*
X115155500Y-101253333D01*
X114753334Y-101253333D01*
X114753334Y-100851167D01*
X114732167Y-100851167D01*
X114732167Y-101253333D01*
X114330000Y-101253333D01*
X114330000Y-100851167D01*
X114287667Y-100851167D01*
X114287667Y-101253333D01*
X113906667Y-101253333D01*
X113906667Y-100851167D01*
X113864334Y-100851167D01*
X113864334Y-101253333D01*
X113483334Y-101253333D01*
X113483334Y-100851167D01*
X113864334Y-100851167D01*
X113906667Y-100851167D01*
X114287667Y-100851167D01*
X114330000Y-100851167D01*
X114732167Y-100851167D01*
X114753334Y-100851167D01*
X115155500Y-100851167D01*
X115176667Y-100851167D01*
X115578834Y-100851167D01*
X115621167Y-100851167D01*
X115811667Y-100851167D01*
X115905167Y-100852150D01*
X115965478Y-100859300D01*
X115995661Y-100878920D01*
X115998778Y-100917312D01*
X116159882Y-100917312D01*
X116193140Y-100851167D01*
X116425500Y-100851167D01*
X116446667Y-100851167D01*
X116848834Y-100851167D01*
X116870000Y-100851167D01*
X117077381Y-100851167D01*
X117174774Y-101039737D01*
X117215828Y-101120397D01*
X117248334Y-101186497D01*
X117268114Y-101229407D01*
X117272167Y-101240820D01*
X117423250Y-101240820D01*
X117361377Y-101115349D01*
X117327135Y-101037281D01*
X117302696Y-100965093D01*
X117293334Y-100914376D01*
X117293334Y-100882917D01*
X117272167Y-100882917D01*
X117267639Y-100911157D01*
X117263848Y-100914667D01*
X117250200Y-100898115D01*
X117243346Y-100882917D01*
X117242906Y-100855661D01*
X117251665Y-100851167D01*
X117269857Y-100868321D01*
X117272167Y-100882917D01*
X117293334Y-100882917D01*
X117293334Y-100851167D01*
X117695500Y-100851167D01*
X117715936Y-100851167D01*
X117711072Y-100427833D01*
X117695500Y-100427833D01*
X117695500Y-100830000D01*
X117293334Y-100830000D01*
X117062534Y-100830000D01*
X116870000Y-100830000D01*
X116870000Y-100710991D01*
X116870319Y-100693953D01*
X116848834Y-100693953D01*
X116848834Y-100830000D01*
X116446667Y-100830000D01*
X116446667Y-100667017D01*
X116425500Y-100667017D01*
X116425500Y-100830000D01*
X116319667Y-100830000D01*
X116259288Y-100826823D01*
X116220969Y-100818700D01*
X116213834Y-100812342D01*
X116225042Y-100788598D01*
X116253936Y-100741140D01*
X116293423Y-100680576D01*
X116336410Y-100617515D01*
X116375804Y-100562566D01*
X116404511Y-100526338D01*
X116406532Y-100524142D01*
X116416060Y-100532901D01*
X116422628Y-100578003D01*
X116425449Y-100653514D01*
X116425500Y-100667017D01*
X116446667Y-100667017D01*
X116446667Y-100489173D01*
X116517882Y-100459417D01*
X116610093Y-100442872D01*
X116707941Y-100464174D01*
X116793468Y-100514355D01*
X116824080Y-100543106D01*
X116840787Y-100576941D01*
X116847667Y-100629085D01*
X116848834Y-100693953D01*
X116870319Y-100693953D01*
X116871242Y-100644753D01*
X116876762Y-100613490D01*
X116889258Y-100609873D01*
X116903537Y-100619816D01*
X116934789Y-100653086D01*
X116976828Y-100706645D01*
X116999804Y-100738824D01*
X117062534Y-100830000D01*
X117293334Y-100830000D01*
X117293334Y-100427833D01*
X117272167Y-100427833D01*
X117272167Y-100628917D01*
X117269965Y-100735119D01*
X117261622Y-100800352D01*
X117244534Y-100825830D01*
X117216096Y-100812770D01*
X117173702Y-100762386D01*
X117128076Y-100696156D01*
X117076864Y-100622864D01*
X117026518Y-100557451D01*
X116987626Y-100513647D01*
X116986470Y-100512550D01*
X116950646Y-100474263D01*
X116933706Y-100447043D01*
X116933500Y-100445310D01*
X116950496Y-100438233D01*
X116298500Y-100438233D01*
X116286664Y-100459261D01*
X116255944Y-100503266D01*
X116221591Y-100549358D01*
X116169630Y-100623337D01*
X116121545Y-100701458D01*
X116100956Y-100740042D01*
X116071957Y-100792981D01*
X116047948Y-100825314D01*
X116040283Y-100830000D01*
X116033000Y-100810369D01*
X116027285Y-100757604D01*
X116023912Y-100680896D01*
X116023334Y-100628917D01*
X116023334Y-100427833D01*
X116002167Y-100427833D01*
X116002167Y-100830000D01*
X115621167Y-100830000D01*
X115621167Y-100427833D01*
X115578834Y-100427833D01*
X115578834Y-100830000D01*
X115176667Y-100830000D01*
X115176667Y-100427833D01*
X115155500Y-100427833D01*
X115155500Y-100830000D01*
X114753334Y-100830000D01*
X114753334Y-100427833D01*
X114732167Y-100427833D01*
X114732167Y-100830000D01*
X114330000Y-100830000D01*
X114330000Y-100427833D01*
X114287667Y-100427833D01*
X114287667Y-100830000D01*
X113906667Y-100830000D01*
X113906667Y-100427833D01*
X113864334Y-100427833D01*
X113864334Y-100830000D01*
X113483334Y-100830000D01*
X113483334Y-100427833D01*
X113864334Y-100427833D01*
X113906667Y-100427833D01*
X114287667Y-100427833D01*
X114330000Y-100427833D01*
X114732167Y-100427833D01*
X114753334Y-100427833D01*
X115155500Y-100427833D01*
X115176667Y-100427833D01*
X115578834Y-100427833D01*
X115621167Y-100427833D01*
X116002167Y-100427833D01*
X116023334Y-100427833D01*
X116160917Y-100427833D01*
X116230991Y-100429293D01*
X116280547Y-100433112D01*
X116298500Y-100438233D01*
X116950496Y-100438233D01*
X116952992Y-100437194D01*
X117004791Y-100431082D01*
X117078883Y-100428009D01*
X117102834Y-100427833D01*
X117272167Y-100427833D01*
X117293334Y-100427833D01*
X117695500Y-100427833D01*
X117711072Y-100427833D01*
X117710828Y-100406667D01*
X117697089Y-100406667D01*
X117293334Y-100406667D01*
X117273756Y-100406667D01*
X116870000Y-100406667D01*
X116870000Y-100004500D01*
X116848834Y-100004500D01*
X116848834Y-100386587D01*
X116787556Y-100354899D01*
X116723506Y-100329744D01*
X116650330Y-100311280D01*
X116644681Y-100310338D01*
X116574512Y-100307524D01*
X116510935Y-100317678D01*
X116504875Y-100319792D01*
X116446667Y-100342119D01*
X116446667Y-100004500D01*
X116425500Y-100004500D01*
X116425500Y-100176791D01*
X116422998Y-100275665D01*
X116410670Y-100340996D01*
X116381284Y-100379745D01*
X116327611Y-100398873D01*
X116242419Y-100405340D01*
X116187375Y-100405993D01*
X116023334Y-100406667D01*
X116023334Y-100004500D01*
X116002167Y-100004500D01*
X116002167Y-100406667D01*
X115621167Y-100406667D01*
X115621167Y-100004500D01*
X115578834Y-100004500D01*
X115578834Y-100406667D01*
X115176667Y-100406667D01*
X115155500Y-100406667D01*
X114751745Y-100406667D01*
X114732167Y-100406667D01*
X114328412Y-100406667D01*
X114340584Y-100015083D01*
X114536375Y-100008997D01*
X114681047Y-100004500D01*
X114287667Y-100004500D01*
X114287667Y-100406667D01*
X113906667Y-100406667D01*
X113906667Y-100004500D01*
X113864334Y-100004500D01*
X113864334Y-100406667D01*
X113483334Y-100406667D01*
X113483334Y-100004500D01*
X113864334Y-100004500D01*
X113906667Y-100004500D01*
X114287667Y-100004500D01*
X114681047Y-100004500D01*
X114732167Y-100002911D01*
X114732167Y-100406667D01*
X114751745Y-100406667D01*
X114763917Y-100015083D01*
X114959709Y-100008997D01*
X115155500Y-100002911D01*
X115155500Y-100406667D01*
X115176667Y-100406667D01*
X115176667Y-100004500D01*
X115578834Y-100004500D01*
X115621167Y-100004500D01*
X116002167Y-100004500D01*
X116023334Y-100004500D01*
X116425500Y-100004500D01*
X116446667Y-100004500D01*
X116848834Y-100004500D01*
X116870000Y-100004500D01*
X116870000Y-100002911D01*
X117261584Y-100015083D01*
X117273756Y-100406667D01*
X117293334Y-100406667D01*
X117293334Y-100002911D01*
X117489125Y-100008997D01*
X117684917Y-100015083D01*
X117697089Y-100406667D01*
X117710828Y-100406667D01*
X117706084Y-99993917D01*
X116663625Y-99988425D01*
X115621167Y-99982934D01*
X115621167Y-99834967D01*
X115618367Y-99759037D01*
X115610863Y-99706580D01*
X115600002Y-99687000D01*
X115600000Y-99687000D01*
X115589139Y-99706575D01*
X115589139Y-99706575D01*
G37*
X115589139Y-99706575D02*
X115581635Y-99759030D01*
X115578834Y-99834958D01*
X115578834Y-99982942D01*
X114515209Y-99988429D01*
X113451584Y-99993917D01*
X113440602Y-102078833D01*
X113313801Y-102078833D01*
X113246235Y-102082051D01*
X113200436Y-102090455D01*
X113187000Y-102100000D01*
X113206106Y-102111746D01*
X113255254Y-102119432D01*
X113299889Y-102121167D01*
X113375663Y-102126132D01*
X113414761Y-102140501D01*
X113419124Y-102147625D01*
X113420650Y-102173499D01*
X113422582Y-102237494D01*
X113424841Y-102335400D01*
X113427351Y-102463008D01*
X113430034Y-102616108D01*
X113432812Y-102790489D01*
X113435607Y-102981943D01*
X113438343Y-103186260D01*
X113438526Y-103200667D01*
X113451584Y-104227250D01*
X114515209Y-104232737D01*
X115578834Y-104238225D01*
X115578834Y-104375612D01*
X115581828Y-104447431D01*
X115589759Y-104496592D01*
X115600000Y-104513000D01*
X115611061Y-104493560D01*
X115618634Y-104442065D01*
X115621167Y-104375417D01*
X115621167Y-104237833D01*
X117716667Y-104237833D01*
X117716667Y-104218255D01*
X115155500Y-104218255D01*
X114959709Y-104212169D01*
X114763917Y-104206083D01*
X114757675Y-104051495D01*
X114758354Y-103951890D01*
X114769340Y-103905048D01*
X114732167Y-103905048D01*
X114732167Y-104218255D01*
X114536375Y-104212169D01*
X114340584Y-104206083D01*
X114334355Y-104039417D01*
X114332019Y-103956569D01*
X114333764Y-103908339D01*
X114341202Y-103887084D01*
X114355944Y-103885162D01*
X114366105Y-103888870D01*
X114486853Y-103928908D01*
X114590001Y-103937328D01*
X114647500Y-103927647D01*
X114732167Y-103905048D01*
X114769340Y-103905048D01*
X114774132Y-103884618D01*
X114811349Y-103843549D01*
X114876346Y-103822551D01*
X114975464Y-103815493D01*
X115002042Y-103815204D01*
X115155500Y-103814500D01*
X114287667Y-103814500D01*
X114287667Y-104216667D01*
X113906667Y-104216667D01*
X113906667Y-103814500D01*
X113864334Y-103814500D01*
X113864334Y-104216667D01*
X113483334Y-104216667D01*
X113483334Y-103814500D01*
X113864334Y-103814500D01*
X113906667Y-103814500D01*
X114287667Y-103814500D01*
X115155500Y-103814500D01*
X115155500Y-104218255D01*
X117716667Y-104218255D01*
X117716667Y-103814500D01*
X117695500Y-103814500D01*
X117695500Y-104001472D01*
X117693999Y-104086650D01*
X117689986Y-104154995D01*
X117684201Y-104195991D01*
X117681389Y-104202555D01*
X117655179Y-104208871D01*
X117597157Y-104213726D01*
X117517839Y-104216383D01*
X117480306Y-104216667D01*
X117293334Y-104216667D01*
X117293334Y-103814500D01*
X117272167Y-103814500D01*
X117272167Y-104001472D01*
X117270666Y-104086650D01*
X117266653Y-104154995D01*
X117260867Y-104195991D01*
X117258056Y-104202555D01*
X117231846Y-104208871D01*
X117173824Y-104213726D01*
X117094506Y-104216383D01*
X117056973Y-104216667D01*
X116870000Y-104216667D01*
X116870000Y-103814500D01*
X116848834Y-103814500D01*
X116848834Y-104216667D01*
X116446667Y-104216667D01*
X116446667Y-103814500D01*
X116425500Y-103814500D01*
X116425500Y-104216667D01*
X116023334Y-104216667D01*
X116023334Y-103814500D01*
X116002167Y-103814500D01*
X116002167Y-104216667D01*
X115621167Y-104216667D01*
X115621167Y-103814500D01*
X115578834Y-103814500D01*
X115578834Y-104216667D01*
X115176667Y-104216667D01*
X115176667Y-103814500D01*
X115578834Y-103814500D01*
X115621167Y-103814500D01*
X116002167Y-103814500D01*
X116023334Y-103814500D01*
X116425500Y-103814500D01*
X116446667Y-103814500D01*
X116848834Y-103814500D01*
X116870000Y-103814500D01*
X117272167Y-103814500D01*
X117293334Y-103814500D01*
X117695500Y-103814500D01*
X117716667Y-103814500D01*
X117716667Y-103391167D01*
X117695500Y-103391167D01*
X117695500Y-103793333D01*
X117293334Y-103793333D01*
X117293334Y-103391167D01*
X117272167Y-103391167D01*
X117272167Y-103793333D01*
X116870000Y-103793333D01*
X116870000Y-103391167D01*
X116848834Y-103391167D01*
X116848834Y-103793333D01*
X116446667Y-103793333D01*
X116446667Y-103391167D01*
X116425500Y-103391167D01*
X116425500Y-103793333D01*
X116023334Y-103793333D01*
X116023334Y-103391167D01*
X116002167Y-103391167D01*
X116002167Y-103793333D01*
X115621167Y-103793333D01*
X115621167Y-103391167D01*
X115578834Y-103391167D01*
X115578834Y-103793333D01*
X115176667Y-103793333D01*
X115176667Y-103592250D01*
X115155500Y-103592250D01*
X115155500Y-103793333D01*
X114880007Y-103793333D01*
X114225344Y-103793333D01*
X113906667Y-103793333D01*
X113906667Y-103592250D01*
X113909002Y-103486773D01*
X113916591Y-103421734D01*
X113930311Y-103395463D01*
X113951041Y-103406291D01*
X113979655Y-103452549D01*
X113979867Y-103452957D01*
X114008029Y-103499269D01*
X114053600Y-103565822D01*
X114107669Y-103639700D01*
X114118582Y-103654041D01*
X114225344Y-103793333D01*
X114880007Y-103793333D01*
X114962851Y-103671625D01*
X115012072Y-103595696D01*
X115056807Y-103520566D01*
X115083352Y-103470542D01*
X115110527Y-103421191D01*
X115121103Y-103408189D01*
X114965000Y-103408189D01*
X114953763Y-103438467D01*
X114924725Y-103490004D01*
X114884901Y-103552486D01*
X114841304Y-103615602D01*
X114800949Y-103669039D01*
X114770849Y-103702485D01*
X114760637Y-103708667D01*
X114757146Y-103689225D01*
X114754563Y-103637800D01*
X114753366Y-103564737D01*
X114753334Y-103549917D01*
X114753334Y-103391167D01*
X114732167Y-103391167D01*
X114732167Y-103570031D01*
X114730701Y-103661046D01*
X114725194Y-103718775D01*
X114713989Y-103752198D01*
X114695425Y-103770296D01*
X114695125Y-103770471D01*
X114628775Y-103790153D01*
X114543479Y-103790899D01*
X114457469Y-103774022D01*
X114401291Y-103749273D01*
X114364844Y-103725030D01*
X114343581Y-103700725D01*
X114333411Y-103664821D01*
X114330243Y-103605779D01*
X114330000Y-103548190D01*
X114330000Y-103391167D01*
X114287667Y-103391167D01*
X114287667Y-103518167D01*
X114286529Y-103585160D01*
X114283569Y-103631180D01*
X114280151Y-103645167D01*
X114265291Y-103629172D01*
X114233008Y-103586956D01*
X114189881Y-103527167D01*
X114183549Y-103518167D01*
X114094463Y-103391167D01*
X113864334Y-103391167D01*
X113864334Y-103793333D01*
X113483334Y-103793333D01*
X113483334Y-103391167D01*
X113864334Y-103391167D01*
X114094463Y-103391167D01*
X114287667Y-103391167D01*
X114330000Y-103391167D01*
X114732167Y-103391167D01*
X114753334Y-103391167D01*
X114859167Y-103391167D01*
X114919548Y-103394229D01*
X114957866Y-103402061D01*
X114965000Y-103408189D01*
X115121103Y-103408189D01*
X115133128Y-103393406D01*
X115138254Y-103391167D01*
X115145665Y-103410797D01*
X115151480Y-103463562D01*
X115154913Y-103540270D01*
X115155500Y-103592250D01*
X115176667Y-103592250D01*
X115176667Y-103391167D01*
X115578834Y-103391167D01*
X115621167Y-103391167D01*
X116002167Y-103391167D01*
X116023334Y-103391167D01*
X116425500Y-103391167D01*
X116446667Y-103391167D01*
X116848834Y-103391167D01*
X116870000Y-103391167D01*
X117272167Y-103391167D01*
X117293334Y-103391167D01*
X117695500Y-103391167D01*
X117716667Y-103391167D01*
X117716667Y-102967833D01*
X117695500Y-102967833D01*
X117695500Y-103370000D01*
X117293334Y-103370000D01*
X117293334Y-102967833D01*
X117272167Y-102967833D01*
X117272167Y-103370000D01*
X116870000Y-103370000D01*
X116870000Y-102967833D01*
X116848834Y-102967833D01*
X116848834Y-103370000D01*
X116446667Y-103370000D01*
X116446667Y-102967833D01*
X116425500Y-102967833D01*
X116425500Y-103370000D01*
X116023334Y-103370000D01*
X116023334Y-102967833D01*
X116002167Y-102967833D01*
X116002167Y-103370000D01*
X115621167Y-103370000D01*
X115578834Y-103370000D01*
X115377750Y-103370000D01*
X115283374Y-103369108D01*
X115223721Y-103365530D01*
X115197617Y-103359417D01*
X115155500Y-103359417D01*
X115144917Y-103370000D01*
X115134334Y-103359417D01*
X115144917Y-103348833D01*
X115155500Y-103359417D01*
X115197617Y-103359417D01*
X115191202Y-103357915D01*
X115178228Y-103344909D01*
X115176667Y-103334162D01*
X115184506Y-103298830D01*
X115205353Y-103236407D01*
X115235202Y-103158570D01*
X115245459Y-103133612D01*
X115303177Y-102995411D01*
X115155500Y-102995411D01*
X115146727Y-103025796D01*
X115123251Y-103083792D01*
X115089345Y-103159166D01*
X115071595Y-103196494D01*
X114987690Y-103370000D01*
X114753334Y-103370000D01*
X114753334Y-102967833D01*
X114732167Y-102967833D01*
X114732167Y-103370000D01*
X114330000Y-103370000D01*
X114330000Y-102967833D01*
X114287667Y-102967833D01*
X114287667Y-103370000D01*
X114080286Y-103370000D01*
X114069354Y-103348833D01*
X113927834Y-103348833D01*
X113920612Y-103369450D01*
X113918500Y-103370000D01*
X113900428Y-103355168D01*
X113896084Y-103348833D01*
X113897762Y-103329328D01*
X113905418Y-103327667D01*
X113926972Y-103343032D01*
X113927834Y-103348833D01*
X114069354Y-103348833D01*
X114048717Y-103308876D01*
X113864334Y-103308876D01*
X113864334Y-103370000D01*
X113483334Y-103370000D01*
X113483334Y-102967833D01*
X113733344Y-102967833D01*
X113798839Y-103107793D01*
X113831703Y-103186329D01*
X113855210Y-103258356D01*
X113864332Y-103308437D01*
X113864334Y-103308876D01*
X114048717Y-103308876D01*
X113982893Y-103181429D01*
X113941840Y-103100769D01*
X113909334Y-103034670D01*
X113889554Y-102991759D01*
X113885500Y-102980346D01*
X113905133Y-102974969D01*
X113957902Y-102970750D01*
X114034615Y-102968260D01*
X114086584Y-102967833D01*
X114287667Y-102967833D01*
X114330000Y-102967833D01*
X114732167Y-102967833D01*
X114753334Y-102967833D01*
X114954417Y-102967833D01*
X115053838Y-102969393D01*
X115116659Y-102974588D01*
X115148518Y-102984192D01*
X115155500Y-102995411D01*
X115303177Y-102995411D01*
X115314250Y-102968899D01*
X115578834Y-102967833D01*
X115578834Y-103370000D01*
X115621167Y-103370000D01*
X115621167Y-102967833D01*
X116002167Y-102967833D01*
X116023334Y-102967833D01*
X116425500Y-102967833D01*
X116446667Y-102967833D01*
X116848834Y-102967833D01*
X116870000Y-102967833D01*
X117272167Y-102967833D01*
X117293334Y-102967833D01*
X117695500Y-102967833D01*
X117716667Y-102967833D01*
X117716667Y-102544500D01*
X117695500Y-102544500D01*
X117695500Y-102946667D01*
X117293334Y-102946667D01*
X117293334Y-102544500D01*
X117272167Y-102544500D01*
X117272167Y-102946667D01*
X116870000Y-102946667D01*
X116870000Y-102544500D01*
X116848834Y-102544500D01*
X116848834Y-102946667D01*
X116446667Y-102946667D01*
X116446667Y-102544500D01*
X116425500Y-102544500D01*
X116425500Y-102946667D01*
X116023334Y-102946667D01*
X116023334Y-102544500D01*
X116002167Y-102544500D01*
X116002167Y-102946667D01*
X115621167Y-102946667D01*
X115621167Y-102744111D01*
X115578834Y-102744111D01*
X115578834Y-102946667D01*
X115327890Y-102946667D01*
X115407133Y-102750875D01*
X115447263Y-102656364D01*
X115478456Y-102595554D01*
X115504788Y-102561861D01*
X115505576Y-102561455D01*
X115342473Y-102561455D01*
X115331724Y-102587552D01*
X115309021Y-102642826D01*
X115278467Y-102717284D01*
X115264246Y-102751955D01*
X115231770Y-102829051D01*
X115205068Y-102888556D01*
X115188191Y-102921612D01*
X115184871Y-102925500D01*
X115181258Y-102905908D01*
X115178457Y-102853431D01*
X115176874Y-102777513D01*
X115176667Y-102735000D01*
X115176667Y-102544500D01*
X115155500Y-102544500D01*
X115155500Y-102946667D01*
X114753334Y-102946667D01*
X114753334Y-102544500D01*
X114732167Y-102544500D01*
X114732167Y-102946667D01*
X114330000Y-102946667D01*
X114330000Y-102544500D01*
X114287667Y-102544500D01*
X114287667Y-102946667D01*
X113906667Y-102946667D01*
X113906667Y-102544500D01*
X113864334Y-102544500D01*
X113862766Y-102729708D01*
X113861197Y-102914917D01*
X113857669Y-102907254D01*
X113707737Y-102907254D01*
X113700383Y-102933911D01*
X113666888Y-102944645D01*
X113605054Y-102946665D01*
X113601177Y-102946667D01*
X113483334Y-102946667D01*
X113483334Y-102745583D01*
X113484027Y-102651982D01*
X113487162Y-102592891D01*
X113494320Y-102560496D01*
X113507082Y-102546981D01*
X113524026Y-102544500D01*
X113559488Y-102561552D01*
X113587671Y-102615761D01*
X113590390Y-102623875D01*
X113618640Y-102700026D01*
X113651594Y-102774855D01*
X113652816Y-102777333D01*
X113691148Y-102857464D01*
X113707737Y-102907254D01*
X113857669Y-102907254D01*
X113798932Y-102779687D01*
X113765461Y-102703806D01*
X113738429Y-102636750D01*
X113724122Y-102594479D01*
X113720063Y-102561384D01*
X113737497Y-102547407D01*
X113786701Y-102544500D01*
X113864334Y-102544500D01*
X113906667Y-102544500D01*
X114287667Y-102544500D01*
X114330000Y-102544500D01*
X114732167Y-102544500D01*
X114753334Y-102544500D01*
X115155500Y-102544500D01*
X115176667Y-102544500D01*
X115263098Y-102544500D01*
X115314869Y-102548129D01*
X115341499Y-102557232D01*
X115342473Y-102561455D01*
X115505576Y-102561455D01*
X115530337Y-102548702D01*
X115532605Y-102548319D01*
X115553962Y-102547215D01*
X115567465Y-102556550D01*
X115574912Y-102583935D01*
X115578100Y-102636982D01*
X115578826Y-102723303D01*
X115578834Y-102744111D01*
X115621167Y-102744111D01*
X115621167Y-102544500D01*
X116002167Y-102544500D01*
X116023334Y-102544500D01*
X116425500Y-102544500D01*
X116446667Y-102544500D01*
X116848834Y-102544500D01*
X116870000Y-102544500D01*
X117272167Y-102544500D01*
X117293334Y-102544500D01*
X117695500Y-102544500D01*
X117716667Y-102544500D01*
X117716667Y-102335098D01*
X117695500Y-102335098D01*
X117695500Y-102523333D01*
X117293334Y-102523333D01*
X117293334Y-102121167D01*
X117272167Y-102121167D01*
X117272167Y-102523333D01*
X116870000Y-102523333D01*
X116870000Y-102121167D01*
X116848834Y-102121167D01*
X116848834Y-102523333D01*
X116446667Y-102523333D01*
X116446667Y-102121167D01*
X116425500Y-102121167D01*
X116425500Y-102523333D01*
X116023334Y-102523333D01*
X116023334Y-102121167D01*
X116002167Y-102121167D01*
X116002167Y-102523333D01*
X115621167Y-102523333D01*
X115621356Y-102422792D01*
X115577224Y-102422792D01*
X115574681Y-102487111D01*
X115562764Y-102517696D01*
X115547084Y-102523333D01*
X115519907Y-102509259D01*
X115516944Y-102496875D01*
X115525216Y-102460635D01*
X115543451Y-102405946D01*
X115547084Y-102396333D01*
X115575613Y-102322250D01*
X115577224Y-102422792D01*
X115621356Y-102422792D01*
X115621456Y-102369875D01*
X115622284Y-102264165D01*
X115628177Y-102193658D01*
X115644957Y-102151229D01*
X115678446Y-102129753D01*
X115734467Y-102122107D01*
X115818663Y-102121167D01*
X115514716Y-102121167D01*
X115470311Y-102232292D01*
X115437615Y-102315086D01*
X115405034Y-102399088D01*
X115391971Y-102433375D01*
X115368411Y-102488773D01*
X115343213Y-102514956D01*
X115301256Y-102522841D01*
X115267352Y-102523333D01*
X115176667Y-102523333D01*
X115176667Y-102121167D01*
X115155500Y-102121167D01*
X115155500Y-102523333D01*
X114753334Y-102523333D01*
X114753334Y-102121167D01*
X114732167Y-102121167D01*
X114732167Y-102523333D01*
X114330000Y-102523333D01*
X114330000Y-102121167D01*
X114287667Y-102121167D01*
X114287667Y-102523333D01*
X113906667Y-102523333D01*
X113906667Y-102121167D01*
X113864334Y-102121167D01*
X113864334Y-102525767D01*
X113775796Y-102519259D01*
X113718286Y-102515031D01*
X113544133Y-102515031D01*
X113532750Y-102522787D01*
X113515084Y-102523333D01*
X113492599Y-102508850D01*
X113484307Y-102461260D01*
X113484162Y-102443958D01*
X113484991Y-102364583D01*
X113515912Y-102435805D01*
X113538487Y-102489558D01*
X113544133Y-102515031D01*
X113718286Y-102515031D01*
X113687258Y-102512750D01*
X113617078Y-102332833D01*
X113586118Y-102251832D01*
X113562128Y-102185967D01*
X113548609Y-102144996D01*
X113546866Y-102137042D01*
X113566287Y-102129453D01*
X113617690Y-102123840D01*
X113690734Y-102121236D01*
X113705584Y-102121167D01*
X113864334Y-102121167D01*
X113906667Y-102121167D01*
X114287667Y-102121167D01*
X114330000Y-102121167D01*
X114732167Y-102121167D01*
X114753334Y-102121167D01*
X115155500Y-102121167D01*
X115176667Y-102121167D01*
X115514716Y-102121167D01*
X115818663Y-102121167D01*
X115818843Y-102121165D01*
X115824719Y-102121167D01*
X116002167Y-102121167D01*
X116023334Y-102121167D01*
X116425500Y-102121167D01*
X116446667Y-102121167D01*
X116848834Y-102121167D01*
X116870000Y-102121167D01*
X117272167Y-102121167D01*
X117293334Y-102121167D01*
X117460936Y-102121167D01*
X117563078Y-102121702D01*
X117630231Y-102127764D01*
X117669722Y-102146036D01*
X117688879Y-102183202D01*
X117695030Y-102245943D01*
X117695500Y-102335098D01*
X117716667Y-102335098D01*
X117716667Y-102121167D01*
X117876666Y-102121167D01*
X117962173Y-102118615D01*
X118012200Y-102111285D01*
X118023584Y-102100000D01*
X117996887Y-102088574D01*
X117941336Y-102080889D01*
X117887220Y-102078833D01*
X117631383Y-102078833D01*
X117293334Y-102078833D01*
X117293334Y-101697833D01*
X117272167Y-101697833D01*
X117272167Y-102078833D01*
X116870000Y-102078833D01*
X116870000Y-101697833D01*
X116848834Y-101697833D01*
X116848834Y-102078833D01*
X116446667Y-102078833D01*
X116446667Y-101697833D01*
X116425500Y-101697833D01*
X116425500Y-102078833D01*
X116023334Y-102078833D01*
X116023334Y-101697833D01*
X116002167Y-101697833D01*
X116002167Y-102078833D01*
X115667422Y-102078833D01*
X115808815Y-101723733D01*
X115656749Y-101723733D01*
X115649346Y-101773115D01*
X115648914Y-101774711D01*
X115632267Y-101835417D01*
X115625125Y-101775273D01*
X115623765Y-101727763D01*
X115630158Y-101702954D01*
X115647758Y-101697833D01*
X115578834Y-101697833D01*
X115578834Y-101821675D01*
X115574770Y-101903080D01*
X115564351Y-101977885D01*
X115555597Y-102012175D01*
X115532359Y-102078833D01*
X115176667Y-102078833D01*
X115176667Y-101697833D01*
X115155500Y-101697833D01*
X115155500Y-102078833D01*
X114753334Y-102078833D01*
X114753334Y-101697833D01*
X114732167Y-101697833D01*
X114732167Y-102078833D01*
X114330000Y-102078833D01*
X114330000Y-101697833D01*
X114287667Y-101697833D01*
X114287667Y-102078833D01*
X113906667Y-102078833D01*
X113906667Y-101697833D01*
X113864334Y-101697833D01*
X113864334Y-102078833D01*
X113483334Y-102078833D01*
X113483334Y-101697833D01*
X113864334Y-101697833D01*
X113906667Y-101697833D01*
X114287667Y-101697833D01*
X114330000Y-101697833D01*
X114732167Y-101697833D01*
X114753334Y-101697833D01*
X115155500Y-101697833D01*
X115176667Y-101697833D01*
X115578834Y-101697833D01*
X115647758Y-101697833D01*
X115649560Y-101697309D01*
X115656749Y-101723733D01*
X115808815Y-101723733D01*
X115819128Y-101697833D01*
X116002167Y-101697833D01*
X116023334Y-101697833D01*
X116425500Y-101697833D01*
X116446667Y-101697833D01*
X116848834Y-101697833D01*
X116870000Y-101697833D01*
X117272167Y-101697833D01*
X117293334Y-101697833D01*
X117386286Y-101697833D01*
X117422977Y-101697297D01*
X117449690Y-101699610D01*
X117470726Y-101710650D01*
X117490389Y-101736298D01*
X117512980Y-101782433D01*
X117542804Y-101854934D01*
X117584162Y-101959681D01*
X117591529Y-101978292D01*
X117631383Y-102078833D01*
X117887220Y-102078833D01*
X117816196Y-102076873D01*
X117775898Y-102068393D01*
X117754799Y-102049493D01*
X117746443Y-102031208D01*
X117742658Y-102000858D01*
X117738670Y-101932577D01*
X117734602Y-101830766D01*
X117732956Y-101777208D01*
X117694750Y-101777208D01*
X117694000Y-101856583D01*
X117663750Y-101803667D01*
X117641180Y-101755960D01*
X117632751Y-101724292D01*
X117649063Y-101700892D01*
X117663750Y-101697833D01*
X117686259Y-101712359D01*
X117694593Y-101760051D01*
X117694750Y-101777208D01*
X117732956Y-101777208D01*
X117730576Y-101699827D01*
X117726715Y-101544161D01*
X117723139Y-101368169D01*
X117721594Y-101274500D01*
X117695500Y-101274500D01*
X117695500Y-101477055D01*
X117694986Y-101570597D01*
X117692300Y-101629398D01*
X117685734Y-101661048D01*
X117673575Y-101673136D01*
X117654112Y-101673253D01*
X117651362Y-101672847D01*
X117641193Y-101667108D01*
X117462667Y-101667108D01*
X117443868Y-101673097D01*
X117396910Y-101676425D01*
X117378000Y-101676667D01*
X117293334Y-101676667D01*
X117293334Y-101482639D01*
X117294130Y-101399165D01*
X117296266Y-101335710D01*
X117299364Y-101301072D01*
X117301288Y-101297430D01*
X117312994Y-101319806D01*
X117336267Y-101370112D01*
X117366427Y-101437626D01*
X117398794Y-101511625D01*
X117428685Y-101581386D01*
X117451421Y-101636187D01*
X117462320Y-101665304D01*
X117462667Y-101667108D01*
X117641193Y-101667108D01*
X117620391Y-101655369D01*
X117587111Y-101608705D01*
X117547589Y-101527204D01*
X117543570Y-101517917D01*
X117499322Y-101415833D01*
X117470817Y-101346884D01*
X117458725Y-101304648D01*
X117463719Y-101282699D01*
X117486470Y-101274613D01*
X117493662Y-101274500D01*
X117272167Y-101274500D01*
X117272167Y-101676667D01*
X116870000Y-101676667D01*
X116870000Y-101274500D01*
X116848834Y-101274500D01*
X116848834Y-101676667D01*
X116446667Y-101676667D01*
X116446667Y-101274500D01*
X116425500Y-101274500D01*
X116425500Y-101676667D01*
X116023334Y-101676667D01*
X116023334Y-101472055D01*
X116002167Y-101472055D01*
X116002167Y-101676667D01*
X115917500Y-101676667D01*
X115864452Y-101675230D01*
X115834975Y-101671641D01*
X115832834Y-101670196D01*
X115840347Y-101647580D01*
X115860023Y-101596477D01*
X115887570Y-101527402D01*
X115918693Y-101450872D01*
X115949101Y-101377404D01*
X115974498Y-101317512D01*
X115985960Y-101292017D01*
X115832834Y-101292017D01*
X115825354Y-101319157D01*
X115805721Y-101373661D01*
X115778148Y-101443852D01*
X115777488Y-101445476D01*
X115746507Y-101521981D01*
X115719762Y-101588748D01*
X115703928Y-101629042D01*
X115677898Y-101665934D01*
X115653441Y-101676667D01*
X115638098Y-101669821D01*
X115628390Y-101644493D01*
X115623162Y-101593492D01*
X115621261Y-101509629D01*
X115621167Y-101475583D01*
X115621167Y-101274500D01*
X115578834Y-101274500D01*
X115578834Y-101676667D01*
X115176667Y-101676667D01*
X115176667Y-101274500D01*
X115155500Y-101274500D01*
X115155500Y-101676667D01*
X114753334Y-101676667D01*
X114753334Y-101274500D01*
X114732167Y-101274500D01*
X114732167Y-101676667D01*
X114330000Y-101676667D01*
X114330000Y-101274500D01*
X114287667Y-101274500D01*
X114287667Y-101676667D01*
X113906667Y-101676667D01*
X113906667Y-101274500D01*
X113864334Y-101274500D01*
X113864334Y-101676667D01*
X113483334Y-101676667D01*
X113483334Y-101274500D01*
X113864334Y-101274500D01*
X113906667Y-101274500D01*
X114287667Y-101274500D01*
X114330000Y-101274500D01*
X114732167Y-101274500D01*
X114753334Y-101274500D01*
X115155500Y-101274500D01*
X115176667Y-101274500D01*
X115578834Y-101274500D01*
X115621167Y-101274500D01*
X115727000Y-101274500D01*
X115787380Y-101277652D01*
X115825699Y-101285710D01*
X115832834Y-101292017D01*
X115985960Y-101292017D01*
X115990593Y-101281714D01*
X115993660Y-101276264D01*
X115997271Y-101291988D01*
X116000121Y-101341446D01*
X116001837Y-101416041D01*
X116002167Y-101472055D01*
X116023334Y-101472055D01*
X116023334Y-101274500D01*
X116425500Y-101274500D01*
X116446667Y-101274500D01*
X116848834Y-101274500D01*
X116870000Y-101274500D01*
X117272167Y-101274500D01*
X117493662Y-101274500D01*
X117527650Y-101273966D01*
X117569024Y-101274500D01*
X117695500Y-101274500D01*
X117721594Y-101274500D01*
X117719972Y-101176253D01*
X117717516Y-100988750D01*
X117715936Y-100851167D01*
X117695500Y-100851167D01*
X117695500Y-101253333D01*
X117429420Y-101253333D01*
X117423250Y-101240820D01*
X117272167Y-101240820D01*
X117252535Y-101246197D01*
X117199766Y-101250417D01*
X117123053Y-101252907D01*
X117071084Y-101253333D01*
X116870000Y-101253333D01*
X116870000Y-100851167D01*
X116848834Y-100851167D01*
X116848834Y-101253333D01*
X116446667Y-101253333D01*
X116446667Y-100851167D01*
X116425500Y-100851167D01*
X116425500Y-101253333D01*
X116224417Y-101253333D01*
X116128798Y-101252231D01*
X116068293Y-101248156D01*
X116035722Y-101239960D01*
X116023905Y-101226490D01*
X116023334Y-101221113D01*
X116032426Y-101188567D01*
X116056713Y-101129160D01*
X116091710Y-101053516D01*
X116108237Y-101020030D01*
X116159882Y-100917312D01*
X115998778Y-100917312D01*
X115977889Y-100980777D01*
X115936056Y-101075617D01*
X115928618Y-101091941D01*
X115855069Y-101253333D01*
X115621167Y-101253333D01*
X115621167Y-100851167D01*
X115578834Y-100851167D01*
X115578834Y-101253333D01*
X115176667Y-101253333D01*
X115176667Y-100851167D01*
X115155500Y-100851167D01*
X115155500Y-101253333D01*
X114753334Y-101253333D01*
X114753334Y-100851167D01*
X114732167Y-100851167D01*
X114732167Y-101253333D01*
X114330000Y-101253333D01*
X114330000Y-100851167D01*
X114287667Y-100851167D01*
X114287667Y-101253333D01*
X113906667Y-101253333D01*
X113906667Y-100851167D01*
X113864334Y-100851167D01*
X113864334Y-101253333D01*
X113483334Y-101253333D01*
X113483334Y-100851167D01*
X113864334Y-100851167D01*
X113906667Y-100851167D01*
X114287667Y-100851167D01*
X114330000Y-100851167D01*
X114732167Y-100851167D01*
X114753334Y-100851167D01*
X115155500Y-100851167D01*
X115176667Y-100851167D01*
X115578834Y-100851167D01*
X115621167Y-100851167D01*
X115811667Y-100851167D01*
X115905167Y-100852150D01*
X115965478Y-100859300D01*
X115995661Y-100878920D01*
X115998778Y-100917312D01*
X116159882Y-100917312D01*
X116193140Y-100851167D01*
X116425500Y-100851167D01*
X116446667Y-100851167D01*
X116848834Y-100851167D01*
X116870000Y-100851167D01*
X117077381Y-100851167D01*
X117174774Y-101039737D01*
X117215828Y-101120397D01*
X117248334Y-101186497D01*
X117268114Y-101229407D01*
X117272167Y-101240820D01*
X117423250Y-101240820D01*
X117361377Y-101115349D01*
X117327135Y-101037281D01*
X117302696Y-100965093D01*
X117293334Y-100914376D01*
X117293334Y-100882917D01*
X117272167Y-100882917D01*
X117267639Y-100911157D01*
X117263848Y-100914667D01*
X117250200Y-100898115D01*
X117243346Y-100882917D01*
X117242906Y-100855661D01*
X117251665Y-100851167D01*
X117269857Y-100868321D01*
X117272167Y-100882917D01*
X117293334Y-100882917D01*
X117293334Y-100851167D01*
X117695500Y-100851167D01*
X117715936Y-100851167D01*
X117711072Y-100427833D01*
X117695500Y-100427833D01*
X117695500Y-100830000D01*
X117293334Y-100830000D01*
X117062534Y-100830000D01*
X116870000Y-100830000D01*
X116870000Y-100710991D01*
X116870319Y-100693953D01*
X116848834Y-100693953D01*
X116848834Y-100830000D01*
X116446667Y-100830000D01*
X116446667Y-100667017D01*
X116425500Y-100667017D01*
X116425500Y-100830000D01*
X116319667Y-100830000D01*
X116259288Y-100826823D01*
X116220969Y-100818700D01*
X116213834Y-100812342D01*
X116225042Y-100788598D01*
X116253936Y-100741140D01*
X116293423Y-100680576D01*
X116336410Y-100617515D01*
X116375804Y-100562566D01*
X116404511Y-100526338D01*
X116406532Y-100524142D01*
X116416060Y-100532901D01*
X116422628Y-100578003D01*
X116425449Y-100653514D01*
X116425500Y-100667017D01*
X116446667Y-100667017D01*
X116446667Y-100489173D01*
X116517882Y-100459417D01*
X116610093Y-100442872D01*
X116707941Y-100464174D01*
X116793468Y-100514355D01*
X116824080Y-100543106D01*
X116840787Y-100576941D01*
X116847667Y-100629085D01*
X116848834Y-100693953D01*
X116870319Y-100693953D01*
X116871242Y-100644753D01*
X116876762Y-100613490D01*
X116889258Y-100609873D01*
X116903537Y-100619816D01*
X116934789Y-100653086D01*
X116976828Y-100706645D01*
X116999804Y-100738824D01*
X117062534Y-100830000D01*
X117293334Y-100830000D01*
X117293334Y-100427833D01*
X117272167Y-100427833D01*
X117272167Y-100628917D01*
X117269965Y-100735119D01*
X117261622Y-100800352D01*
X117244534Y-100825830D01*
X117216096Y-100812770D01*
X117173702Y-100762386D01*
X117128076Y-100696156D01*
X117076864Y-100622864D01*
X117026518Y-100557451D01*
X116987626Y-100513647D01*
X116986470Y-100512550D01*
X116950646Y-100474263D01*
X116933706Y-100447043D01*
X116933500Y-100445310D01*
X116950496Y-100438233D01*
X116298500Y-100438233D01*
X116286664Y-100459261D01*
X116255944Y-100503266D01*
X116221591Y-100549358D01*
X116169630Y-100623337D01*
X116121545Y-100701458D01*
X116100956Y-100740042D01*
X116071957Y-100792981D01*
X116047948Y-100825314D01*
X116040283Y-100830000D01*
X116033000Y-100810369D01*
X116027285Y-100757604D01*
X116023912Y-100680896D01*
X116023334Y-100628917D01*
X116023334Y-100427833D01*
X116002167Y-100427833D01*
X116002167Y-100830000D01*
X115621167Y-100830000D01*
X115621167Y-100427833D01*
X115578834Y-100427833D01*
X115578834Y-100830000D01*
X115176667Y-100830000D01*
X115176667Y-100427833D01*
X115155500Y-100427833D01*
X115155500Y-100830000D01*
X114753334Y-100830000D01*
X114753334Y-100427833D01*
X114732167Y-100427833D01*
X114732167Y-100830000D01*
X114330000Y-100830000D01*
X114330000Y-100427833D01*
X114287667Y-100427833D01*
X114287667Y-100830000D01*
X113906667Y-100830000D01*
X113906667Y-100427833D01*
X113864334Y-100427833D01*
X113864334Y-100830000D01*
X113483334Y-100830000D01*
X113483334Y-100427833D01*
X113864334Y-100427833D01*
X113906667Y-100427833D01*
X114287667Y-100427833D01*
X114330000Y-100427833D01*
X114732167Y-100427833D01*
X114753334Y-100427833D01*
X115155500Y-100427833D01*
X115176667Y-100427833D01*
X115578834Y-100427833D01*
X115621167Y-100427833D01*
X116002167Y-100427833D01*
X116023334Y-100427833D01*
X116160917Y-100427833D01*
X116230991Y-100429293D01*
X116280547Y-100433112D01*
X116298500Y-100438233D01*
X116950496Y-100438233D01*
X116952992Y-100437194D01*
X117004791Y-100431082D01*
X117078883Y-100428009D01*
X117102834Y-100427833D01*
X117272167Y-100427833D01*
X117293334Y-100427833D01*
X117695500Y-100427833D01*
X117711072Y-100427833D01*
X117710828Y-100406667D01*
X117697089Y-100406667D01*
X117293334Y-100406667D01*
X117273756Y-100406667D01*
X116870000Y-100406667D01*
X116870000Y-100004500D01*
X116848834Y-100004500D01*
X116848834Y-100386587D01*
X116787556Y-100354899D01*
X116723506Y-100329744D01*
X116650330Y-100311280D01*
X116644681Y-100310338D01*
X116574512Y-100307524D01*
X116510935Y-100317678D01*
X116504875Y-100319792D01*
X116446667Y-100342119D01*
X116446667Y-100004500D01*
X116425500Y-100004500D01*
X116425500Y-100176791D01*
X116422998Y-100275665D01*
X116410670Y-100340996D01*
X116381284Y-100379745D01*
X116327611Y-100398873D01*
X116242419Y-100405340D01*
X116187375Y-100405993D01*
X116023334Y-100406667D01*
X116023334Y-100004500D01*
X116002167Y-100004500D01*
X116002167Y-100406667D01*
X115621167Y-100406667D01*
X115621167Y-100004500D01*
X115578834Y-100004500D01*
X115578834Y-100406667D01*
X115176667Y-100406667D01*
X115155500Y-100406667D01*
X114751745Y-100406667D01*
X114732167Y-100406667D01*
X114328412Y-100406667D01*
X114340584Y-100015083D01*
X114536375Y-100008997D01*
X114681047Y-100004500D01*
X114287667Y-100004500D01*
X114287667Y-100406667D01*
X113906667Y-100406667D01*
X113906667Y-100004500D01*
X113864334Y-100004500D01*
X113864334Y-100406667D01*
X113483334Y-100406667D01*
X113483334Y-100004500D01*
X113864334Y-100004500D01*
X113906667Y-100004500D01*
X114287667Y-100004500D01*
X114681047Y-100004500D01*
X114732167Y-100002911D01*
X114732167Y-100406667D01*
X114751745Y-100406667D01*
X114763917Y-100015083D01*
X114959709Y-100008997D01*
X115155500Y-100002911D01*
X115155500Y-100406667D01*
X115176667Y-100406667D01*
X115176667Y-100004500D01*
X115578834Y-100004500D01*
X115621167Y-100004500D01*
X116002167Y-100004500D01*
X116023334Y-100004500D01*
X116425500Y-100004500D01*
X116446667Y-100004500D01*
X116848834Y-100004500D01*
X116870000Y-100004500D01*
X116870000Y-100002911D01*
X117261584Y-100015083D01*
X117273756Y-100406667D01*
X117293334Y-100406667D01*
X117293334Y-100002911D01*
X117489125Y-100008997D01*
X117684917Y-100015083D01*
X117697089Y-100406667D01*
X117710828Y-100406667D01*
X117706084Y-99993917D01*
X116663625Y-99988425D01*
X115621167Y-99982934D01*
X115621167Y-99834967D01*
X115618367Y-99759037D01*
X115610863Y-99706580D01*
X115600002Y-99687000D01*
X115600000Y-99687000D01*
X115589139Y-99706575D01*
G36*
X115433201Y-99000748D02*
X115300198Y-99004115D01*
X115192505Y-99010599D01*
X115101634Y-99020739D01*
X115019100Y-99035072D01*
X115007334Y-99037527D01*
X114646044Y-99135110D01*
X114305512Y-99268801D01*
X113987570Y-99436862D01*
X113694047Y-99637552D01*
X113426775Y-99869132D01*
X113187585Y-100129862D01*
X112978307Y-100418002D01*
X112800773Y-100731814D01*
X112656813Y-101069558D01*
X112566920Y-101356295D01*
X112545838Y-101436796D01*
X112529819Y-101504462D01*
X112518152Y-101567102D01*
X112510127Y-101632529D01*
X112505032Y-101708553D01*
X112502156Y-101802984D01*
X112500789Y-101923633D01*
X112500219Y-102078310D01*
X112500194Y-102089417D01*
X112499974Y-102245587D01*
X112500606Y-102367416D01*
X112502822Y-102462896D01*
X112507353Y-102540021D01*
X112514933Y-102606781D01*
X112526294Y-102671169D01*
X112542168Y-102741178D01*
X112563287Y-102824799D01*
X112569936Y-102850564D01*
X112658829Y-103146665D01*
X112767203Y-103414999D01*
X112900979Y-103667903D01*
X113066082Y-103917715D01*
X113112367Y-103980362D01*
X113340846Y-104249673D01*
X113598053Y-104491090D01*
X113879974Y-104702204D01*
X114182591Y-104880607D01*
X114501891Y-105023891D01*
X114833858Y-105129649D01*
X115127805Y-105188956D01*
X115225755Y-105198984D01*
X115353123Y-105205525D01*
X115499235Y-105208672D01*
X115653415Y-105208514D01*
X115804989Y-105205142D01*
X115943283Y-105198647D01*
X116057622Y-105189120D01*
X116118584Y-105180533D01*
X116475718Y-105094572D01*
X116814860Y-104971927D01*
X117133766Y-104814622D01*
X117430192Y-104624678D01*
X117701895Y-104404119D01*
X117946632Y-104154968D01*
X118162158Y-103879247D01*
X118346232Y-103578981D01*
X118496608Y-103256191D01*
X118603618Y-102939810D01*
X118649797Y-102757509D01*
X118681865Y-102584828D01*
X118701155Y-102409273D01*
X118708997Y-102218355D01*
X118707020Y-102027909D01*
X118638895Y-102027909D01*
X118629219Y-102363661D01*
X118581613Y-102698106D01*
X118495320Y-103027962D01*
X118369586Y-103349949D01*
X118312011Y-103468192D01*
X118162843Y-103733093D01*
X118003162Y-103965421D01*
X117825563Y-104174821D01*
X117622642Y-104370938D01*
X117611462Y-104380776D01*
X117370758Y-104574373D01*
X117124441Y-104736435D01*
X116866134Y-104869748D01*
X116589461Y-104977103D01*
X116288046Y-105061286D01*
X115955513Y-105125088D01*
X115885750Y-105135499D01*
X115802574Y-105141766D01*
X115688083Y-105142680D01*
X115552872Y-105138846D01*
X115407539Y-105130868D01*
X115262679Y-105119353D01*
X115128891Y-105104904D01*
X115016769Y-105088127D01*
X114999772Y-105084920D01*
X114657061Y-104996424D01*
X114330666Y-104869568D01*
X114022751Y-104705886D01*
X113735478Y-104506916D01*
X113471010Y-104274193D01*
X113231510Y-104009253D01*
X113019142Y-103713633D01*
X112979708Y-103650293D01*
X112831349Y-103370693D01*
X112712776Y-103068256D01*
X112622225Y-102738266D01*
X112601545Y-102639750D01*
X112581475Y-102500351D01*
X112568772Y-102332060D01*
X112563427Y-102147673D01*
X112565430Y-101959982D01*
X112574772Y-101781782D01*
X112591443Y-101625868D01*
X112602375Y-101561018D01*
X112691836Y-101211502D01*
X112818135Y-100879119D01*
X112979127Y-100566411D01*
X113172671Y-100275920D01*
X113396623Y-100010189D01*
X113648840Y-99771762D01*
X113927180Y-99563180D01*
X114229500Y-99386988D01*
X114553461Y-99245799D01*
X114737120Y-99187283D01*
X114941825Y-99137420D01*
X115155742Y-99098049D01*
X115367038Y-99071012D01*
X115563879Y-99058151D01*
X115734432Y-99061306D01*
X115737584Y-99061552D01*
X116102736Y-99107017D01*
X116442216Y-99184067D01*
X116760152Y-99294223D01*
X117060673Y-99439003D01*
X117347908Y-99619927D01*
X117441500Y-99688596D01*
X117708060Y-99916677D01*
X117942736Y-100169702D01*
X118144771Y-100444388D01*
X118313410Y-100737456D01*
X118447898Y-101045623D01*
X118547479Y-101365609D01*
X118611396Y-101694131D01*
X118638895Y-102027909D01*
X118707020Y-102027909D01*
X118706725Y-101999582D01*
X118706091Y-101978769D01*
X118700797Y-101837689D01*
X118693971Y-101726335D01*
X118683913Y-101632097D01*
X118668924Y-101542367D01*
X118647303Y-101444538D01*
X118618926Y-101332042D01*
X118509352Y-100991789D01*
X118363425Y-100669119D01*
X118183685Y-100366764D01*
X117972672Y-100087454D01*
X117732926Y-99833917D01*
X117466989Y-99608885D01*
X117177399Y-99415086D01*
X116866697Y-99255252D01*
X116586284Y-99147608D01*
X116427582Y-99097868D01*
X116289666Y-99060474D01*
X116161336Y-99033749D01*
X116031395Y-99016017D01*
X115888643Y-99005602D01*
X115721882Y-99000826D01*
X115600000Y-98999960D01*
X115433201Y-99000748D01*
X115433201Y-99000748D01*
G37*
X115433201Y-99000748D02*
X115300198Y-99004115D01*
X115192505Y-99010599D01*
X115101634Y-99020739D01*
X115019100Y-99035072D01*
X115007334Y-99037527D01*
X114646044Y-99135110D01*
X114305512Y-99268801D01*
X113987570Y-99436862D01*
X113694047Y-99637552D01*
X113426775Y-99869132D01*
X113187585Y-100129862D01*
X112978307Y-100418002D01*
X112800773Y-100731814D01*
X112656813Y-101069558D01*
X112566920Y-101356295D01*
X112545838Y-101436796D01*
X112529819Y-101504462D01*
X112518152Y-101567102D01*
X112510127Y-101632529D01*
X112505032Y-101708553D01*
X112502156Y-101802984D01*
X112500789Y-101923633D01*
X112500219Y-102078310D01*
X112500194Y-102089417D01*
X112499974Y-102245587D01*
X112500606Y-102367416D01*
X112502822Y-102462896D01*
X112507353Y-102540021D01*
X112514933Y-102606781D01*
X112526294Y-102671169D01*
X112542168Y-102741178D01*
X112563287Y-102824799D01*
X112569936Y-102850564D01*
X112658829Y-103146665D01*
X112767203Y-103414999D01*
X112900979Y-103667903D01*
X113066082Y-103917715D01*
X113112367Y-103980362D01*
X113340846Y-104249673D01*
X113598053Y-104491090D01*
X113879974Y-104702204D01*
X114182591Y-104880607D01*
X114501891Y-105023891D01*
X114833858Y-105129649D01*
X115127805Y-105188956D01*
X115225755Y-105198984D01*
X115353123Y-105205525D01*
X115499235Y-105208672D01*
X115653415Y-105208514D01*
X115804989Y-105205142D01*
X115943283Y-105198647D01*
X116057622Y-105189120D01*
X116118584Y-105180533D01*
X116475718Y-105094572D01*
X116814860Y-104971927D01*
X117133766Y-104814622D01*
X117430192Y-104624678D01*
X117701895Y-104404119D01*
X117946632Y-104154968D01*
X118162158Y-103879247D01*
X118346232Y-103578981D01*
X118496608Y-103256191D01*
X118603618Y-102939810D01*
X118649797Y-102757509D01*
X118681865Y-102584828D01*
X118701155Y-102409273D01*
X118708997Y-102218355D01*
X118707020Y-102027909D01*
X118638895Y-102027909D01*
X118629219Y-102363661D01*
X118581613Y-102698106D01*
X118495320Y-103027962D01*
X118369586Y-103349949D01*
X118312011Y-103468192D01*
X118162843Y-103733093D01*
X118003162Y-103965421D01*
X117825563Y-104174821D01*
X117622642Y-104370938D01*
X117611462Y-104380776D01*
X117370758Y-104574373D01*
X117124441Y-104736435D01*
X116866134Y-104869748D01*
X116589461Y-104977103D01*
X116288046Y-105061286D01*
X115955513Y-105125088D01*
X115885750Y-105135499D01*
X115802574Y-105141766D01*
X115688083Y-105142680D01*
X115552872Y-105138846D01*
X115407539Y-105130868D01*
X115262679Y-105119353D01*
X115128891Y-105104904D01*
X115016769Y-105088127D01*
X114999772Y-105084920D01*
X114657061Y-104996424D01*
X114330666Y-104869568D01*
X114022751Y-104705886D01*
X113735478Y-104506916D01*
X113471010Y-104274193D01*
X113231510Y-104009253D01*
X113019142Y-103713633D01*
X112979708Y-103650293D01*
X112831349Y-103370693D01*
X112712776Y-103068256D01*
X112622225Y-102738266D01*
X112601545Y-102639750D01*
X112581475Y-102500351D01*
X112568772Y-102332060D01*
X112563427Y-102147673D01*
X112565430Y-101959982D01*
X112574772Y-101781782D01*
X112591443Y-101625868D01*
X112602375Y-101561018D01*
X112691836Y-101211502D01*
X112818135Y-100879119D01*
X112979127Y-100566411D01*
X113172671Y-100275920D01*
X113396623Y-100010189D01*
X113648840Y-99771762D01*
X113927180Y-99563180D01*
X114229500Y-99386988D01*
X114553461Y-99245799D01*
X114737120Y-99187283D01*
X114941825Y-99137420D01*
X115155742Y-99098049D01*
X115367038Y-99071012D01*
X115563879Y-99058151D01*
X115734432Y-99061306D01*
X115737584Y-99061552D01*
X116102736Y-99107017D01*
X116442216Y-99184067D01*
X116760152Y-99294223D01*
X117060673Y-99439003D01*
X117347908Y-99619927D01*
X117441500Y-99688596D01*
X117708060Y-99916677D01*
X117942736Y-100169702D01*
X118144771Y-100444388D01*
X118313410Y-100737456D01*
X118447898Y-101045623D01*
X118547479Y-101365609D01*
X118611396Y-101694131D01*
X118638895Y-102027909D01*
X118707020Y-102027909D01*
X118706725Y-101999582D01*
X118706091Y-101978769D01*
X118700797Y-101837689D01*
X118693971Y-101726335D01*
X118683913Y-101632097D01*
X118668924Y-101542367D01*
X118647303Y-101444538D01*
X118618926Y-101332042D01*
X118509352Y-100991789D01*
X118363425Y-100669119D01*
X118183685Y-100366764D01*
X117972672Y-100087454D01*
X117732926Y-99833917D01*
X117466989Y-99608885D01*
X117177399Y-99415086D01*
X116866697Y-99255252D01*
X116586284Y-99147608D01*
X116427582Y-99097868D01*
X116289666Y-99060474D01*
X116161336Y-99033749D01*
X116031395Y-99016017D01*
X115888643Y-99005602D01*
X115721882Y-99000826D01*
X115600000Y-98999960D01*
X115433201Y-99000748D01*
D10*
X102980000Y-107245000D02*
X105280000Y-107245000D01*
D12*
X105020000Y-113290000D02*
X105020000Y-112090000D01*
X103260000Y-112090000D02*
X103260000Y-113290000D01*
D10*
X102699333Y-111732190D02*
X102866000Y-111494095D01*
X102985047Y-111732190D02*
X102985047Y-111232190D01*
X102794571Y-111232190D01*
X102746952Y-111256000D01*
X102723142Y-111279809D01*
X102699333Y-111327428D01*
X102699333Y-111398857D01*
X102723142Y-111446476D01*
X102746952Y-111470285D01*
X102794571Y-111494095D01*
X102985047Y-111494095D01*
X102223142Y-111732190D02*
X102508857Y-111732190D01*
X102366000Y-111732190D02*
X102366000Y-111232190D01*
X102413619Y-111303619D01*
X102461238Y-111351238D01*
X102508857Y-111375047D01*
X103250952Y-110636857D02*
X103250952Y-110970190D01*
X103370000Y-110446380D02*
X103489047Y-110803523D01*
X103179523Y-110803523D01*
X103036666Y-110470190D02*
X102703333Y-110470190D01*
X102917619Y-110970190D01*
X102417619Y-110470190D02*
X102370000Y-110470190D01*
X102322380Y-110494000D01*
X102298571Y-110517809D01*
X102274761Y-110565428D01*
X102250952Y-110660666D01*
X102250952Y-110779714D01*
X102274761Y-110874952D01*
X102298571Y-110922571D01*
X102322380Y-110946380D01*
X102370000Y-110970190D01*
X102417619Y-110970190D01*
X102465238Y-110946380D01*
X102489047Y-110922571D01*
X102512857Y-110874952D01*
X102536666Y-110779714D01*
X102536666Y-110660666D01*
X102512857Y-110565428D01*
X102489047Y-110517809D01*
X102465238Y-110494000D01*
X102417619Y-110470190D01*
M02*
